# Blender v2.91.0 OBJ File: 'AppleLoResDisplayMesh.blend'
# www.blender.org
mtllib AppleLoResDisplayMesh.mtl
o LoResApple
v 0.000000 0.000000 -0.500000
v -0.353553 0.000000 -0.353553
v -0.500000 0.000000 0.000000
v -0.353553 0.000000 0.353553
v 0.000000 0.000000 0.500000
v 0.353553 0.000000 0.353553
v 0.500000 0.000000 -0.000000
v 0.353553 0.000000 -0.353553
v 0.000000 0.262222 -0.460660
v -0.325736 0.262222 -0.325736
v -0.460660 0.262222 0.000000
v -0.325736 0.262222 0.325736
v 0.000000 0.262222 0.460660
v 0.325736 0.262222 0.325736
v 0.460660 0.262222 0.000000
v 0.325736 0.262222 -0.325736
v 0.000000 0.400000 -0.154881
v -0.109517 0.400000 -0.109517
v -0.154881 0.400000 0.000000
v -0.109517 0.400000 0.109517
v 0.000000 0.400000 0.154881
v 0.109517 0.400000 0.109517
v 0.154881 0.400000 0.000000
v 0.109517 0.400000 -0.109517
v 0.000000 -0.400000 -0.352429
v -0.249205 -0.400000 -0.249205
v -0.352429 -0.400000 -0.000000
v -0.249205 -0.400000 0.249205
v 0.000000 -0.400000 0.352429
v 0.249205 -0.400000 0.249205
v 0.352429 -0.400000 -0.000000
v 0.249205 -0.400000 -0.249205
v 0.000000 -0.500000 -0.242113
v -0.171199 -0.500000 -0.171199
v -0.242112 -0.500000 -0.000000
v -0.171199 -0.500000 0.171199
v 0.000000 -0.500000 0.242112
v 0.171199 -0.500000 0.171199
v 0.242112 -0.500000 -0.000000
v 0.171199 -0.500000 -0.171199
vt 0.671286 0.488921
vt 0.740627 0.683967
vt 0.663519 0.695522
vt 0.773319 0.954102
vt 0.653623 0.976143
vt 0.234944 0.282181
vt 0.290730 0.495218
vt 0.221657 0.488921
vt 0.213890 0.695522
vt 0.323690 0.954103
vt 0.203993 0.976143
vt 0.684573 0.282181
vt 0.740359 0.495218
vt 0.369211 0.093832
vt 0.310687 0.313912
vt 0.290998 0.683967
vt 0.711330 0.000000
vt 0.760316 0.313912
vt 0.449629 0.723160
vt 0.861379 0.522552
vt 0.419132 0.421218
vt 0.421514 0.625791
vt 0.899258 0.337851
vt 0.868761 0.421218
vt 0.871143 0.625790
vt 0.899258 0.723160
vt 0.411750 0.522552
vt 0.533654 0.650212
vt 0.546698 0.474400
vt 0.094769 0.287731
vt 0.084025 0.650212
vt 0.544398 0.287731
vt 0.067178 0.061103
vt 0.261701 0.000000
vt 0.097068 0.474400
vt 0.516807 0.061103
vt 0.040942 0.466836
vt 0.454993 0.139485
vt 0.490571 0.466836
vt 0.493546 0.830374
vt 0.481819 0.617436
vt 0.033643 0.305932
vt 0.043917 0.830374
vt 0.032190 0.617436
vt 0.483272 0.305932
vt 0.005364 0.139485
vt 0.928765 0.000000
vt 1.000000 0.059013
vt 0.970493 0.201484
vt 0.818840 0.093832
vt 0.449629 0.337851
vt 0.449629 0.750461
vt 0.000000 0.750461
vt 0.928765 0.201484
vt 0.899258 0.142471
vt 0.899258 0.059013
vt 0.970493 0.000000
vt 1.000000 0.142471
vn -0.7038 -0.0964 -0.7038
vn 0.0000 0.5530 -0.8332
vn 0.0000 -0.0964 -0.9953
vn 0.5891 0.5530 -0.5891
vn 0.7038 -0.0964 -0.7038
vn 0.9953 -0.0964 0.0000
vn 0.5891 0.5530 0.5891
vn 0.7038 -0.0964 0.7038
vn 0.0000 -0.0964 0.9953
vn -0.5891 0.5530 0.5891
vn -0.7038 -0.0964 0.7038
vn -0.9953 -0.0964 0.0000
vn -0.5891 0.5530 -0.5891
vn 0.8332 0.5530 0.0000
vn 0.0000 0.5530 0.8332
vn -0.8332 0.5530 0.0000
vn -0.1831 0.9658 0.1831
vn -0.1831 0.9658 -0.1831
vn 0.2590 0.9658 0.0000
vn 0.0000 0.9658 0.2590
vn -0.2590 0.9658 0.0000
vn 0.0000 0.9658 -0.2590
vn 0.1831 0.9658 -0.1831
vn 0.1831 0.9658 0.1831
vn 0.0000 -0.5340 -0.8454
vn -0.5978 -0.5340 -0.5978
vn 0.8454 -0.5340 0.0000
vn 0.0000 -0.5340 0.8454
vn -0.8454 -0.5340 0.0000
vn 0.5978 -0.5340 -0.5978
vn 0.5978 -0.5340 0.5978
vn -0.5978 -0.5340 0.5978
vn 0.4749 -0.7409 0.4749
vn -0.4749 -0.7409 0.4749
vn -0.4749 -0.7409 -0.4749
vn 0.0000 -0.7409 -0.6716
vn 0.6716 -0.7409 0.0000
vn 0.0000 -0.7409 0.6716
vn -0.6716 -0.7409 0.0000
vn 0.4749 -0.7409 -0.4749
usemtl AppleMaterial
s 1
f 2/1/1 9/2/2 1/3/3
f 1/3/3 16/4/4 8/5/5
f 7/6/6 14/7/7 6/8/8
f 5/9/9 12/10/10 4/11/11
f 3/12/12 10/13/13 2/1/1
f 7/6/6 16/14/4 15/15/14
f 5/9/9 14/7/7 13/16/15
f 4/17/11 11/18/16 3/12/12
f 13/16/15 20/19/17 12/10/10
f 11/18/16 18/20/18 10/13/13
f 16/14/4 23/21/19 15/15/14
f 14/7/7 21/22/20 13/16/15
f 11/18/16 20/23/17 19/24/21
f 10/13/13 17/25/22 9/2/2
f 16/4/4 17/25/22 24/26/23
f 15/15/14 22/27/24 14/7/7
f 2/1/1 25/28/25 26/29/26
f 8/5/5 25/28/25 1/3/3
f 6/8/8 31/30/27 7/6/6
f 4/11/11 29/31/28 5/9/9
f 2/1/1 27/32/29 3/12/12
f 7/6/6 32/33/30 8/34/5
f 5/9/9 30/35/31 6/8/8
f 3/12/12 28/36/32 4/17/11
f 29/31/28 38/37/33 30/35/31
f 27/32/29 36/38/34 28/36/32
f 25/28/25 34/39/35 26/29/26
f 32/40/30 33/41/36 25/28/25
f 30/35/31 39/42/37 31/30/27
f 28/43/32 37/44/38 29/31/28
f 26/29/26 35/45/39 27/32/29
f 31/30/27 40/46/40 32/33/30
f 21/47/20 23/48/19 17/49/22
f 2/1/1 10/13/13 9/2/2
f 1/3/3 9/2/2 16/4/4
f 7/6/6 15/15/14 14/7/7
f 5/9/9 13/16/15 12/10/10
f 3/12/12 11/18/16 10/13/13
f 7/6/6 8/34/5 16/14/4
f 5/9/9 6/8/8 14/7/7
f 4/17/11 12/50/10 11/18/16
f 13/16/15 21/22/20 20/19/17
f 11/18/16 19/24/21 18/20/18
f 16/14/4 24/51/23 23/21/19
f 14/7/7 22/27/24 21/22/20
f 11/18/16 12/50/10 20/23/17
f 10/13/13 18/20/18 17/25/22
f 16/4/4 9/2/2 17/25/22
f 15/15/14 23/21/19 22/27/24
f 2/1/1 1/3/3 25/28/25
f 8/5/5 32/40/30 25/28/25
f 6/8/8 30/35/31 31/30/27
f 4/11/11 28/43/32 29/31/28
f 2/1/1 26/29/26 27/32/29
f 7/6/6 31/30/27 32/33/30
f 5/9/9 29/31/28 30/35/31
f 3/12/12 27/32/29 28/36/32
f 29/31/28 37/44/38 38/37/33
f 27/32/29 35/45/39 36/38/34
f 25/28/25 33/41/36 34/39/35
f 32/40/30 40/52/40 33/41/36
f 30/35/31 38/37/33 39/42/37
f 28/43/32 36/53/34 37/44/38
f 26/29/26 34/39/35 35/45/39
f 31/30/27 39/42/37 40/46/40
f 17/49/22 18/54/18 19/55/21
f 19/55/21 20/56/17 17/49/22
f 20/56/17 21/47/20 17/49/22
f 21/47/20 22/57/24 23/48/19
f 23/48/19 24/58/23 17/49/22
