# Blender v2.91.0 OBJ File: 'PowerUpDecreaseLives.blend'
# www.blender.org
mtllib PowerUpDecreaseLives.mtl
o PowerUp
v 0.000000 0.562500 -0.056250
v 0.000000 0.562500 0.056250
v 0.215259 0.519682 -0.056250
v 0.215259 0.519682 0.056250
v 0.397748 0.397748 -0.056250
v 0.397748 0.397748 0.056250
v 0.519682 0.215259 -0.056250
v 0.519682 0.215259 0.056250
v 0.562500 -0.000000 -0.056250
v 0.562500 -0.000000 0.056250
v 0.519682 -0.215259 -0.056250
v 0.519682 -0.215259 0.056250
v 0.397748 -0.397748 -0.056250
v 0.397748 -0.397748 0.056250
v 0.215259 -0.519682 -0.056250
v 0.215259 -0.519682 0.056250
v 0.000000 -0.562500 -0.056250
v 0.000000 -0.562500 0.056250
v -0.215259 -0.519682 -0.056250
v -0.215259 -0.519682 0.056250
v -0.397747 -0.397748 -0.056250
v -0.397747 -0.397748 0.056250
v -0.519682 -0.215259 -0.056250
v -0.519682 -0.215259 0.056250
v -0.562500 0.000000 -0.056250
v -0.562500 0.000000 0.056250
v -0.519682 0.215260 -0.056250
v -0.519682 0.215260 0.056250
v -0.397747 0.397748 -0.056250
v -0.397747 0.397748 0.056250
v -0.215259 0.519682 -0.056250
v -0.215259 0.519682 0.056250
v -0.167963 0.405500 -0.056250
v -0.167963 0.405500 0.056250
v 0.167964 0.405500 0.056250
v 0.000000 0.438910 0.056250
v 0.000000 0.438910 -0.056250
v 0.438910 -0.000000 0.056250
v 0.405500 -0.167964 0.056250
v 0.405500 0.167964 0.056250
v -0.310356 0.310356 -0.056250
v -0.310356 0.310356 0.056250
v -0.405500 0.167964 -0.056250
v -0.405500 0.167964 0.056250
v -0.438910 0.000000 -0.056250
v -0.438910 0.000000 0.056250
v -0.405500 -0.167964 0.056250
v -0.310356 -0.310356 0.056250
v -0.405500 -0.167964 -0.056250
v -0.167963 -0.405500 0.056250
v 0.167964 -0.405500 0.056250
v 0.000000 -0.438910 0.056250
v -0.310356 -0.310356 -0.056250
v 0.310356 -0.310356 0.056250
v 0.310356 0.310356 0.056250
v -0.167963 -0.405500 -0.056250
v 0.310356 -0.310356 -0.056250
v 0.438910 -0.000000 -0.056250
v 0.405500 -0.167964 -0.056250
v 0.000000 -0.438910 -0.056250
v 0.167964 -0.405500 -0.056250
v 0.310356 0.310356 -0.056250
v 0.167964 0.405500 -0.056250
v 0.405500 0.167964 -0.056250
v -0.067373 -0.067373 0.067373
v -0.067373 0.067373 0.067373
v -0.067373 -0.067373 -0.067373
v -0.067373 0.067373 -0.067373
v 0.067373 -0.067373 0.067373
v 0.067373 0.067373 0.067373
v 0.067373 -0.067373 -0.067373
v 0.067373 0.067373 -0.067373
v 0.236123 0.067373 -0.067373
v 0.236123 -0.067373 -0.067373
v 0.236123 -0.067373 0.067373
v 0.236123 0.067373 0.067373
v -0.236123 -0.067373 -0.067373
v -0.236123 -0.067373 0.067373
v -0.236123 0.067373 0.067373
v -0.236123 0.067373 -0.067373
vt 1.000000 1.000000
vt 0.937500 0.500000
vt 1.000000 0.500000
vt 0.937500 1.000000
vt 0.875000 0.500000
vt 0.812500 1.000000
vt 0.812500 0.500000
vt 0.750000 0.500000
vt 0.750000 1.000000
vt 0.687500 0.500000
vt 0.687500 1.000000
vt 0.625000 0.500000
vt 0.625000 1.000000
vt 0.562500 0.500000
vt 0.562500 1.000000
vt 0.500000 0.500000
vt 0.500000 1.000000
vt 0.437500 0.500000
vt 0.437500 1.000000
vt 0.375000 0.500000
vt 0.375000 1.000000
vt 0.312500 0.500000
vt 0.312500 1.000000
vt 0.250000 0.500000
vt 0.250000 1.000000
vt 0.187500 0.500000
vt 0.187500 1.000000
vt 0.125000 0.500000
vt 0.125000 1.000000
vt 0.062500 0.500000
vt 0.062500 1.000000
vt 0.000000 0.500000
vt 1.000000 0.668782
vt 0.937500 0.831218
vt 1.000000 0.831218
vt 0.937500 0.668782
vt 0.875000 0.831218
vt 0.937500 0.831218
vt 0.875000 0.668782
vt 0.812500 0.831218
vt 0.875000 0.831218
vt 0.750000 0.831218
vt 0.812500 0.668782
vt 0.750000 0.668782
vt 0.687500 0.831218
vt 0.750000 0.668782
vt 0.687500 0.668782
vt 0.625000 0.831218
vt 0.687500 0.668782
vt 0.625000 0.668782
vt 0.625000 0.831218
vt 0.562500 0.668782
vt 0.562500 0.831218
vt 0.562500 0.831218
vt 0.500000 0.668782
vt 0.500000 0.831218
vt 0.500000 0.831218
vt 0.437500 0.668782
vt 0.437500 0.831218
vt 0.437500 0.831218
vt 0.375000 0.668782
vt 0.375000 0.831218
vt 0.375000 0.831218
vt 0.312500 0.668782
vt 0.312500 0.831218
vt 0.312500 0.831218
vt 0.250000 0.668782
vt 0.250000 0.831218
vt 0.187500 0.831218
vt 0.250000 0.668782
vt 0.187500 0.668782
vt 0.187500 0.831218
vt 0.125000 0.668782
vt 0.125000 0.831218
vt 0.062500 0.831218
vt 0.125000 0.668782
vt 0.062500 0.668782
vt 0.000000 0.831218
vt 0.062500 0.668782
vt 0.000000 0.668782
vt 0.830747 0.279003
vt 0.720998 0.169254
vt 0.923880 0.216773
vt 0.109858 0.577604
vt 0.169254 0.720998
vt 0.076121 0.783227
vt 0.422396 0.109858
vt 0.279002 0.169254
vt 0.216773 0.076121
vt 0.599456 1.000000
vt 0.422396 0.890142
vt 0.577604 0.890142
vt 0.642665 0.000000
vt 1.000000 0.285329
vt 0.642665 0.285329
vt 0.285329 0.357335
vt 0.000000 0.642665
vt 0.000000 0.357336
vt 0.357335 0.285329
vt 0.000000 0.000000
vt 0.357336 0.000000
vt 0.642665 0.285329
vt 1.000000 0.750788
vt 0.666667 0.417454
vt 1.000000 0.417454
vt 0.357335 0.285329
vt 0.000000 0.000000
vt 0.357336 0.000000
vt 0.285329 0.642665
vt 0.000000 1.000000
vt 0.000000 0.642665
vt 0.285329 0.642665
vt 0.000000 1.000000
vt 1.000000 0.333333
vt 0.666667 0.000000
vt 1.000000 0.000000
vt 0.285329 0.000000
vt 0.642665 0.000000
vt 1.000000 0.285329
vt 0.000000 0.357335
vt 0.285329 0.000000
vt 0.285329 0.357336
vt 0.875000 1.000000
vt 0.000000 1.000000
vt 0.937500 0.668782
vt 0.875000 0.668782
vt 0.812500 0.668782
vt 0.812500 0.831218
vt 0.750000 0.831218
vt 0.687500 0.831218
vt 0.625000 0.668782
vt 0.562500 0.668782
vt 0.500000 0.668782
vt 0.437500 0.668782
vt 0.375000 0.668782
vt 0.312500 0.668782
vt 0.250000 0.831218
vt 0.187500 0.668782
vt 0.125000 0.831218
vt 0.062500 0.831218
vt 0.783228 0.076121
vt 1.000000 0.400544
vt 1.000000 0.599456
vt 0.890142 0.422396
vt 0.890142 0.577604
vt 0.830747 0.720997
vt 0.923880 0.783227
vt 0.783228 0.923879
vt 0.599457 1.000000
vt 0.720998 0.830746
vt 0.400545 1.000000
vt 0.577605 0.890142
vt 0.216774 0.923880
vt 0.279003 0.830746
vt 0.000000 0.599456
vt 0.000000 0.400543
vt 0.109858 0.422396
vt 0.076121 0.216772
vt 0.169254 0.279002
vt 0.216773 0.076120
vt 0.400544 0.000000
vt 0.422396 0.109858
vt 0.599457 0.000000
vt 0.577605 0.109858
vt 0.279003 0.169253
vt 0.422397 0.890142
vt 0.400544 1.000000
vt 0.279002 0.830746
vt 0.216773 0.923880
vt 0.076120 0.783227
vt 0.169253 0.720998
vt 0.000000 0.599456
vt 0.000000 0.400544
vt 0.109858 0.577604
vt 0.076120 0.216773
vt 0.109858 0.422396
vt 0.400544 0.000000
vt 0.599456 0.000000
vt 0.577604 0.109858
vt 0.783227 0.076121
vt 0.720998 0.169254
vt 0.923880 0.216773
vt 0.830746 0.279002
vt 1.000000 0.400544
vt 1.000000 0.599456
vt 0.890142 0.422396
vt 0.923880 0.783227
vt 0.890142 0.577604
vt 0.830747 0.720998
vt 0.169253 0.279002
vt 0.720998 0.830747
vt 0.783227 0.923880
vt 0.000000 0.285329
vt 0.666667 0.750788
vt 0.000000 0.285329
vt 0.285329 1.000000
vt 0.285329 1.000000
vt 0.666667 0.333333
vt 0.000000 0.000000
vt 1.000000 0.000000
vt 0.000000 0.000000
vn 0.1951 0.9808 0.0000
vn 0.5556 0.8315 0.0000
vn 0.8315 0.5556 0.0000
vn 0.9808 0.1951 0.0000
vn 0.9808 -0.1951 -0.0000
vn 0.8315 -0.5556 0.0000
vn 0.5556 -0.8315 0.0000
vn 0.1951 -0.9808 0.0000
vn -0.1951 -0.9808 0.0000
vn -0.5556 -0.8315 0.0000
vn -0.8315 -0.5556 0.0000
vn -0.9808 -0.1951 0.0000
vn -0.9808 0.1951 0.0000
vn -0.8315 0.5556 0.0000
vn -0.5556 0.8315 0.0000
vn -0.1951 0.9808 0.0000
vn 0.0000 -0.0000 1.0000
vn 0.0000 0.0000 -1.0000
vn 0.0000 -1.0000 0.0000
vn 1.0000 0.0000 0.0000
vn 0.0000 1.0000 0.0000
vn -1.0000 0.0000 0.0000
usemtl PowerUp
s off
f 2/1/1 3/2/1 1/3/1
f 4/4/2 5/5/2 3/2/2
f 5/5/3 8/6/3 7/7/3
f 8/6/4 9/8/4 7/7/4
f 10/9/5 11/10/5 9/8/5
f 12/11/6 13/12/6 11/10/6
f 14/13/7 15/14/7 13/12/7
f 16/15/8 17/16/8 15/14/8
f 18/17/9 19/18/9 17/16/9
f 20/19/10 21/20/10 19/18/10
f 22/21/11 23/22/11 21/20/11
f 24/23/12 25/24/12 23/22/12
f 26/25/13 27/26/13 25/24/13
f 28/27/14 29/28/14 27/26/14
f 30/29/15 31/30/15 29/28/15
f 32/31/16 1/32/16 31/30/16
f 33/33/8 36/34/8 34/35/8
f 41/36/7 34/37/7 42/38/7
f 43/39/6 42/40/6 44/41/6
f 44/42/5 45/43/5 43/44/5
f 46/45/4 49/46/4 45/47/4
f 47/48/3 53/49/3 49/50/3
f 50/51/2 53/52/2 48/53/2
f 52/54/1 56/55/1 50/56/1
f 51/57/16 60/58/16 52/59/16
f 54/60/15 61/61/15 51/62/15
f 39/63/14 57/64/14 54/65/14
f 38/66/13 59/67/13 39/68/13
f 38/69/12 64/70/12 58/71/12
f 55/72/11 64/73/11 40/74/11
f 55/75/10 63/76/10 62/77/10
f 35/78/9 37/79/9 63/80/9
f 38/81/17 39/82/17 10/83/17
f 47/84/17 46/85/17 26/86/17
f 43/87/18 45/88/18 25/89/18
f 11/90/18 57/91/18 59/92/18
f 65/93/19 77/94/19 67/95/19
f 68/96/18 71/97/18 67/98/18
f 69/99/17 76/100/17 70/101/17
f 70/101/17 65/102/17 69/99/17
f 73/103/20 75/104/20 74/105/20
f 71/106/19 75/107/19 69/108/19
f 70/109/21 73/110/21 72/111/21
f 72/112/18 74/113/18 71/97/18
f 79/114/22 77/115/22 78/116/22
f 67/98/18 80/117/18 68/96/18
f 66/118/17 78/119/17 65/102/17
f 68/120/21 79/121/21 66/122/21
f 2/1/1 4/4/1 3/2/1
f 4/4/2 6/123/2 5/5/2
f 5/5/3 6/123/3 8/6/3
f 8/6/4 10/9/4 9/8/4
f 10/9/5 12/11/5 11/10/5
f 12/11/6 14/13/6 13/12/6
f 14/13/7 16/15/7 15/14/7
f 16/15/8 18/17/8 17/16/8
f 18/17/9 20/19/9 19/18/9
f 20/19/10 22/21/10 21/20/10
f 22/21/11 24/23/11 23/22/11
f 24/23/12 26/25/12 25/24/12
f 26/25/13 28/27/13 27/26/13
f 28/27/14 30/29/14 29/28/14
f 30/29/15 32/31/15 31/30/15
f 32/31/16 2/124/16 1/32/16
f 33/33/8 37/125/8 36/34/8
f 41/36/7 33/126/7 34/37/7
f 43/39/6 41/127/6 42/40/6
f 44/42/5 46/128/5 45/43/5
f 46/45/4 47/129/4 49/46/4
f 47/48/3 48/130/3 53/49/3
f 50/51/2 56/131/2 53/52/2
f 52/54/1 60/132/1 56/55/1
f 51/57/16 61/133/16 60/58/16
f 54/60/15 57/134/15 61/61/15
f 39/63/14 59/135/14 57/64/14
f 38/66/13 58/136/13 59/67/13
f 38/69/12 40/137/12 64/70/12
f 55/72/11 62/138/11 64/73/11
f 55/75/10 35/139/10 63/76/10
f 35/78/9 36/140/9 37/79/9
f 39/82/17 12/141/17 10/83/17
f 10/83/17 8/142/17 38/81/17
f 8/142/17 6/143/17 40/144/17
f 38/81/17 8/142/17 40/144/17
f 6/143/17 55/145/17 40/144/17
f 35/146/17 55/145/17 6/143/17
f 6/143/17 4/147/17 35/146/17
f 4/147/17 2/148/17 35/146/17
f 2/148/17 32/149/17 36/150/17
f 32/149/17 30/151/17 34/152/17
f 36/150/17 32/149/17 34/152/17
f 30/151/17 28/153/17 44/154/17
f 28/153/17 26/86/17 44/154/17
f 26/86/17 24/155/17 47/84/17
f 24/155/17 22/156/17 48/157/17
f 22/156/17 20/158/17 50/159/17
f 20/158/17 18/160/17 50/159/17
f 18/160/17 16/161/17 51/162/17
f 16/161/17 14/163/17 54/164/17
f 14/163/17 12/141/17 39/82/17
f 14/163/17 39/82/17 54/164/17
f 36/150/17 35/146/17 2/148/17
f 16/161/17 54/164/17 51/162/17
f 18/160/17 51/162/17 52/165/17
f 18/160/17 52/165/17 50/159/17
f 42/166/17 34/152/17 30/151/17
f 44/154/17 42/166/17 30/151/17
f 22/156/17 50/159/17 48/157/17
f 46/85/17 44/154/17 26/86/17
f 24/155/17 48/157/17 47/84/17
f 57/91/18 13/167/18 61/168/18
f 13/167/18 15/169/18 61/168/18
f 15/169/18 17/170/18 60/171/18
f 17/170/18 19/172/18 60/171/18
f 19/172/18 21/173/18 56/174/18
f 21/173/18 23/175/18 53/176/18
f 56/174/18 21/173/18 53/176/18
f 23/175/18 25/89/18 45/88/18
f 25/89/18 27/177/18 43/87/18
f 27/177/18 29/178/18 41/179/18
f 29/178/18 31/180/18 33/181/18
f 31/180/18 1/182/18 37/183/18
f 1/182/18 3/184/18 37/183/18
f 3/184/18 5/185/18 63/186/18
f 5/185/18 7/187/18 62/188/18
f 63/186/18 5/185/18 62/188/18
f 7/187/18 64/189/18 62/188/18
f 60/171/18 61/168/18 15/169/18
f 3/184/18 63/186/18 37/183/18
f 56/174/18 60/171/18 19/172/18
f 31/180/18 37/183/18 33/181/18
f 29/178/18 33/181/18 41/179/18
f 49/190/18 53/176/18 23/175/18
f 45/88/18 49/190/18 23/175/18
f 27/177/18 41/179/18 43/87/18
f 58/191/18 64/189/18 7/187/18
f 7/187/18 9/192/18 58/191/18
f 9/192/18 11/90/18 59/92/18
f 11/90/18 13/167/18 57/91/18
f 59/92/18 58/191/18 9/192/18
f 65/93/19 78/116/19 77/94/19
f 68/96/18 72/112/18 71/97/18
f 69/99/17 75/193/17 76/100/17
f 70/101/17 66/118/17 65/102/17
f 71/106/19 69/108/19 67/95/19
f 65/93/19 67/95/19 69/108/19
f 72/111/21 66/122/21 70/109/21
f 68/120/21 66/122/21 72/111/21
f 73/103/20 76/194/20 75/104/20
f 71/106/19 74/195/19 75/107/19
f 70/109/21 76/196/21 73/110/21
f 72/112/18 73/197/18 74/113/18
f 79/114/22 80/198/22 77/115/22
f 67/98/18 77/199/18 80/117/18
f 66/118/17 79/200/17 78/119/17
f 68/120/21 80/201/21 79/121/21
