# Blender v2.91.0 OBJ File: 'PowerUpIncreasePoints.blend'
# www.blender.org
mtllib PowerUpIncreasePoints.mtl
o PowerUp
v -0.499661 -0.080327 0.050770
v -0.499661 0.019673 0.050770
v -0.499661 -0.080327 -0.050770
v -0.499661 0.019673 -0.050770
v -0.398891 -0.081098 0.050770
v -0.398891 0.020443 0.050770
v -0.398891 -0.081098 -0.050770
v -0.398891 0.020443 -0.050770
v -0.700432 -0.081098 0.050770
v -0.700432 0.020397 0.050770
v -0.700432 -0.081098 -0.050770
v -0.700431 0.020489 -0.050770
v -0.599661 -0.080327 0.050770
v -0.599691 0.019702 0.050771
v -0.599661 -0.080327 -0.050770
v -0.599632 0.019643 -0.050771
v -0.600386 0.120443 0.050770
v -0.600477 0.120443 -0.050770
v -0.498891 0.120443 0.050770
v -0.498891 0.120443 -0.050770
v -0.600432 -0.181098 0.050770
v -0.600432 -0.181098 -0.050770
v -0.498891 -0.181098 0.050770
v -0.498891 -0.181098 -0.050770
v -0.103829 -0.273048 0.103829
v -0.103829 0.273048 0.103829
v -0.103829 -0.273048 -0.103829
v -0.103829 0.273048 -0.103829
v 0.103829 -0.273048 0.103829
v 0.103829 -0.273048 -0.103829
v 0.303829 -0.473048 -0.103829
v 0.303829 -0.273048 -0.103829
v 0.303829 -0.273048 0.103829
v 0.303829 -0.473048 0.103829
v -0.303829 -0.473048 -0.103829
v -0.303829 -0.273048 -0.103829
v -0.303829 -0.273048 0.103829
v -0.303829 -0.473048 0.103829
v -0.103829 0.473048 0.103829
v -0.103829 0.473048 -0.103829
v 0.103829 0.473048 -0.103829
v 0.103829 0.473048 0.103829
v -0.303829 0.173048 0.103829
v -0.303829 0.173048 -0.103829
v -0.303829 0.373048 0.103829
v -0.303829 0.373048 -0.103829
v 0.603829 -0.073048 0.103829
v 0.603829 0.124642 0.103829
v 0.603829 -0.073048 -0.103829
v 0.603829 0.124642 -0.103829
v 0.396171 0.473048 0.103829
v 0.396171 0.473048 -0.103829
v 0.603829 0.473048 -0.103829
v 0.603829 0.473048 0.103829
v 0.396171 -0.473048 -0.103829
v 0.396171 -0.473048 0.103829
v 0.603829 -0.473048 -0.103829
v 0.603829 -0.473048 0.103829
v 0.997450 0.345924 -0.103829
v 0.997450 0.148234 -0.103829
v 0.997450 0.148234 0.103829
v 0.997450 0.345924 0.103829
v 0.769790 0.022168 0.103829
v 0.769790 0.022168 -0.103829
v 0.775502 -0.469543 0.103829
v 0.775502 -0.469543 -0.103829
v 0.999741 -0.469959 0.103829
v 0.999741 -0.469959 -0.103829
vt 0.195642 0.854988
vt 0.390195 0.757711
vt 0.195642 0.660435
vt 0.592196 0.226489
vt 0.786749 0.226489
vt 0.786749 0.031936
vt 0.543233 0.856924
vt 0.436510 0.962841
vt 0.436510 0.856924
vt 0.218351 0.895900
vt 0.325026 0.789178
vt 0.325026 0.895900
vt 0.473302 0.426362
vt 0.376055 0.523610
vt 0.473302 0.523639
vt 0.653332 0.849537
vt 0.533389 0.730536
vt 0.653332 0.730465
vt 0.860164 0.848876
vt 0.753441 0.954792
vt 0.753441 0.848876
vt 0.390195 0.226489
vt 0.195642 0.031936
vt 0.717780 0.490580
vt 0.000000 0.245290
vt 0.717780 0.245290
vt 0.653386 0.610523
vt 0.533497 0.490580
vt 0.653386 0.490580
vt 0.860164 0.848876
vt 0.966080 0.955599
vt 0.860164 0.955599
vt 0.652425 0.969479
vt 0.533389 0.849537
vt 0.652425 0.849537
vt 0.421295 0.430343
vt 0.582737 0.522966
vt 0.588293 0.044646
vt 0.390195 0.757711
vt 0.592196 0.952264
vt 0.390195 0.952264
vt 0.775243 0.119036
vt 0.894279 0.238978
vt 0.775243 0.238978
vt 0.786749 0.031936
vt 0.786749 0.226489
vt 0.592196 0.226489
vt 0.219294 0.961565
vt 0.219294 0.041237
vt 0.219294 0.961565
vt 0.325026 0.789178
vt 0.431749 0.895900
vt 0.325026 0.895900
vt 0.473302 0.523639
vt 0.376026 0.426362
vt 0.473302 0.426362
vt 0.375277 0.328336
vt 0.278000 0.524343
vt 0.375997 0.523667
vt 0.646717 0.954761
vt 0.753441 0.848876
vt 0.753441 0.954824
vt 0.421295 0.961565
vt 0.421295 0.622649
vt 0.582737 0.522966
vt 0.421295 0.430343
vt 0.588293 0.044646
vt 0.474052 0.328336
vt 0.376026 0.426362
vt 0.219294 0.041237
vt 0.474052 0.621664
vt 0.375232 0.621664
vt 0.195642 0.226489
vt 0.571328 0.524388
vt 0.571328 0.425613
vt 0.792221 0.000000
vt 0.218255 0.218255
vt 0.218255 0.000000
vt 0.390195 0.226489
vt 0.195642 0.226489
vt 0.195642 0.031936
vt 0.421295 0.041237
vt 0.592196 0.952264
vt 0.390195 0.952264
vt 0.646717 0.856924
vt 0.436510 0.638669
vt 0.646717 0.638669
vt 0.954025 1.000000
vt 0.717780 0.754710
vt 0.954025 0.754710
vt 0.864973 0.638669
vt 0.646717 0.848876
vt 0.646717 0.638669
vt 0.533389 0.730465
vt 0.653332 0.610523
vt 0.653332 0.730465
vt 0.717780 0.509420
vt 0.963070 0.754710
vt 0.717780 0.754710
vt 0.804196 0.645598
vt 0.421295 0.622649
vt 0.804196 0.837903
vt 0.000000 0.994379
vt 0.218255 0.784172
vt 0.218255 0.994379
vt 0.963070 0.509420
vt 0.717780 0.245290
vt 0.963070 0.245290
vt 0.775243 0.119036
vt 0.895185 0.000000
vt 0.895185 0.119036
vt 0.571328 0.425613
vt 0.571328 0.524388
vt 0.533389 0.735870
vt 0.000000 0.490580
vt 0.533389 0.490580
vt 0.804196 0.645598
vt 0.873021 0.218255
vt 0.654766 0.584441
vt 0.654766 0.218255
vt 0.421295 0.961565
vt 0.490580 0.981160
vt 0.245290 0.735870
vt 0.490580 0.735870
vt 0.421295 0.041237
vt 0.245290 0.981160
vt 0.000000 0.735870
vt 0.245290 0.735870
vt 0.278000 0.425613
vt 0.375321 0.621665
vt 0.474052 0.621664
vt 0.436510 0.638669
vt 0.654766 0.218255
vt 0.654766 0.638669
vt 1.000000 0.000000
vt 0.792221 0.218255
vt 0.792221 0.000000
vt 0.195642 0.854988
vt 0.775243 0.245290
vt 0.264877 0.000000
vt 0.775243 0.000000
vt 0.436510 0.218255
vt 0.218255 0.789178
vt 0.218255 0.218255
vt 0.000000 0.000000
vt 0.264877 0.245290
vt 0.000000 0.245290
vt 0.218255 0.784172
vt 0.000000 0.000000
vt 0.218255 0.000000
vt 0.543233 0.962841
vt 0.218255 0.789178
vt 0.533390 0.849537
vt 0.860164 0.954793
vt 0.000000 0.490580
vt 0.533389 0.610522
vt 0.966080 0.848876
vt 0.533389 0.969479
vt 0.806424 0.044242
vt 0.894279 0.119036
vt 0.431749 0.789178
vt 0.474052 0.328336
vt 0.278000 0.425613
vt 0.646718 0.848876
vt 0.806424 0.044242
vt 0.375277 0.328336
vt 0.792221 0.218255
vt 0.436510 0.856924
vt 0.717780 1.000000
vt 0.864973 0.848876
vt 0.533389 0.610523
vt 0.000000 0.784172
vt 0.195642 0.660435
vt 0.775243 0.000000
vt 0.000000 0.735870
vt 0.804196 0.837903
vt 0.873021 0.584441
vt 0.245290 0.981160
vt 0.000000 0.981160
vt 0.278000 0.524433
vt 0.436510 0.218255
vt 1.000000 0.218255
vt 0.436510 0.789178
vt 0.000000 0.784172
vn 0.0000 0.0000 -1.0000
vn 1.0000 0.0076 0.0000
vn -1.0000 0.0000 0.0000
vn 0.0084 1.0000 -0.0006
vn -1.0000 0.0076 0.0000
vn 0.0000 -1.0000 0.0000
vn 0.0000 1.0000 0.0000
vn 1.0000 -0.0076 0.0000
vn -0.0076 -1.0000 0.0000
vn 0.0000 -0.0000 1.0000
vn -0.0076 1.0000 0.0000
vn 1.0000 -0.0000 0.0000
vn -1.0000 -0.0084 -0.0006
vn -0.4472 0.8944 0.0000
vn 0.4472 -0.8944 0.0000
vn 0.0076 -1.0000 0.0000
vn -0.4900 0.8717 0.0000
vn 0.4844 -0.8748 0.0000
vn -0.9177 -0.3973 0.0000
vn 0.9060 0.4233 0.0000
vn -0.0019 -1.0000 0.0000
vn 0.0069 1.0000 0.0009
vn -1.0000 -0.0069 0.0009
usemtl PowerUp
s off
f 46/1/1 28/2/1 44/3/1
f 30/4/1 32/5/1 31/6/1
f 1/7/2 24/8/2 3/9/2
f 10/10/3 11/11/3 9/12/3
f 3/13/1 16/14/1 4/15/1
f 12/16/4 14/17/4 16/18/4
f 15/19/5 21/20/5 13/21/5
f 27/22/1 31/6/1 35/23/1
f 35/24/6 34/25/6 38/26/6
f 20/27/7 17/28/7 19/29/7
f 4/30/8 19/31/8 2/32/8
f 5/33/9 3/34/9 7/35/9
f 49/36/1 64/37/1 66/38/1
f 26/39/10 42/40/10 39/41/10
f 2/42/11 8/43/11 4/44/11
f 34/45/10 33/46/10 29/47/10
f 52/48/3 56/49/3 51/50/3
f 6/51/12 7/52/12 8/53/12
f 2/54/10 13/55/10 1/56/10
f 21/57/10 1/56/10 13/55/10
f 10/58/10 13/55/10 14/59/10
f 14/60/13 18/61/13 16/62/13
f 54/63/10 51/50/10 48/64/10
f 63/65/10 47/66/10 65/67/10
f 24/68/1 15/69/1 3/13/1
f 52/48/1 49/36/1 55/70/1
f 20/71/1 16/14/1 18/72/1
f 35/23/1 36/73/1 27/22/1
f 3/13/1 8/74/1 7/75/1
f 26/76/3 27/77/3 25/78/3
f 25/79/10 37/80/10 38/81/10
f 26/39/10 25/79/10 29/47/10
f 56/49/10 58/82/10 47/66/10
f 41/83/1 28/2/1 40/84/1
f 29/47/10 38/81/10 34/45/10
f 33/85/12 31/86/12 32/87/12
f 29/88/7 32/89/7 30/90/7
f 36/91/3 38/92/3 37/93/3
f 27/22/7 37/80/7 25/79/7
f 23/94/6 22/95/6 24/96/6
f 40/97/7 42/98/7 41/99/7
f 51/50/10 47/66/10 48/64/10
f 60/100/1 50/101/1 59/102/1
f 43/103/3 46/104/3 44/105/3
f 39/106/14 46/107/14 45/108/14
f 26/39/15 44/3/15 28/2/15
f 13/109/16 11/110/16 15/111/16
f 2/54/10 5/112/10 6/113/10
f 48/114/17 59/115/17 50/116/17
f 61/117/10 48/64/10 63/65/10
f 50/118/12 54/119/12 48/120/12
f 52/48/1 53/121/1 50/101/1
f 54/122/7 52/123/7 51/124/7
f 49/36/1 57/125/1 55/70/1
f 27/22/1 28/2/1 30/4/1
f 57/126/6 56/127/6 55/128/6
f 11/129/1 16/14/1 15/69/1
f 17/130/10 2/54/10 19/131/10
f 47/132/12 57/133/12 49/134/12
f 59/135/12 61/136/12 60/137/12
f 45/138/10 26/39/10 39/41/10
f 63/65/18 60/100/18 61/117/18
f 49/139/19 65/140/19 47/141/19
f 63/142/20 68/143/20 64/144/20
f 67/145/21 66/146/21 68/147/21
f 41/148/12 29/149/12 30/150/12
f 46/1/1 40/84/1 28/2/1
f 1/7/2 23/151/2 24/8/2
f 10/10/3 12/152/3 11/11/3
f 3/13/1 15/69/1 16/14/1
f 12/16/22 10/153/22 14/17/22
f 15/19/5 22/154/5 21/20/5
f 27/22/1 30/4/1 31/6/1
f 35/24/6 31/155/6 34/25/6
f 20/27/7 18/156/7 17/28/7
f 4/30/8 20/157/8 19/31/8
f 5/33/9 1/158/9 3/34/9
f 50/101/1 64/37/1 49/36/1
f 64/37/1 68/159/1 66/38/1
f 26/39/10 29/47/10 42/40/10
f 2/42/11 6/160/11 8/43/11
f 52/48/3 55/70/3 56/49/3
f 6/51/12 5/161/12 7/52/12
f 2/54/10 14/59/10 13/55/10
f 21/57/10 23/162/10 1/56/10
f 10/58/10 9/163/10 13/55/10
f 14/60/23 17/164/23 18/61/23
f 65/67/10 67/165/10 63/65/10
f 63/65/10 48/64/10 47/66/10
f 24/68/1 22/166/1 15/69/1
f 52/48/1 50/101/1 49/36/1
f 20/71/1 4/15/1 16/14/1
f 3/13/1 4/15/1 8/74/1
f 26/76/3 28/167/3 27/77/3
f 41/83/1 30/4/1 28/2/1
f 29/47/10 25/79/10 38/81/10
f 33/85/12 34/168/12 31/86/12
f 29/88/7 33/169/7 32/89/7
f 36/91/3 35/170/3 38/92/3
f 27/22/7 36/73/7 37/80/7
f 23/94/6 21/171/6 22/95/6
f 40/97/7 39/106/7 42/98/7
f 51/50/10 56/49/10 47/66/10
f 60/100/1 64/37/1 50/101/1
f 43/103/3 45/172/3 46/104/3
f 39/106/14 40/97/14 46/107/14
f 26/39/15 43/173/15 44/3/15
f 13/109/16 9/174/16 11/110/16
f 2/54/10 1/56/10 5/112/10
f 48/114/17 62/175/17 59/115/17
f 61/117/10 62/176/10 48/64/10
f 50/118/12 53/177/12 54/119/12
f 54/122/7 53/178/7 52/123/7
f 57/126/6 58/179/6 56/127/6
f 11/129/1 12/180/1 16/14/1
f 17/130/10 14/59/10 2/54/10
f 47/132/12 58/181/12 57/133/12
f 59/135/12 62/182/12 61/136/12
f 45/138/10 43/173/10 26/39/10
f 63/65/18 64/37/18 60/100/18
f 49/139/19 66/146/19 65/140/19
f 63/142/20 67/183/20 68/143/20
f 67/145/21 65/140/21 66/146/21
f 41/148/12 42/184/12 29/149/12
