# Blender v2.91.0 OBJ File: 'PowerUpDecreaseSpeed.blend'
# www.blender.org
mtllib PowerUpDecreaseSpeed.mtl
o PowerUp
v -0.442284 0.344856 -0.152500
v -0.466696 0.342202 -0.132686
v -0.439629 0.369269 -0.132686
v -0.442284 0.344856 0.012500
v -0.439629 0.369269 -0.007314
v -0.466696 0.342202 -0.007314
v -0.377512 0.382252 -0.152500
v -0.399981 0.392159 -0.132686
v -0.363007 0.402067 -0.132686
v -0.377512 0.382252 0.012500
v -0.363007 0.402067 -0.007314
v -0.399981 0.392159 -0.007314
v -0.302721 0.382252 -0.152500
v -0.317226 0.402067 -0.132686
v -0.280252 0.392159 -0.132686
v -0.302721 0.382252 0.012500
v -0.280252 0.392159 -0.007314
v -0.317226 0.402067 -0.007314
v 0.182400 0.102168 -0.152500
v 0.179746 0.126580 -0.132685
v 0.206813 0.099513 -0.132685
v 0.182400 0.102168 0.012500
v 0.206813 0.099513 -0.007314
v 0.179746 0.126580 -0.007314
v 0.219796 0.037396 -0.152500
v 0.229703 0.059865 -0.132685
v 0.239611 0.022891 -0.132685
v 0.219796 0.037396 0.012500
v 0.239611 0.022891 -0.007314
v 0.229703 0.059865 -0.007314
v 0.219796 -0.037396 -0.152500
v 0.239611 -0.022891 -0.132686
v 0.229703 -0.059865 -0.132686
v 0.219796 -0.037396 0.012500
v 0.229703 -0.059865 -0.007314
v 0.239611 -0.022891 -0.007314
v 0.182400 -0.102167 -0.152500
v 0.206813 -0.099513 -0.132686
v 0.179746 -0.126580 -0.132686
v 0.182400 -0.102167 0.012500
v 0.179746 -0.126580 -0.007314
v 0.206813 -0.099513 -0.007314
v -0.302721 -0.382252 -0.152500
v -0.280252 -0.392159 -0.132686
v -0.317226 -0.402067 -0.132686
v -0.302721 -0.382252 0.012500
v -0.317226 -0.402067 -0.007315
v -0.280252 -0.392159 -0.007315
v -0.377512 -0.382252 -0.152500
v -0.363007 -0.402067 -0.132686
v -0.399981 -0.392159 -0.132686
v -0.377512 -0.382252 0.012500
v -0.399981 -0.392159 -0.007315
v -0.363007 -0.402067 -0.007315
v -0.442284 -0.344856 -0.152500
v -0.439629 -0.369269 -0.132686
v -0.466696 -0.342202 -0.132686
v -0.442284 -0.344856 0.012500
v -0.466696 -0.342202 -0.007315
v -0.439629 -0.369269 -0.007315
v -0.479680 -0.280085 -0.152500
v -0.489587 -0.302554 -0.132686
v -0.499494 -0.265580 -0.132686
v -0.479680 -0.280085 0.012500
v -0.499494 -0.265580 -0.007315
v -0.489587 -0.302554 -0.007315
v -0.479680 0.280085 -0.152500
v -0.499494 0.265580 -0.132686
v -0.489587 0.302554 -0.132686
v -0.479680 0.280085 0.012500
v -0.489587 0.302554 -0.007314
v -0.499494 0.265580 -0.007314
v -0.182284 0.344856 -0.012500
v -0.206696 0.342202 0.007314
v -0.179629 0.369269 0.007314
v -0.182284 0.344856 0.152500
v -0.179629 0.369269 0.132686
v -0.206696 0.342202 0.132686
v -0.117512 0.382252 -0.012500
v -0.139981 0.392159 0.007314
v -0.103007 0.402067 0.007314
v -0.117512 0.382252 0.152500
v -0.103007 0.402067 0.132686
v -0.139981 0.392159 0.132686
v -0.042721 0.382252 -0.012500
v -0.057226 0.402067 0.007314
v -0.020252 0.392159 0.007314
v -0.042721 0.382252 0.152500
v -0.020252 0.392159 0.132686
v -0.057226 0.402067 0.132686
v 0.442400 0.102168 -0.012500
v 0.439746 0.126580 0.007315
v 0.466813 0.099513 0.007315
v 0.442400 0.102168 0.152500
v 0.466813 0.099513 0.132686
v 0.439746 0.126580 0.132686
v 0.479796 0.037396 -0.012500
v 0.489704 0.059865 0.007315
v 0.499611 0.022891 0.007315
v 0.479796 0.037396 0.152500
v 0.499611 0.022891 0.132686
v 0.489704 0.059865 0.132686
v 0.479796 -0.037396 -0.012500
v 0.499611 -0.022891 0.007314
v 0.489704 -0.059865 0.007314
v 0.479796 -0.037396 0.152500
v 0.489704 -0.059865 0.132686
v 0.499611 -0.022891 0.132686
v 0.442400 -0.102167 -0.012500
v 0.466813 -0.099513 0.007314
v 0.439746 -0.126580 0.007314
v 0.442400 -0.102167 0.152500
v 0.439746 -0.126580 0.132686
v 0.466813 -0.099513 0.132686
v -0.042721 -0.382252 -0.012500
v -0.020252 -0.392159 0.007314
v -0.057226 -0.402067 0.007314
v -0.042721 -0.382252 0.152500
v -0.057226 -0.402067 0.132685
v -0.020252 -0.392159 0.132685
v -0.117512 -0.382252 -0.012500
v -0.103007 -0.402067 0.007314
v -0.139981 -0.392159 0.007314
v -0.117512 -0.382252 0.152500
v -0.139981 -0.392159 0.132685
v -0.103007 -0.402067 0.132685
v -0.182284 -0.344856 -0.012500
v -0.179629 -0.369269 0.007314
v -0.206696 -0.342202 0.007314
v -0.182284 -0.344856 0.152500
v -0.206696 -0.342202 0.132685
v -0.179629 -0.369269 0.132685
v -0.219680 -0.280085 -0.012500
v -0.229587 -0.302554 0.007314
v -0.239494 -0.265580 0.007314
v -0.219680 -0.280085 0.152500
v -0.239494 -0.265580 0.132685
v -0.229587 -0.302554 0.132685
v -0.219680 0.280085 -0.012500
v -0.239494 0.265580 0.007314
v -0.229587 0.302554 0.007314
v -0.219680 0.280085 0.152500
v -0.229587 0.302554 0.132686
v -0.239494 0.265580 0.132686
v 0.400339 0.319673 0.050770
v 0.400339 0.419673 0.050770
v 0.400339 0.319673 -0.050770
v 0.400339 0.419673 -0.050770
v 0.501109 0.318902 0.050770
v 0.501109 0.420443 0.050770
v 0.501109 0.318902 -0.050770
v 0.501109 0.420443 -0.050770
v 0.199568 0.318902 0.050770
v 0.199568 0.420379 0.050770
v 0.199568 0.318902 -0.050770
v 0.199569 0.420508 -0.050770
v 0.300339 0.319673 0.050770
v 0.300291 0.419721 0.050771
v 0.300339 0.319673 -0.050770
v 0.300387 0.419625 -0.050771
vt 0.677197 0.986409
vt 0.775952 1.148337
vt 0.696772 1.163607
vt 0.879437 0.827199
vt 1.049922 0.109493
vt 1.049922 0.921396
vt 0.866396 0.151581
vt 0.965911 -0.011486
vt 1.016147 0.052471
vt 0.916788 -0.056601
vt 0.767529 0.056874
vt 0.847410 -0.101488
vt 0.784756 -0.127570
vt 0.677366 0.040398
vt 0.703000 -0.146671
vt 0.633999 -0.151980
vt 0.012551 0.400949
vt -0.082503 0.235374
vt -0.174300 0.431982
vt -0.022430 0.500827
vt -0.180122 0.500755
vt -0.022649 0.541165
vt -0.167492 0.628816
vt -0.178579 0.558089
vt 0.000309 0.622328
vt -0.116596 0.752547
vt -0.149238 0.685555
vt 0.060516 0.693910
vt 0.631114 1.167567
vt -0.081765 0.804126
vt 0.835784 0.914305
vt 1.013954 0.979133
vt 0.960190 1.041947
vt 0.063714 0.655735
vt 0.659127 0.072700
vt 0.842933 0.840286
vt 0.766119 0.967370
vt 0.908887 1.085013
vt 0.837968 1.125592
vt 0.814892 0.003286
vt 0.798015 -0.032285
vt 0.846500 -0.020199
vt 0.738663 0.949743
vt 0.727623 0.980857
vt 0.895784 0.048586
vt 0.899686 0.008443
vt 0.935466 0.044502
vt 0.803309 0.910788
vt 0.806597 0.942644
vt 0.943072 0.129093
vt 0.966623 0.096372
vt 0.979209 0.145115
vt 0.862447 0.871111
vt 0.942560 0.837869
vt 0.979209 0.821519
vt 0.966474 0.870104
vt 0.847990 0.182211
vt 0.883652 0.195057
vt 0.897843 0.920412
vt 0.938174 0.923849
vt 0.902393 0.960265
vt 0.805495 0.113964
vt 0.808414 0.081367
vt 0.838237 0.109384
vt 0.817392 0.968566
vt 0.850474 0.992229
vt 0.800984 1.005210
vt 0.740615 0.074749
vt 0.728526 0.043970
vt 0.723550 0.969391
vt 0.740207 1.006270
vt 0.691564 0.992768
vt 0.628748 0.045703
vt 0.108868 0.615797
vt 0.104737 0.655707
vt 0.069001 0.620372
vt 0.026581 0.441775
vt -0.010333 0.449195
vt 0.059838 0.535732
vt 0.036641 0.568933
vt 0.023048 0.519690
vt 0.003134 0.521885
vt 0.058486 0.441924
vt 0.021403 0.458706
vt 0.034978 0.409332
vt 0.014997 0.594731
vt -0.014564 0.586460
vt 0.104862 0.360243
vt 0.064550 0.356150
vt 0.100687 0.320768
vt 0.028645 0.661610
vt 0.721417 0.005533
vt 0.688566 -0.018238
vt 0.737633 -0.031967
vt 0.658302 0.955867
vt 0.630548 0.982070
vt 0.682588 0.986407
vt 0.781343 1.148335
vt 0.702164 1.163605
vt 0.884828 0.827198
vt 1.055313 0.109493
vt 1.055313 0.921394
vt 0.871788 0.151580
vt 0.971302 -0.011486
vt 1.021538 0.052470
vt 0.922179 -0.056601
vt 0.772921 0.056873
vt 0.852802 -0.101488
vt 0.790147 -0.127570
vt 0.682758 0.040397
vt 0.708392 -0.146671
vt 0.639391 -0.151980
vt 0.017943 0.400943
vt -0.077110 0.235368
vt -0.168911 0.431977
vt -0.017039 0.500823
vt -0.174733 0.500751
vt -0.017258 0.541161
vt -0.162102 0.628813
vt -0.173190 0.558086
vt 0.005701 0.622325
vt -0.111205 0.752545
vt -0.143848 0.685553
vt 0.065907 0.693907
vt 0.636506 1.167565
vt -0.076374 0.804125
vt 0.841175 0.914303
vt 1.019345 0.979131
vt 0.965581 1.041945
vt 0.069106 0.655733
vt 0.664518 0.072700
vt 0.848324 0.840284
vt 0.771510 0.967368
vt 0.914278 1.085011
vt 0.843360 1.125590
vt 0.823977 -0.002915
vt 0.807100 -0.038486
vt 0.855585 -0.026400
vt 0.744054 0.949742
vt 0.733014 0.980856
vt 0.904869 0.042385
vt 0.908771 0.002242
vt 0.944550 0.038301
vt 0.808700 0.910786
vt 0.811988 0.942642
vt 0.952157 0.122892
vt 0.975708 0.090171
vt 0.988294 0.138914
vt 0.867838 0.871110
vt 0.951645 0.831667
vt 0.988293 0.815318
vt 0.975559 0.863903
vt 0.853381 0.182211
vt 0.889044 0.195057
vt 0.906928 0.914211
vt 0.947259 0.917648
vt 0.911478 0.954064
vt 0.810886 0.113963
vt 0.813805 0.081367
vt 0.843628 0.109383
vt 0.826476 0.962366
vt 0.859558 0.986028
vt 0.810068 0.999010
vt 0.746007 0.074748
vt 0.733918 0.043969
vt 0.732633 0.963190
vt 0.749289 1.000070
vt 0.700646 0.986568
vt 0.634140 0.045702
vt 0.117954 0.609597
vt 0.113823 0.649506
vt 0.078087 0.614172
vt 0.031973 0.441770
vt -0.004942 0.449190
vt 0.068924 0.529531
vt 0.045726 0.562733
vt 0.032134 0.513489
vt 0.008526 0.521882
vt 0.067572 0.435724
vt 0.030489 0.452505
vt 0.044063 0.403131
vt 0.020388 0.594728
vt -0.009173 0.586457
vt 0.113947 0.354043
vt 0.073636 0.349950
vt 0.109773 0.314567
vt 0.034036 0.661608
vt 0.730502 -0.000667
vt 0.697651 -0.024438
vt 0.746718 -0.038167
vt 0.663693 0.955865
vt 0.635939 0.982068
vt -0.161645 0.377145
vt 0.665656 0.334026
vt 0.334185 0.002556
vt 0.665815 0.002556
vt 1.000000 0.500000
vt 0.500000 0.000000
vt 1.000000 0.000000
vt 0.002555 0.665815
vt 0.334185 0.334185
vt 0.334185 0.665815
vt 0.000000 0.000000
vt 0.336733 0.334188
vt 0.000000 0.334188
vt 0.000002 0.665813
vt 0.336735 0.999999
vt 0.000003 1.000000
vt 0.000002 0.000633
vt 0.500000 0.500317
vt 0.000000 0.500316
vt 0.000000 0.665812
vt 0.336733 1.000000
vt 0.000000 1.000000
vt 0.000004 0.000000
vt 0.336735 0.334029
vt 0.000000 0.334349
vt -0.167034 0.377151
vt 0.334186 0.334186
vt 0.000001 0.336742
vt 1.000000 0.000000
vt 1.000000 0.336953
vt 0.500000 0.500000
vt 0.002395 0.334026
vt 0.000214 0.000000
vt 0.336739 0.000001
vt 0.336739 1.000000
vt 0.000000 1.000000
vt 0.336733 0.000000
vt 0.336734 0.665812
vt 0.500000 0.000000
vt 0.336733 0.665812
vt 0.336735 0.000003
vn -0.8660 0.5000 0.0000
vn 0.5000 0.8660 0.0000
vn 0.8660 0.5000 0.0000
vn 1.0000 0.0000 0.0000
vn 0.8660 -0.5000 -0.0000
vn 0.5000 -0.8660 0.0000
vn 0.0000 -1.0000 0.0000
vn -0.5000 -0.8660 0.0000
vn -0.8660 -0.5000 0.0000
vn -1.0000 -0.0000 0.0000
vn 0.0000 1.0000 0.0000
vn -0.0000 -0.0000 1.0000
vn -0.5000 0.8660 0.0000
vn -0.5585 0.5585 -0.6133
vn -0.5585 0.5585 0.6133
vn -0.2044 0.7629 -0.6133
vn -0.2044 0.7629 0.6133
vn 0.2044 0.7629 -0.6133
vn 0.2044 0.7629 0.6133
vn 0.5585 0.5585 -0.6133
vn 0.5585 0.5585 0.6133
vn 0.7629 0.2044 -0.6133
vn 0.7629 0.2044 0.6133
vn 0.7629 -0.2044 -0.6133
vn 0.7629 -0.2044 0.6133
vn 0.5585 -0.5585 -0.6133
vn 0.5585 -0.5585 0.6133
vn 0.2044 -0.7629 -0.6133
vn 0.2044 -0.7629 0.6133
vn -0.2044 -0.7629 -0.6133
vn -0.2044 -0.7629 0.6133
vn -0.5585 -0.5585 -0.6133
vn -0.5585 -0.5585 0.6133
vn -0.7629 -0.2044 -0.6133
vn -0.7629 -0.2044 0.6133
vn -0.7629 0.2044 -0.6133
vn -0.7629 0.2044 0.6133
vn -0.3536 0.6124 -0.7071
vn -0.3536 0.6124 0.7071
vn -0.7071 0.7071 0.0000
vn -0.2588 0.9659 0.0000
vn 0.0000 0.7071 -0.7071
vn -0.0000 0.7071 0.7071
vn 0.2588 0.9659 0.0000
vn 0.3536 0.6124 -0.7071
vn 0.3536 0.6124 0.7071
vn 0.7071 0.7071 0.0000
vn 0.6124 0.3536 -0.7071
vn 0.6124 0.3536 0.7071
vn 0.9659 0.2588 0.0000
vn 0.7071 0.0000 -0.7071
vn 0.7071 0.0000 0.7071
vn 0.9659 -0.2588 0.0000
vn 0.6124 -0.3536 -0.7071
vn 0.6124 -0.3536 0.7071
vn 0.7071 -0.7071 0.0000
vn 0.3536 -0.6124 -0.7071
vn 0.3536 -0.6124 0.7071
vn 0.2588 -0.9659 0.0000
vn 0.0000 -0.7071 -0.7071
vn -0.0000 -0.7071 0.7071
vn -0.2588 -0.9659 0.0000
vn -0.3536 -0.6124 -0.7071
vn -0.3536 -0.6124 0.7071
vn -0.7071 -0.7071 0.0000
vn -0.6124 -0.3536 -0.7071
vn -0.6124 -0.3536 0.7071
vn -0.9659 -0.2588 0.0000
vn -0.7071 0.0000 -0.7071
vn -0.7071 -0.0000 0.7071
vn -0.9659 0.2588 0.0000
vn -0.6124 0.3536 -0.7071
vn -0.6124 0.3536 0.7071
vn 0.0000 0.0000 -1.0000
vn -0.0076 -1.0000 0.0000
vn -0.0076 1.0000 0.0000
vn 0.0076 -1.0000 0.0000
vn 0.0088 1.0000 -0.0009
vn 0.0065 1.0000 0.0013
vn 0.0005 1.0000 -0.0009
vn -0.0005 1.0000 0.0000
usemtl PowerUp
s off
f 71/1/1 2/2/1 69/3/1
f 17/4/2 20/5/2 15/6/2
f 23/7/3 26/8/3 21/9/3
f 27/10/4 36/11/4 32/12/4
f 33/13/5 42/14/5 38/15/5
f 39/16/6 48/17/6 44/18/6
f 45/19/7 54/20/7 50/21/7
f 53/22/8 56/23/8 51/24/8
f 59/25/9 62/26/9 57/27/9
f 65/28/10 68/29/10 63/30/10
f 11/31/11 14/32/11 9/33/11
f 64/34/12 40/35/12 16/36/12
f 5/37/13 8/38/13 3/39/13
f 1/40/14 2/41/14 3/42/14
f 4/43/15 5/37/15 6/44/15
f 7/45/16 8/46/16 9/47/16
f 10/48/17 11/31/17 12/49/17
f 13/50/18 14/51/18 15/52/18
f 16/36/19 17/4/19 18/53/19
f 19/54/20 20/55/20 21/56/20
f 22/57/21 23/7/21 24/58/21
f 25/59/22 26/60/22 27/61/22
f 28/62/23 29/63/23 30/64/23
f 31/65/24 32/66/24 33/67/24
f 34/68/25 35/69/25 36/11/25
f 37/70/26 38/71/26 39/72/26
f 40/35/27 41/73/27 42/14/27
f 43/74/28 44/75/28 45/76/28
f 46/77/29 47/78/29 48/17/29
f 49/79/30 50/80/30 51/81/30
f 52/82/31 53/22/31 54/20/31
f 55/83/32 56/84/32 57/85/32
f 58/86/33 59/25/33 60/87/33
f 61/88/34 62/89/34 63/90/34
f 64/34/35 65/28/35 66/91/35
f 67/92/36 68/93/36 69/94/36
f 70/95/37 71/1/37 72/96/37
f 8/46/38 1/40/38 3/42/38
f 5/37/39 10/48/39 12/49/39
f 6/44/40 3/39/40 2/2/40
f 9/33/41 12/49/41 11/31/41
f 9/47/42 13/50/42 7/45/42
f 18/53/43 10/48/43 16/36/43
f 15/6/44 18/53/44 17/4/44
f 20/55/45 13/50/45 15/52/45
f 24/58/46 16/36/46 22/57/46
f 21/9/47 24/58/47 23/7/47
f 26/60/48 19/54/48 21/56/48
f 23/7/49 28/62/49 30/64/49
f 29/63/50 26/8/50 30/64/50
f 32/66/51 25/59/51 27/61/51
f 29/63/52 34/68/52 36/11/52
f 33/13/53 36/11/53 35/69/53
f 38/71/54 31/65/54 33/67/54
f 35/69/55 40/35/55 42/14/55
f 39/16/56 42/14/56 41/73/56
f 44/75/57 37/70/57 39/72/57
f 41/73/58 46/77/58 48/17/58
f 45/19/59 48/17/59 47/78/59
f 50/80/60 43/74/60 45/76/60
f 47/78/61 52/82/61 54/20/61
f 53/22/62 50/21/62 54/20/62
f 56/84/63 49/79/63 51/81/63
f 53/22/64 58/86/64 60/87/64
f 57/27/65 60/87/65 59/25/65
f 57/85/66 61/88/66 55/83/66
f 59/25/67 64/34/67 66/91/67
f 63/30/68 66/91/68 65/28/68
f 63/90/69 67/92/69 61/88/69
f 65/28/70 70/95/70 72/96/70
f 69/3/71 72/96/71 71/1/71
f 69/94/72 1/40/72 67/92/72
f 71/1/73 4/43/73 6/44/73
f 19/54/74 43/74/74 67/92/74
f 143/97/1 74/98/1 141/99/1
f 89/100/2 92/101/2 87/102/2
f 95/103/3 98/104/3 93/105/3
f 99/106/4 108/107/4 104/108/4
f 105/109/5 114/110/5 110/111/5
f 111/112/6 120/113/6 116/114/6
f 117/115/7 126/116/7 122/117/7
f 125/118/8 128/119/8 123/120/8
f 131/121/9 134/122/9 129/123/9
f 137/124/10 140/125/10 135/126/10
f 83/127/11 86/128/11 81/129/11
f 136/130/12 112/131/12 88/132/12
f 77/133/13 80/134/13 75/135/13
f 73/136/14 74/137/14 75/138/14
f 76/139/15 77/133/15 78/140/15
f 79/141/16 80/142/16 81/143/16
f 82/144/17 83/127/17 84/145/17
f 85/146/18 86/147/18 87/148/18
f 88/132/19 89/100/19 90/149/19
f 91/150/20 92/151/20 93/152/20
f 94/153/21 95/103/21 96/154/21
f 97/155/22 98/156/22 99/157/22
f 100/158/23 101/159/23 102/160/23
f 103/161/24 104/162/24 105/163/24
f 106/164/25 107/165/25 108/107/25
f 109/166/26 110/167/26 111/168/26
f 112/131/27 113/169/27 114/110/27
f 115/170/28 116/171/28 117/172/28
f 118/173/29 119/174/29 120/113/29
f 121/175/30 122/176/30 123/177/30
f 124/178/31 125/118/31 126/116/31
f 127/179/32 128/180/32 129/181/32
f 130/182/33 131/121/33 132/183/33
f 133/184/34 134/185/34 135/186/34
f 136/130/35 137/124/35 138/187/35
f 139/188/36 140/189/36 141/190/36
f 142/191/37 143/97/37 144/192/37
f 75/138/38 79/141/38 73/136/38
f 77/133/39 82/144/39 84/145/39
f 78/140/40 75/135/40 74/98/40
f 81/129/41 84/145/41 83/127/41
f 86/147/42 79/141/42 81/143/42
f 83/127/43 88/132/43 90/149/43
f 87/102/44 90/149/44 89/100/44
f 92/151/45 85/146/45 87/148/45
f 89/100/46 94/153/46 96/154/46
f 93/105/47 96/154/47 95/103/47
f 93/152/48 97/155/48 91/150/48
f 95/103/49 100/158/49 102/160/49
f 99/106/50 102/160/50 101/159/50
f 99/157/51 103/161/51 97/155/51
f 101/159/52 106/164/52 108/107/52
f 107/165/53 104/108/53 108/107/53
f 110/167/54 103/161/54 105/163/54
f 114/110/55 106/164/55 112/131/55
f 111/112/56 114/110/56 113/169/56
f 116/171/57 109/166/57 111/168/57
f 113/169/58 118/173/58 120/113/58
f 119/174/59 116/193/59 120/113/59
f 122/176/60 115/170/60 117/172/60
f 126/116/61 118/173/61 124/178/61
f 125/118/62 122/117/62 126/116/62
f 128/180/63 121/175/63 123/177/63
f 132/183/64 124/178/64 130/182/64
f 129/123/65 132/183/65 131/121/65
f 129/181/66 133/184/66 127/179/66
f 131/121/67 136/130/67 138/187/67
f 135/126/68 138/187/68 137/124/68
f 135/186/69 139/188/69 133/184/69
f 137/124/70 142/191/70 144/192/70
f 141/99/71 144/192/71 143/97/71
f 141/190/72 73/136/72 139/188/72
f 143/97/73 76/139/73 78/140/73
f 91/150/74 115/170/74 139/188/74
f 160/194/74 147/195/74 159/196/74
f 152/197/4 149/198/4 151/199/4
f 146/200/12 157/201/12 145/202/12
f 151/203/75 145/204/75 147/205/75
f 148/206/76 150/207/76 152/208/76
f 154/209/10 155/210/10 153/211/10
f 159/212/77 153/213/77 155/214/77
f 156/215/78 158/216/78 160/217/78
f 71/1/1 6/44/1 2/2/1
f 17/4/2 24/58/2 20/5/2
f 23/7/3 30/64/3 26/8/3
f 27/10/4 29/63/4 36/11/4
f 33/13/5 35/69/5 42/14/5
f 39/16/6 41/73/6 48/17/6
f 45/19/7 47/78/7 54/20/7
f 53/22/8 60/87/8 56/23/8
f 59/25/9 66/91/9 62/26/9
f 65/28/10 72/96/10 68/29/10
f 11/31/11 18/53/11 14/32/11
f 16/36/12 10/48/12 4/43/12
f 4/43/12 70/95/12 16/36/12
f 70/95/12 64/34/12 16/36/12
f 64/34/12 58/86/12 52/82/12
f 52/82/12 46/77/12 64/34/12
f 46/77/12 40/35/12 64/34/12
f 40/35/12 34/68/12 28/62/12
f 28/62/12 22/57/12 40/35/12
f 22/57/12 16/36/12 40/35/12
f 5/37/13 12/49/13 8/38/13
f 8/46/38 7/45/38 1/40/38
f 5/37/39 4/43/39 10/48/39
f 6/44/40 5/37/40 3/39/40
f 9/33/41 8/38/41 12/49/41
f 9/47/42 14/51/42 13/50/42
f 18/53/43 11/31/43 10/48/43
f 15/6/44 14/32/44 18/53/44
f 20/55/45 19/54/45 13/50/45
f 24/58/46 17/4/46 16/36/46
f 21/9/47 20/5/47 24/58/47
f 26/60/48 25/59/48 19/54/48
f 23/7/49 22/57/49 28/62/49
f 29/63/50 27/10/50 26/8/50
f 32/66/51 31/65/51 25/59/51
f 29/63/52 28/62/52 34/68/52
f 33/13/53 32/12/53 36/11/53
f 38/71/54 37/70/54 31/65/54
f 35/69/55 34/68/55 40/35/55
f 39/16/56 38/15/56 42/14/56
f 44/75/57 43/74/57 37/70/57
f 41/73/58 40/35/58 46/77/58
f 45/19/59 44/218/59 48/17/59
f 50/80/60 49/79/60 43/74/60
f 47/78/61 46/77/61 52/82/61
f 53/22/62 51/24/62 50/21/62
f 56/84/63 55/83/63 49/79/63
f 53/22/64 52/82/64 58/86/64
f 57/27/65 56/23/65 60/87/65
f 57/85/66 62/89/66 61/88/66
f 59/25/67 58/86/67 64/34/67
f 63/30/68 62/26/68 66/91/68
f 63/90/69 68/93/69 67/92/69
f 65/28/70 64/34/70 70/95/70
f 69/3/71 68/29/71 72/96/71
f 69/94/72 2/41/72 1/40/72
f 71/1/73 70/95/73 4/43/73
f 67/92/74 1/40/74 7/45/74
f 7/45/74 13/50/74 67/92/74
f 13/50/74 19/54/74 67/92/74
f 19/54/74 25/59/74 31/65/74
f 31/65/74 37/70/74 19/54/74
f 37/70/74 43/74/74 19/54/74
f 43/74/74 49/79/74 55/83/74
f 55/83/74 61/88/74 43/74/74
f 61/88/74 67/92/74 43/74/74
f 143/97/1 78/140/1 74/98/1
f 89/100/2 96/154/2 92/101/2
f 95/103/3 102/160/3 98/104/3
f 99/106/4 101/159/4 108/107/4
f 105/109/5 107/165/5 114/110/5
f 111/112/6 113/169/6 120/113/6
f 117/115/7 119/174/7 126/116/7
f 125/118/8 132/183/8 128/119/8
f 131/121/9 138/187/9 134/122/9
f 137/124/10 144/192/10 140/125/10
f 83/127/11 90/149/11 86/128/11
f 88/132/12 82/144/12 76/139/12
f 76/139/12 142/191/12 88/132/12
f 142/191/12 136/130/12 88/132/12
f 136/130/12 130/182/12 124/178/12
f 124/178/12 118/173/12 136/130/12
f 118/173/12 112/131/12 136/130/12
f 112/131/12 106/164/12 100/158/12
f 100/158/12 94/153/12 112/131/12
f 94/153/12 88/132/12 112/131/12
f 77/133/13 84/145/13 80/134/13
f 75/138/38 80/142/38 79/141/38
f 77/133/39 76/139/39 82/144/39
f 78/140/40 77/133/40 75/135/40
f 81/129/41 80/134/41 84/145/41
f 86/147/42 85/146/42 79/141/42
f 83/127/43 82/144/43 88/132/43
f 87/102/44 86/128/44 90/149/44
f 92/151/45 91/150/45 85/146/45
f 89/100/46 88/132/46 94/153/46
f 93/105/47 92/101/47 96/154/47
f 93/152/48 98/156/48 97/155/48
f 95/103/49 94/153/49 100/158/49
f 99/106/50 98/104/50 102/160/50
f 99/157/51 104/162/51 103/161/51
f 101/159/52 100/158/52 106/164/52
f 107/165/53 105/109/53 104/108/53
f 110/167/54 109/166/54 103/161/54
f 114/110/55 107/165/55 106/164/55
f 111/112/56 110/111/56 114/110/56
f 116/171/57 115/170/57 109/166/57
f 113/169/58 112/131/58 118/173/58
f 119/174/59 117/115/59 116/193/59
f 122/176/60 121/175/60 115/170/60
f 126/116/61 119/174/61 118/173/61
f 125/118/62 123/120/62 122/117/62
f 128/180/63 127/179/63 121/175/63
f 132/183/64 125/118/64 124/178/64
f 129/123/65 128/119/65 132/183/65
f 129/181/66 134/185/66 133/184/66
f 131/121/67 130/182/67 136/130/67
f 135/126/68 134/122/68 138/187/68
f 135/186/69 140/189/69 139/188/69
f 137/124/70 136/130/70 142/191/70
f 141/99/71 140/125/71 144/192/71
f 141/190/72 74/137/72 73/136/72
f 143/97/73 142/191/73 76/139/73
f 139/188/74 73/136/74 79/141/74
f 79/141/74 85/146/74 139/188/74
f 85/146/74 91/150/74 139/188/74
f 91/150/74 97/155/74 103/161/74
f 103/161/74 109/166/74 91/150/74
f 109/166/74 115/170/74 91/150/74
f 115/170/74 121/175/74 127/179/74
f 127/179/74 133/184/74 115/170/74
f 133/184/74 139/188/74 115/170/74
f 148/219/74 152/220/74 151/203/74
f 148/219/74 151/203/74 147/195/74
f 155/221/74 156/222/74 160/194/74
f 160/194/74 148/219/74 147/195/74
f 159/196/74 155/221/74 160/194/74
f 152/197/4 150/223/4 149/198/4
f 158/224/12 154/225/12 157/201/12
f 154/225/12 153/226/12 157/201/12
f 149/227/12 150/228/12 146/200/12
f 146/200/12 158/224/12 157/201/12
f 145/202/12 149/227/12 146/200/12
f 151/203/75 149/229/75 145/204/75
f 148/206/76 146/230/76 150/207/76
f 154/209/10 156/231/10 155/210/10
f 159/212/77 157/232/77 153/213/77
f 156/215/79 154/233/79 158/216/79
f 158/216/80 146/230/80 160/217/80
f 146/230/81 148/206/81 160/217/81
f 159/212/7 147/205/7 157/232/7
f 147/205/7 145/204/7 157/232/7
