# Blender v2.91.0 OBJ File: 'PowerUpDecreaseSpeed.blend'
# www.blender.org
mtllib PowerUpDecreaseSpeed.mtl
o PowerUp
v -0.442284 0.344856 -0.082500
v -0.466696 0.342202 -0.062686
v -0.439629 0.369269 -0.062686
v -0.442284 0.344856 0.082500
v -0.439629 0.369269 0.062686
v -0.466696 0.342202 0.062686
v -0.377512 0.382252 -0.082500
v -0.399981 0.392159 -0.062686
v -0.363007 0.402067 -0.062686
v -0.377512 0.382252 0.082500
v -0.363007 0.402067 0.062686
v -0.399981 0.392159 0.062686
v -0.302721 0.382252 -0.082500
v -0.317226 0.402067 -0.062686
v -0.280252 0.392159 -0.062686
v -0.302721 0.382252 0.082500
v -0.280252 0.392159 0.062686
v -0.317226 0.402067 0.062686
v 0.182400 0.102168 -0.082500
v 0.179746 0.126580 -0.062685
v 0.206813 0.099513 -0.062685
v 0.182400 0.102168 0.082500
v 0.206813 0.099513 0.062686
v 0.179746 0.126580 0.062686
v 0.219796 0.037396 -0.082500
v 0.229703 0.059865 -0.062685
v 0.239611 0.022891 -0.062685
v 0.219796 0.037396 0.082500
v 0.239611 0.022891 0.062686
v 0.229703 0.059865 0.062686
v 0.219796 -0.037396 -0.082500
v 0.239611 -0.022891 -0.062686
v 0.229703 -0.059865 -0.062686
v 0.219796 -0.037396 0.082500
v 0.229703 -0.059865 0.062686
v 0.239611 -0.022891 0.062686
v 0.182400 -0.102167 -0.082500
v 0.206813 -0.099513 -0.062686
v 0.179746 -0.126580 -0.062686
v 0.182400 -0.102167 0.082500
v 0.179746 -0.126580 0.062686
v 0.206813 -0.099513 0.062686
v -0.302721 -0.382252 -0.082500
v -0.280252 -0.392159 -0.062686
v -0.317226 -0.402067 -0.062686
v -0.302721 -0.382252 0.082500
v -0.317226 -0.402067 0.062685
v -0.280252 -0.392159 0.062685
v -0.377512 -0.382252 -0.082500
v -0.363007 -0.402067 -0.062686
v -0.399981 -0.392159 -0.062686
v -0.377512 -0.382252 0.082500
v -0.399981 -0.392159 0.062685
v -0.363007 -0.402067 0.062685
v -0.442284 -0.344856 -0.082500
v -0.439629 -0.369269 -0.062686
v -0.466696 -0.342202 -0.062686
v -0.442284 -0.344856 0.082500
v -0.466696 -0.342202 0.062685
v -0.439629 -0.369269 0.062685
v -0.479680 -0.280085 -0.082500
v -0.489587 -0.302554 -0.062686
v -0.499494 -0.265580 -0.062686
v -0.479680 -0.280085 0.082500
v -0.499494 -0.265580 0.062685
v -0.489587 -0.302554 0.062685
v -0.479680 0.280085 -0.082500
v -0.499494 0.265580 -0.062686
v -0.489587 0.302554 -0.062686
v -0.479680 0.280085 0.082500
v -0.489587 0.302554 0.062686
v -0.499494 0.265580 0.062686
v 0.400339 0.319673 0.050770
v 0.400339 0.419673 0.050770
v 0.400339 0.319673 -0.050770
v 0.400339 0.419673 -0.050770
v 0.501109 0.318902 0.050770
v 0.501109 0.420443 0.050770
v 0.501109 0.318902 -0.050770
v 0.501109 0.420443 -0.050770
v 0.199568 0.318902 0.050770
v 0.199568 0.420379 0.050770
v 0.199568 0.318902 -0.050770
v 0.199569 0.420508 -0.050770
v 0.300339 0.319673 0.050770
v 0.300291 0.419721 0.050771
v 0.300339 0.319673 -0.050770
v 0.300387 0.419625 -0.050771
vt 0.677197 0.986409
vt 0.775952 1.148337
vt 0.696772 1.163607
vt 0.879437 0.827199
vt 1.049922 0.109493
vt 1.049922 0.921396
vt 0.866396 0.151581
vt 0.965911 -0.011486
vt 1.016147 0.052471
vt 0.916788 -0.056601
vt 0.767529 0.056874
vt 0.847410 -0.101488
vt 0.784756 -0.127570
vt 0.677366 0.040398
vt 0.703000 -0.146671
vt 0.633999 -0.151980
vt 0.012551 0.400949
vt -0.082503 0.235374
vt -0.174300 0.431982
vt -0.022430 0.500827
vt -0.180122 0.500755
vt -0.022649 0.541165
vt -0.167492 0.628816
vt -0.178579 0.558089
vt 0.000309 0.622328
vt -0.116596 0.752547
vt -0.149238 0.685555
vt 0.060516 0.693910
vt 0.631114 1.167567
vt -0.081765 0.804126
vt 0.835784 0.914305
vt 1.013954 0.979133
vt 0.960190 1.041947
vt 0.063714 0.655735
vt 0.659127 0.072700
vt 0.842933 0.840286
vt 0.766119 0.967370
vt 0.908887 1.085013
vt 0.837968 1.125592
vt 0.814892 0.003286
vt 0.798015 -0.032285
vt 0.846500 -0.020199
vt 0.738663 0.949743
vt 0.727623 0.980857
vt 0.895784 0.048586
vt 0.899686 0.008443
vt 0.935466 0.044502
vt 0.803309 0.910788
vt 0.806597 0.942644
vt 0.943072 0.129093
vt 0.966623 0.096372
vt 0.979209 0.145115
vt 0.862447 0.871111
vt 0.942560 0.837869
vt 0.979209 0.821519
vt 0.966474 0.870104
vt 0.847990 0.182211
vt 0.883652 0.195057
vt 0.897843 0.920412
vt 0.938174 0.923849
vt 0.902393 0.960265
vt 0.805495 0.113964
vt 0.808414 0.081367
vt 0.838237 0.109384
vt 0.817392 0.968566
vt 0.850474 0.992229
vt 0.800984 1.005210
vt 0.740615 0.074749
vt 0.728526 0.043970
vt 0.723550 0.969391
vt 0.740207 1.006270
vt 0.691564 0.992768
vt 0.628748 0.045703
vt 0.108868 0.615797
vt 0.104737 0.655707
vt 0.069001 0.620372
vt 0.026581 0.441775
vt -0.010333 0.449195
vt 0.059838 0.535732
vt 0.036641 0.568933
vt 0.023048 0.519690
vt 0.003134 0.521885
vt 0.058486 0.441924
vt 0.021403 0.458706
vt 0.034978 0.409332
vt 0.014997 0.594731
vt -0.014564 0.586460
vt 0.104862 0.360243
vt 0.064550 0.356150
vt 0.100687 0.320768
vt 0.028645 0.661610
vt 0.721417 0.005533
vt 0.688566 -0.018238
vt 0.737633 -0.031967
vt 0.658302 0.955867
vt 0.630548 0.982070
vt 0.665656 0.334026
vt 0.334185 0.002556
vt 0.665815 0.002556
vt 1.000000 0.500000
vt 0.500000 0.000000
vt 1.000000 0.000000
vt 0.002555 0.665815
vt 0.334185 0.334185
vt 0.334185 0.665815
vt 0.000000 0.000000
vt 0.336733 0.334188
vt 0.000000 0.334188
vt 0.000002 0.665813
vt 0.336735 0.999999
vt 0.000003 1.000000
vt 0.000002 0.000633
vt 0.500000 0.500317
vt 0.000000 0.500316
vt 0.000000 0.665812
vt 0.336733 1.000000
vt 0.000000 1.000000
vt 0.000004 0.000000
vt 0.336735 0.334029
vt 0.000000 0.334349
vt -0.167034 0.377151
vt 0.334186 0.334186
vt 0.000001 0.336742
vt 1.000000 0.000000
vt 1.000000 0.336953
vt 0.500000 0.500000
vt 0.002395 0.334026
vt 0.000214 0.000000
vt 0.336739 0.000001
vt 0.336739 1.000000
vt 0.000000 1.000000
vt 0.336733 0.000000
vt 0.336734 0.665812
vt 0.500000 0.000000
vt 0.336733 0.665812
vt 0.336735 0.000003
vn -0.8660 0.5000 0.0000
vn 0.5000 0.8660 0.0000
vn 0.8660 0.5000 0.0000
vn 1.0000 0.0000 0.0000
vn 0.8660 -0.5000 0.0000
vn 0.5000 -0.8660 0.0000
vn 0.0000 -1.0000 0.0000
vn -0.5000 -0.8660 0.0000
vn -0.8660 -0.5000 0.0000
vn -1.0000 -0.0000 0.0000
vn 0.0000 1.0000 0.0000
vn -0.0000 -0.0000 1.0000
vn -0.5000 0.8660 0.0000
vn -0.5585 0.5585 -0.6133
vn -0.5585 0.5585 0.6133
vn -0.2044 0.7629 -0.6133
vn -0.2044 0.7629 0.6133
vn 0.2044 0.7629 -0.6133
vn 0.2044 0.7629 0.6133
vn 0.5585 0.5585 -0.6133
vn 0.5585 0.5585 0.6133
vn 0.7629 0.2044 -0.6133
vn 0.7629 0.2044 0.6133
vn 0.7629 -0.2044 -0.6133
vn 0.7629 -0.2044 0.6133
vn 0.5585 -0.5585 -0.6133
vn 0.5585 -0.5585 0.6133
vn 0.2044 -0.7629 -0.6133
vn 0.2044 -0.7629 0.6133
vn -0.2044 -0.7629 -0.6133
vn -0.2044 -0.7629 0.6133
vn -0.5585 -0.5585 -0.6133
vn -0.5585 -0.5585 0.6133
vn -0.7629 -0.2044 -0.6133
vn -0.7629 -0.2044 0.6133
vn -0.7629 0.2044 -0.6133
vn -0.7629 0.2044 0.6133
vn -0.3536 0.6124 -0.7071
vn -0.3536 0.6124 0.7071
vn -0.7071 0.7071 0.0000
vn -0.2588 0.9659 0.0000
vn 0.0000 0.7071 -0.7071
vn -0.0000 0.7071 0.7071
vn 0.2588 0.9659 0.0000
vn 0.3536 0.6124 -0.7071
vn 0.3536 0.6124 0.7071
vn 0.7071 0.7071 0.0000
vn 0.6124 0.3536 -0.7071
vn 0.6124 0.3536 0.7071
vn 0.9659 0.2588 0.0000
vn 0.7071 0.0000 -0.7071
vn 0.7071 0.0000 0.7071
vn 0.9659 -0.2588 0.0000
vn 0.6124 -0.3536 -0.7071
vn 0.6124 -0.3536 0.7071
vn 0.7071 -0.7071 0.0000
vn 0.3536 -0.6124 -0.7071
vn 0.3536 -0.6124 0.7071
vn 0.2588 -0.9659 0.0000
vn 0.0000 -0.7071 -0.7071
vn 0.0000 -0.7071 0.7071
vn -0.2588 -0.9659 0.0000
vn -0.3536 -0.6124 -0.7071
vn -0.3536 -0.6124 0.7071
vn -0.7071 -0.7071 0.0000
vn -0.6124 -0.3536 -0.7071
vn -0.6124 -0.3536 0.7071
vn -0.9659 -0.2588 0.0000
vn -0.7071 0.0000 -0.7071
vn -0.7071 -0.0000 0.7071
vn -0.9659 0.2588 0.0000
vn -0.6124 0.3536 -0.7071
vn -0.6124 0.3536 0.7071
vn 0.0000 0.0000 -1.0000
vn -0.0076 -1.0000 0.0000
vn -0.0076 1.0000 0.0000
vn 0.0076 -1.0000 0.0000
vn 0.0088 1.0000 -0.0009
vn 0.0065 1.0000 0.0013
vn 0.0005 1.0000 -0.0009
vn -0.0005 1.0000 0.0000
usemtl PowerUp
s off
f 71/1/1 2/2/1 69/3/1
f 17/4/2 20/5/2 15/6/2
f 23/7/3 26/8/3 21/9/3
f 27/10/4 36/11/4 32/12/4
f 33/13/5 42/14/5 38/15/5
f 39/16/6 48/17/6 44/18/6
f 45/19/7 54/20/7 50/21/7
f 53/22/8 56/23/8 51/24/8
f 59/25/9 62/26/9 57/27/9
f 65/28/10 68/29/10 63/30/10
f 11/31/11 14/32/11 9/33/11
f 64/34/12 40/35/12 16/36/12
f 5/37/13 8/38/13 3/39/13
f 1/40/14 2/41/14 3/42/14
f 4/43/15 5/37/15 6/44/15
f 7/45/16 8/46/16 9/47/16
f 10/48/17 11/31/17 12/49/17
f 13/50/18 14/51/18 15/52/18
f 16/36/19 17/4/19 18/53/19
f 19/54/20 20/55/20 21/56/20
f 22/57/21 23/7/21 24/58/21
f 25/59/22 26/60/22 27/61/22
f 28/62/23 29/63/23 30/64/23
f 31/65/24 32/66/24 33/67/24
f 34/68/25 35/69/25 36/11/25
f 37/70/26 38/71/26 39/72/26
f 40/35/27 41/73/27 42/14/27
f 43/74/28 44/75/28 45/76/28
f 46/77/29 47/78/29 48/17/29
f 49/79/30 50/80/30 51/81/30
f 52/82/31 53/22/31 54/20/31
f 55/83/32 56/84/32 57/85/32
f 58/86/33 59/25/33 60/87/33
f 61/88/34 62/89/34 63/90/34
f 64/34/35 65/28/35 66/91/35
f 67/92/36 68/93/36 69/94/36
f 70/95/37 71/1/37 72/96/37
f 8/46/38 1/40/38 3/42/38
f 5/37/39 10/48/39 12/49/39
f 6/44/40 3/39/40 2/2/40
f 9/33/41 12/49/41 11/31/41
f 9/47/42 13/50/42 7/45/42
f 18/53/43 10/48/43 16/36/43
f 15/6/44 18/53/44 17/4/44
f 20/55/45 13/50/45 15/52/45
f 24/58/46 16/36/46 22/57/46
f 21/9/47 24/58/47 23/7/47
f 26/60/48 19/54/48 21/56/48
f 23/7/49 28/62/49 30/64/49
f 29/63/50 26/8/50 30/64/50
f 32/66/51 25/59/51 27/61/51
f 29/63/52 34/68/52 36/11/52
f 33/13/53 36/11/53 35/69/53
f 38/71/54 31/65/54 33/67/54
f 35/69/55 40/35/55 42/14/55
f 39/16/56 42/14/56 41/73/56
f 44/75/57 37/70/57 39/72/57
f 41/73/58 46/77/58 48/17/58
f 45/19/59 48/17/59 47/78/59
f 50/80/60 43/74/60 45/76/60
f 47/78/61 52/82/61 54/20/61
f 53/22/62 50/21/62 54/20/62
f 56/84/63 49/79/63 51/81/63
f 53/22/64 58/86/64 60/87/64
f 57/27/65 60/87/65 59/25/65
f 57/85/66 61/88/66 55/83/66
f 59/25/67 64/34/67 66/91/67
f 63/30/68 66/91/68 65/28/68
f 63/90/69 67/92/69 61/88/69
f 65/28/70 70/95/70 72/96/70
f 69/3/71 72/96/71 71/1/71
f 69/94/72 1/40/72 67/92/72
f 71/1/73 4/43/73 6/44/73
f 19/54/74 43/74/74 67/92/74
f 88/97/74 75/98/74 87/99/74
f 80/100/4 77/101/4 79/102/4
f 74/103/12 85/104/12 73/105/12
f 79/106/75 73/107/75 75/108/75
f 76/109/76 78/110/76 80/111/76
f 82/112/10 83/113/10 81/114/10
f 87/115/77 81/116/77 83/117/77
f 84/118/78 86/119/78 88/120/78
f 71/1/1 6/44/1 2/2/1
f 17/4/2 24/58/2 20/5/2
f 23/7/3 30/64/3 26/8/3
f 27/10/4 29/63/4 36/11/4
f 33/13/5 35/69/5 42/14/5
f 39/16/6 41/73/6 48/17/6
f 45/19/7 47/78/7 54/20/7
f 53/22/8 60/87/8 56/23/8
f 59/25/9 66/91/9 62/26/9
f 65/28/10 72/96/10 68/29/10
f 11/31/11 18/53/11 14/32/11
f 16/36/12 10/48/12 4/43/12
f 4/43/12 70/95/12 16/36/12
f 70/95/12 64/34/12 16/36/12
f 64/34/12 58/86/12 52/82/12
f 52/82/12 46/77/12 64/34/12
f 46/77/12 40/35/12 64/34/12
f 40/35/12 34/68/12 28/62/12
f 28/62/12 22/57/12 40/35/12
f 22/57/12 16/36/12 40/35/12
f 5/37/13 12/49/13 8/38/13
f 8/46/38 7/45/38 1/40/38
f 5/37/39 4/43/39 10/48/39
f 6/44/40 5/37/40 3/39/40
f 9/33/41 8/38/41 12/49/41
f 9/47/42 14/51/42 13/50/42
f 18/53/43 11/31/43 10/48/43
f 15/6/44 14/32/44 18/53/44
f 20/55/45 19/54/45 13/50/45
f 24/58/46 17/4/46 16/36/46
f 21/9/47 20/5/47 24/58/47
f 26/60/48 25/59/48 19/54/48
f 23/7/49 22/57/49 28/62/49
f 29/63/50 27/10/50 26/8/50
f 32/66/51 31/65/51 25/59/51
f 29/63/52 28/62/52 34/68/52
f 33/13/53 32/12/53 36/11/53
f 38/71/54 37/70/54 31/65/54
f 35/69/55 34/68/55 40/35/55
f 39/16/56 38/15/56 42/14/56
f 44/75/57 43/74/57 37/70/57
f 41/73/58 40/35/58 46/77/58
f 45/19/59 44/121/59 48/17/59
f 50/80/60 49/79/60 43/74/60
f 47/78/61 46/77/61 52/82/61
f 53/22/62 51/24/62 50/21/62
f 56/84/63 55/83/63 49/79/63
f 53/22/64 52/82/64 58/86/64
f 57/27/65 56/23/65 60/87/65
f 57/85/66 62/89/66 61/88/66
f 59/25/67 58/86/67 64/34/67
f 63/30/68 62/26/68 66/91/68
f 63/90/69 68/93/69 67/92/69
f 65/28/70 64/34/70 70/95/70
f 69/3/71 68/29/71 72/96/71
f 69/94/72 2/41/72 1/40/72
f 71/1/73 70/95/73 4/43/73
f 67/92/74 1/40/74 7/45/74
f 7/45/74 13/50/74 67/92/74
f 13/50/74 19/54/74 67/92/74
f 19/54/74 25/59/74 31/65/74
f 31/65/74 37/70/74 19/54/74
f 37/70/74 43/74/74 19/54/74
f 43/74/74 49/79/74 55/83/74
f 55/83/74 61/88/74 43/74/74
f 61/88/74 67/92/74 43/74/74
f 76/122/74 80/123/74 79/106/74
f 76/122/74 79/106/74 75/98/74
f 83/124/74 84/125/74 88/97/74
f 88/97/74 76/122/74 75/98/74
f 87/99/74 83/124/74 88/97/74
f 80/100/4 78/126/4 77/101/4
f 86/127/12 82/128/12 85/104/12
f 82/128/12 81/129/12 85/104/12
f 77/130/12 78/131/12 74/103/12
f 74/103/12 86/127/12 85/104/12
f 73/105/12 77/130/12 74/103/12
f 79/106/75 77/132/75 73/107/75
f 76/109/76 74/133/76 78/110/76
f 82/112/10 84/134/10 83/113/10
f 87/115/77 85/135/77 81/116/77
f 84/118/79 82/136/79 86/119/79
f 86/119/80 74/133/80 88/120/80
f 74/133/81 76/109/81 88/120/81
f 87/115/7 75/108/7 85/135/7
f 75/108/7 73/107/7 85/135/7
