# Blender v2.91.0 OBJ File: 'SnakeBodyPartElbow.blend'
# www.blender.org
mtllib SnakeBodyPartElbowBL.mtl
o SnakeBodyPart
v -0.315740 -0.124372 0.422709
v -0.250686 -0.229810 0.395667
v -0.153325 -0.300261 0.355195
v -0.038480 -0.325000 0.307456
v 0.076365 -0.300261 0.259717
v 0.173726 -0.229810 0.219246
v 0.238781 -0.124372 0.192204
v 0.261625 -0.000000 0.182708
v 0.238781 0.124372 0.192204
v 0.173726 0.229810 0.219246
v 0.076365 0.300261 0.259717
v -0.038480 0.325000 0.307456
v -0.153325 0.300261 0.355195
v -0.250686 0.229810 0.395667
v -0.315740 0.124372 0.422709
v -0.338584 0.000000 0.432205
v -0.328520 0.000000 0.464740
v -0.304262 0.124372 0.459886
v -0.235180 0.229810 0.446063
v -0.131792 0.300261 0.425375
v -0.009838 0.325000 0.400972
v 0.112117 0.300261 0.376569
v 0.215505 0.229810 0.355881
v 0.284587 0.124372 0.342058
v 0.308845 -0.000000 0.337203
v 0.284587 -0.124372 0.342058
v 0.215505 -0.229810 0.355881
v 0.112117 -0.300261 0.376569
v -0.009838 -0.325000 0.400972
v -0.131792 -0.300261 0.425375
v -0.235180 -0.229810 0.446063
v -0.304262 -0.124372 0.459886
v -0.465784 0.000000 0.329040
v -0.461001 0.124372 0.304768
v -0.447379 0.229810 0.235646
v -0.426994 0.300261 0.132198
v -0.402947 0.325000 0.010172
v -0.378900 0.300261 -0.111853
v -0.358515 0.229810 -0.215301
v -0.344893 0.124372 -0.284423
v -0.340110 -0.000000 -0.308695
v -0.344893 -0.124372 -0.284423
v -0.358515 -0.229810 -0.215301
v -0.378900 -0.300261 -0.111853
v -0.402947 -0.325000 0.010172
v -0.426994 -0.300261 0.132198
v -0.447379 -0.229810 0.235646
v -0.461001 -0.124372 0.304768
v -0.424057 -0.124372 0.315716
v -0.397329 -0.229810 0.250532
v -0.357329 -0.300261 0.152977
v -0.310145 -0.325000 0.037902
v -0.262961 -0.300261 -0.077172
v -0.222960 -0.229810 -0.174727
v -0.196233 -0.124372 -0.239912
v -0.186847 -0.000000 -0.262802
v -0.196233 0.124372 -0.239912
v -0.222960 0.229810 -0.174727
v -0.262961 0.300261 -0.077172
v -0.310145 0.325000 0.037902
v -0.357329 0.300261 0.152977
v -0.397329 0.229810 0.250532
v -0.424057 0.124372 0.315716
v -0.433442 0.000000 0.338606
v -0.406132 0.000000 0.352593
v -0.392864 0.124372 0.331713
v -0.355080 0.229810 0.272251
v -0.298531 0.300261 0.183260
v -0.231828 0.325000 0.078289
v -0.165124 0.300261 -0.026683
v -0.108576 0.229810 -0.115674
v -0.070791 0.124372 -0.175136
v -0.057523 -0.000000 -0.196016
v -0.070791 -0.124372 -0.175136
v -0.108576 -0.229810 -0.115674
v -0.165124 -0.300261 -0.026683
v -0.231828 -0.325000 0.078289
v -0.298531 -0.300261 0.183261
v -0.355080 -0.229810 0.272251
v -0.392864 -0.124372 0.331713
v -0.499284 0.000000 0.325907
v -0.499272 0.124372 0.301168
v -0.499238 0.229810 0.230716
v -0.499187 0.300261 0.125279
v -0.499127 0.325000 0.000907
v -0.499067 0.300261 -0.123465
v -0.499016 0.229810 -0.228903
v -0.498982 0.124372 -0.299354
v -0.498970 -0.000000 -0.324093
v -0.498982 -0.124372 -0.299354
v -0.499016 -0.229810 -0.228903
v -0.499067 -0.300261 -0.123465
v -0.499127 -0.325000 0.000907
v -0.499187 -0.300261 0.125279
v -0.499238 -0.229810 0.230717
v -0.499272 -0.124372 0.301168
v -0.300261 -0.124372 0.498793
v -0.229810 -0.229810 0.498793
v -0.124372 -0.300261 0.498793
v -0.000000 -0.325000 0.498793
v 0.124372 -0.300261 0.498793
v 0.229810 -0.229810 0.498793
v 0.300261 -0.124372 0.498793
v 0.325000 -0.000000 0.498793
v 0.300261 0.124372 0.498793
v 0.229810 0.229810 0.498793
v 0.124372 0.300261 0.498793
v 0.000000 0.325000 0.498793
v -0.124372 0.300261 0.498793
v -0.229810 0.229810 0.498793
v -0.300261 0.124372 0.498793
v -0.325000 0.000000 0.498793
v -0.359182 -0.124372 0.358450
v -0.309471 -0.229810 0.308528
v -0.235073 -0.300261 0.233816
v -0.147314 -0.325000 0.145686
v -0.059555 -0.300261 0.057556
v 0.014843 -0.229810 -0.017156
v 0.064554 -0.124372 -0.067078
v 0.082011 -0.000000 -0.084608
v 0.064554 0.124372 -0.067078
v 0.014843 0.229810 -0.017156
v -0.059555 0.300261 0.057556
v -0.147314 0.325000 0.145686
v -0.235072 0.300261 0.233816
v -0.309471 0.229810 0.308528
v -0.359182 0.124372 0.358450
v -0.376638 0.000000 0.375980
v -0.354222 0.000000 0.403129
v -0.333588 0.124372 0.389480
v -0.274828 0.229810 0.350613
v -0.186887 0.300261 0.292445
v -0.083155 0.325000 0.223831
v 0.020578 0.300261 0.155217
v 0.108519 0.229810 0.097048
v 0.167279 0.124372 0.058181
v 0.187912 -0.000000 0.044533
v 0.167279 -0.124372 0.058181
v 0.108519 -0.229810 0.097048
v 0.020578 -0.300261 0.155217
v -0.083155 -0.325000 0.223831
v -0.186888 -0.300261 0.292445
v -0.274828 -0.229810 0.350614
v -0.333588 -0.124372 0.389480
v -0.333588 0.124372 0.389480
v -0.338584 0.000000 0.432205
v -0.338584 0.000000 0.432205
vt 1.106791 0.004789
vt 0.996001 0.149583
vt 0.990481 0.081618
vt 1.122556 0.074406
vt 1.001675 0.221627
vt 1.136854 0.150396
vt 1.006905 0.290264
vt 1.013218 0.377993
vt 1.148306 0.223886
vt 1.159952 0.317950
vt 1.018836 0.461899
vt 1.168353 0.407708
vt 1.023623 0.541474
vt 1.173182 0.485759
vt 1.037130 0.620817
vt 1.023638 0.541520
vt 1.176206 0.574540
vt 1.042358 0.693184
vt 1.205935 -0.128726
vt 1.235097 -0.048049
vt 1.260639 0.043606
vt 1.280043 0.134482
vt 1.298047 0.252952
vt 1.308619 0.367932
vt 1.312714 0.476183
vt 1.310615 0.586766
vt 1.177173 0.658408
vt 0.870043 0.082281
vt 0.866304 0.156941
vt 0.864898 0.236436
vt 0.865698 0.311643
vt 0.869608 0.405917
vt 1.023051 0.543356
vt 0.884157 0.569232
vt 0.894849 0.656710
vt 0.756735 0.021010
vt 0.742741 0.114289
vt 0.733780 0.214867
vt 0.730147 0.310470
vt 0.875995 0.494058
vt 0.731741 0.430425
vt 0.739164 0.542877
vt 0.751171 0.645892
vt 0.906328 0.737950
vt 0.769072 0.748711
vt 0.653857 -0.074778
vt 0.629132 0.044821
vt 0.612949 0.173285
vt 0.605279 0.294503
vt 0.604787 0.445938
vt 0.612986 0.588479
vt 0.628597 0.721042
vt 0.792270 0.845077
vt 0.653519 0.854298
vt 0.556971 -0.182168
vt 0.523981 -0.029852
vt 0.503195 0.128471
vt 0.493144 0.274507
vt 0.491114 0.454910
vt 0.498904 0.625234
vt 0.515389 0.786461
vt 0.688514 0.980848
vt 0.543430 0.953790
vt 0.459928 -0.285583
vt 0.424085 -0.096358
vt 0.402740 0.090065
vt 0.392531 0.256872
vt 0.389823 0.460073
vt 0.396219 0.652070
vt 0.410837 0.836764
vt 0.585992 1.120715
vt 0.436895 1.035040
vt 0.358341 -0.373236
vt 0.326780 -0.147854
vt 0.250383 -0.435197
vt 0.230293 -0.181015
vt 0.136447 -0.463140
vt 0.036709 -0.188809
vt 0.022209 -0.444273
vt -0.060805 -0.164171
vt -0.086567 -0.392308
vt -0.160147 -0.122961
vt -0.189821 -0.316615
vt -0.263531 -0.070477
vt -0.289826 -0.228494
vt 1.361724 -0.463140
vt 1.333430 -0.192898
vt 1.288506 -0.290838
vt 0.308975 0.061808
vt 0.219317 0.044498
vt 0.133636 -0.193774
vt 0.043145 0.038424
vt -0.047806 0.049038
vt -0.144157 0.069026
vt -0.249272 0.095632
vt 1.422041 -0.341552
vt 1.371858 -0.078771
vt 0.300571 0.244071
vt 0.214061 0.236498
vt 0.131408 0.037913
vt 0.045377 0.232341
vt -0.042687 0.235269
vt -0.137791 0.242134
vt -0.244251 0.250707
vt 1.472492 -0.201895
vt 1.400438 0.035831
vt 0.297990 0.463350
vt 0.212157 0.465608
vt 0.129941 0.233741
vt 0.045237 0.464202
vt 0.128972 0.466956
vt -0.042447 0.460289
vt -0.138051 0.454680
vt -0.246579 0.445525
vt 1.426286 0.186772
vt 1.509697 -0.062340
vt 1.543570 0.121147
vt 1.440654 0.335245
vt -0.255734 0.631323
vt -0.144993 0.656683
vt -0.270702 0.807792
vt -0.157914 0.851287
vt -0.294172 0.990503
vt -0.179934 1.059705
vt -0.328869 1.170713
vt 1.438403 0.624000
vt 1.302239 0.693099
vt 1.561140 0.667703
vt 1.420780 0.765887
vt 1.444692 0.477635
vt 1.569083 0.481174
vt 1.563025 0.303401
vt -0.047076 0.673486
vt -0.056147 0.881072
vt -0.072188 1.109312
vt -0.216072 1.279593
vt 0.042962 0.683343
vt 0.038724 0.898006
vt 0.031261 1.137436
vt -0.099920 1.362691
vt 0.129025 0.687070
vt 0.129994 0.903120
vt 0.131975 1.145011
vt 0.018074 1.410177
vt 0.214462 0.681814
vt 0.220587 0.893532
vt 0.231966 1.129804
vt 0.251136 1.399090
vt 0.302456 0.670416
vt 0.313331 0.871887
vt 0.333265 1.093693
vt 0.366856 1.340385
vt 0.479123 1.245141
vt 1.536423 0.852765
vt 0.135006 1.419735
vn -0.0913 -0.1943 0.9767
vn -0.2782 -0.1943 0.9407
vn -0.4472 -0.1944 0.8731
vn -0.6099 -0.1939 0.7684
vn -0.7564 -0.1942 0.6246
vn -0.8639 -0.1943 0.4646
vn -0.9371 -0.1943 0.2899
vn -0.9758 -0.1943 0.1009
vn -0.0780 -0.5539 0.8289
vn -0.2366 -0.5539 0.7983
vn -0.3798 -0.5542 0.7407
vn -0.5186 -0.5532 0.6520
vn -0.6424 -0.5537 0.5298
vn -0.7334 -0.5540 0.3939
vn -0.7956 -0.5539 0.2456
vn -0.8283 -0.5538 0.0852
vn -0.0913 0.1943 0.9767
vn -0.2782 0.1943 0.9407
vn -0.4472 0.1944 0.8731
vn -0.6095 0.1941 0.7687
vn -0.7564 0.1942 0.6246
vn 0.0000 0.0000 1.0000
vn -0.9371 0.1943 0.2899
vn -0.9758 0.1943 0.1009
vn -0.0780 0.5539 0.8289
vn -0.2366 0.5539 0.7983
vn -0.3798 0.5542 0.7407
vn -0.5178 0.5535 0.6523
vn -0.6424 0.5537 0.5298
vn -0.7334 0.5540 0.3939
vn -0.7956 0.5539 0.2456
vn -0.8283 0.5538 0.0852
vn -0.0527 0.8303 0.5548
vn -0.1589 0.8303 0.5342
vn -0.2547 0.8305 0.4954
vn -0.3472 0.8300 0.4365
vn -0.4304 0.8302 0.3543
vn -0.4911 0.8304 0.2632
vn -0.5327 0.8303 0.1639
vn -0.5545 0.8303 0.0565
vn -0.0187 0.9806 0.1950
vn -0.0560 0.9806 0.1878
vn -0.0897 0.9806 0.1741
vn -0.1222 0.9806 0.1534
vn -0.1514 0.9806 0.1245
vn -0.1728 0.9806 0.0924
vn -0.1873 0.9806 0.0575
vn -0.1950 0.9806 0.0197
vn 0.0188 0.9806 -0.1950
vn 0.0561 0.9806 -0.1878
vn 0.0897 0.9806 -0.1740
vn 0.1223 0.9806 -0.1534
vn 0.1515 0.9806 -0.1244
vn 0.1728 0.9806 -0.0923
vn 0.1874 0.9806 -0.0574
vn 0.1950 0.9806 -0.0196
vn 0.0536 0.8303 -0.5548
vn 0.0802 0.5538 -0.8288
vn 0.0946 0.1942 -0.9764
vn 0.0946 -0.1942 -0.9764
vn 0.0802 -0.5538 -0.8288
vn 0.0536 -0.8303 -0.5548
vn 0.0188 -0.9806 -0.1950
vn -0.0187 -0.9806 0.1950
vn -0.0527 -0.8303 0.5548
vn 0.1597 0.8303 -0.5340
vn 0.2388 0.5538 -0.7977
vn 0.2814 0.1942 -0.9397
vn 0.2814 -0.1942 -0.9397
vn 0.2388 -0.5538 -0.7977
vn 0.1597 -0.8303 -0.5340
vn 0.0561 -0.9806 -0.1878
vn -0.0560 -0.9806 0.1878
vn -0.1589 -0.8303 0.5342
vn 0.2555 0.8305 -0.4950
vn 0.3819 0.5541 -0.7397
vn 0.4501 0.1944 -0.8716
vn 0.4501 -0.1944 -0.8716
vn 0.3819 -0.5541 -0.7397
vn 0.2555 -0.8305 -0.4950
vn 0.0897 -0.9806 -0.1740
vn -0.2547 -0.8305 0.4954
vn -0.0897 -0.9806 0.1741
vn 0.3479 0.8300 -0.4360
vn 0.5196 0.5533 -0.6510
vn 0.6121 0.1940 -0.7666
vn 0.6121 -0.1940 -0.7666
vn 0.5197 -0.5533 -0.6510
vn 0.3480 -0.8299 -0.4360
vn 0.1224 -0.9806 -0.1534
vn -0.1223 -0.9806 0.1534
vn -0.3476 -0.8299 0.4364
vn -0.4304 -0.8302 0.3543
vn -0.1514 -0.9806 0.1245
vn 0.1515 -0.9806 -0.1244
vn 0.1728 -0.9806 -0.0923
vn 0.1874 -0.9806 -0.0574
vn 0.1950 -0.9806 -0.0196
vn -0.5545 -0.8303 0.0565
vn -0.1950 -0.9806 0.0197
vn -0.5327 -0.8303 0.1639
vn -0.4911 -0.8304 0.2632
vn -0.1873 -0.9806 0.0575
vn -0.1728 -0.9806 0.0924
vn 0.4310 -0.8302 -0.3536
vn 0.4916 -0.8303 -0.2624
vn 0.5330 -0.8303 -0.1631
vn 0.5546 -0.8302 -0.0556
vn 0.6439 -0.5536 -0.5281
vn 0.7346 -0.5539 -0.3920
vn 0.7963 -0.5538 -0.2435
vn 0.8286 -0.5537 -0.0829
vn 0.7585 -0.1941 -0.6221
vn 0.8655 -0.1943 -0.4617
vn 0.9381 -0.1942 -0.2868
vn 0.9761 -0.1942 -0.0976
vn 0.7585 0.1941 -0.6221
vn 0.8655 0.1943 -0.4617
vn 0.9381 0.1942 -0.2868
vn 0.9761 0.1942 -0.0976
vn 0.6439 0.5536 -0.5281
vn 0.7346 0.5539 -0.3920
vn 0.7963 0.5538 -0.2435
vn 0.8286 0.5537 -0.0829
vn 0.4310 0.8302 -0.3536
vn 0.4916 0.8303 -0.2624
vn 0.5330 0.8303 -0.1631
vn 0.5546 0.8302 -0.0556
vn -0.0919 -0.1941 0.9767
vn -0.2787 -0.1941 0.9405
vn -0.4476 -0.1943 0.8729
vn -0.6095 -0.1941 0.7687
vn -0.7568 -0.1941 0.6242
vn -0.8642 -0.1942 0.4642
vn -0.9373 -0.1941 0.2894
vn -0.9758 -0.1941 0.1004
vn -0.0788 -0.5537 0.8290
vn -0.2374 -0.5536 0.7982
vn -0.3806 -0.5540 0.7404
vn -0.5178 -0.5535 0.6523
vn -0.6430 -0.5535 0.5293
vn -0.7340 -0.5537 0.3933
vn -0.7960 -0.5536 0.2449
vn -0.8285 -0.5536 0.0844
vn -0.0919 0.1941 0.9767
vn -0.2787 0.1941 0.9405
vn -0.4476 0.1943 0.8729
vn -0.6099 0.1939 0.7684
vn -0.7568 0.1941 0.6242
vn -0.8642 0.1942 0.4642
vn -0.8639 0.1943 0.4646
vn -0.9373 0.1941 0.2894
vn -0.9758 0.1941 0.1004
vn -0.0788 0.5537 0.8290
vn -0.2374 0.5536 0.7982
vn -0.3806 0.5540 0.7404
vn -0.5186 0.5532 0.6520
vn -0.6430 0.5535 0.5293
vn -0.7340 0.5537 0.3933
vn -0.7960 0.5536 0.2449
vn -0.8285 0.5536 0.0844
vn -0.0532 0.8302 0.5549
vn -0.1593 0.8302 0.5342
vn -0.2551 0.8304 0.4953
vn -0.3476 0.8299 0.4364
vn -0.4308 0.8301 0.3541
vn -0.4915 0.8303 0.2629
vn -0.5330 0.8302 0.1635
vn -0.5547 0.8302 0.0561
vn -0.0188 0.9806 0.1951
vn -0.0561 0.9806 0.1878
vn -0.0898 0.9806 0.1741
vn -0.1223 0.9806 0.1534
vn -0.1516 0.9806 0.1244
vn -0.1729 0.9806 0.0923
vn -0.1874 0.9806 0.0574
vn -0.1951 0.9806 0.0196
vn 0.0189 0.9806 -0.1951
vn 0.0562 0.9806 -0.1878
vn 0.0898 0.9806 -0.1740
vn 0.1224 0.9806 -0.1534
vn 0.1516 0.9806 -0.1244
vn 0.1729 0.9806 -0.0923
vn 0.1874 0.9806 -0.0573
vn 0.1951 0.9806 -0.0196
vn 0.0537 0.8302 -0.5548
vn 0.0803 0.5537 -0.8288
vn 0.0803 -0.5537 -0.8288
vn 0.0537 -0.8302 -0.5548
vn 0.0189 -0.9806 -0.1951
vn -0.0188 -0.9806 0.1951
vn -0.0532 -0.8302 0.5549
vn 0.1598 0.8302 -0.5340
vn 0.2388 0.5537 -0.7977
vn 0.2388 -0.5537 -0.7977
vn 0.1598 -0.8302 -0.5340
vn 0.0562 -0.9806 -0.1878
vn -0.0561 -0.9806 0.1878
vn -0.1593 -0.8302 0.5342
vn 0.2556 0.8304 -0.4950
vn 0.3820 0.5540 -0.7397
vn 0.4501 0.1943 -0.8716
vn 0.4501 -0.1943 -0.8716
vn 0.3820 -0.5540 -0.7397
vn 0.2556 -0.8304 -0.4950
vn 0.0898 -0.9806 -0.1740
vn -0.2551 -0.8304 0.4953
vn -0.0898 -0.9806 0.1741
vn 0.3480 0.8299 -0.4360
vn 0.5197 0.5533 -0.6510
vn 0.5196 -0.5533 -0.6510
vn 0.3479 -0.8300 -0.4360
vn 0.1223 -0.9806 -0.1534
vn -0.1222 -0.9806 0.1534
vn -0.3472 -0.8300 0.4365
vn -0.4308 -0.8301 0.3541
vn -0.1516 -0.9806 0.1244
vn 0.1516 -0.9806 -0.1244
vn 0.1729 -0.9806 -0.0923
vn 0.1874 -0.9806 -0.0573
vn 0.1951 -0.9806 -0.0196
vn -0.5547 -0.8302 0.0561
vn -0.1951 -0.9806 0.0196
vn -0.5330 -0.8302 0.1635
vn -0.4915 -0.8303 0.2629
vn -0.1874 -0.9806 0.0574
vn -0.1729 -0.9806 0.0923
vn 0.4311 -0.8301 -0.3536
vn 0.4917 -0.8303 -0.2624
vn 0.5331 -0.8302 -0.1630
vn 0.5547 -0.8302 -0.0555
vn 0.6440 -0.5535 -0.5281
vn 0.7346 -0.5538 -0.3919
vn 0.7964 -0.5537 -0.2434
vn 0.7585 -0.1941 -0.6220
vn 0.8655 -0.1942 -0.4617
vn 0.9381 -0.1942 -0.2867
vn 0.7585 0.1941 -0.6220
vn 0.8655 0.1942 -0.4617
vn 0.9381 0.1942 -0.2867
vn 0.6440 0.5535 -0.5281
vn 0.7346 0.5538 -0.3919
vn 0.7964 0.5537 -0.2434
vn 0.4311 0.8301 -0.3536
vn 0.4917 0.8303 -0.2624
vn 0.5331 0.8302 -0.1630
vn 0.5547 0.8302 -0.0555
usemtl SnakeBodyPart
s off
f 96/1/1 33/2/1 81/3/1
f 48/4/2 64/5/2 33/2/2
f 49/6/3 65/7/3 64/5/3
f 128/8/4 80/9/4 113/10/4
f 113/10/5 129/11/5 128/8/5
f 144/12/6 146/13/6 129/11/6
f 1/14/7 17/15/7 16/16/7
f 32/17/8 112/18/8 17/15/8
f 95/19/9 48/4/9 96/1/9
f 47/20/10 49/6/10 48/4/10
f 50/21/11 80/9/11 49/6/11
f 113/10/12 79/22/12 114/23/12
f 114/23/13 144/12/13 113/10/13
f 143/24/14 1/14/14 144/12/14
f 2/25/15 32/17/15 1/14/15
f 31/26/16 97/27/16 32/17/16
f 33/2/17 82/28/17 81/3/17
f 64/5/18 34/29/18 33/2/18
f 65/7/19 63/30/19 64/5/19
f 128/8/20 66/31/20 65/7/20
f 129/11/21 127/32/21 128/8/21
f 146/13/22 147/33/22 15/34/22
f 17/15/23 15/34/23 147/33/23
f 112/18/24 18/35/24 17/15/24
f 34/29/25 83/36/25 82/28/25
f 63/30/26 35/37/26 34/29/26
f 66/31/27 62/38/27 63/30/27
f 127/32/28 67/39/28 66/31/28
f 145/40/29 126/41/29 127/32/29
f 15/34/30 131/42/30 145/40/30
f 18/35/31 14/43/31 15/34/31
f 111/44/32 19/45/32 18/35/32
f 35/37/33 84/46/33 83/36/33
f 62/38/34 36/47/34 35/37/34
f 67/39/35 61/48/35 62/38/35
f 126/41/36 68/49/36 67/39/36
f 131/42/37 125/50/37 126/41/37
f 14/43/38 132/51/38 131/42/38
f 19/45/39 13/52/39 14/43/39
f 110/53/40 20/54/40 19/45/40
f 36/47/41 85/55/41 84/46/41
f 61/48/42 37/56/42 36/47/42
f 68/49/43 60/57/43 61/48/43
f 125/50/44 69/58/44 68/49/44
f 132/51/45 124/59/45 125/50/45
f 13/52/46 133/60/46 132/51/46
f 20/54/47 12/61/47 13/52/47
f 109/62/48 21/63/48 20/54/48
f 37/56/49 86/64/49 85/55/49
f 60/57/50 38/65/50 37/56/50
f 69/58/51 59/66/51 60/57/51
f 124/59/52 70/67/52 69/58/52
f 133/60/53 123/68/53 124/59/53
f 12/61/54 134/69/54 133/60/54
f 21/63/55 11/70/55 12/61/55
f 108/71/56 22/72/56 21/63/56
f 38/65/57 87/73/57 86/64/57
f 39/74/58 88/75/58 87/73/58
f 40/76/59 89/77/59 88/75/59
f 89/77/60 42/78/60 90/79/60
f 90/79/61 43/80/61 91/81/61
f 91/81/62 44/82/62 92/83/62
f 92/83/63 45/84/63 93/85/63
f 93/86/64 46/87/64 94/88/64
f 94/88/65 47/20/65 95/19/65
f 59/66/66 39/74/66 38/65/66
f 58/89/67 40/76/67 39/74/67
f 57/90/68 41/91/68 40/76/68
f 41/91/69 55/92/69 42/78/69
f 42/78/70 54/93/70 43/80/70
f 43/80/71 53/94/71 44/82/71
f 44/82/72 52/95/72 45/84/72
f 45/96/73 51/97/73 46/87/73
f 46/87/74 50/21/74 47/20/74
f 70/67/75 58/89/75 59/66/75
f 71/98/76 57/90/76 58/89/76
f 72/99/77 56/100/77 57/90/77
f 56/100/78 74/101/78 55/92/78
f 55/92/79 75/102/79 54/93/79
f 54/93/80 76/103/80 53/94/80
f 53/94/81 77/104/81 52/95/81
f 51/97/82 79/22/82 50/21/82
f 52/105/83 78/106/83 51/97/83
f 123/68/84 71/98/84 70/67/84
f 122/107/85 72/99/85 71/98/85
f 121/108/86 73/109/86 72/99/86
f 119/110/87 73/109/87 120/111/87
f 118/112/88 74/101/88 119/110/88
f 117/113/89 75/102/89 118/112/89
f 116/114/90 76/103/90 117/113/90
f 115/115/91 77/116/91 116/117/91
f 114/23/92 78/106/92 115/115/92
f 115/115/93 143/24/93 114/23/93
f 116/117/94 142/118/94 115/115/94
f 117/113/95 141/119/95 116/114/95
f 140/120/96 4/121/96 141/119/96
f 5/122/97 29/123/97 4/121/97
f 28/124/98 100/125/98 29/123/98
f 30/126/99 98/127/99 31/26/99
f 29/128/100 99/129/100 30/126/100
f 3/130/101 31/26/101 2/25/101
f 142/118/102 2/25/102 143/24/102
f 4/131/103 30/126/103 3/130/103
f 141/132/104 3/130/104 142/118/104
f 118/112/105 140/120/105 117/113/105
f 139/133/106 5/122/106 140/120/106
f 6/134/107 28/124/107 5/122/107
f 27/135/108 101/136/108 28/124/108
f 119/110/109 139/133/109 118/112/109
f 138/137/110 6/134/110 139/133/110
f 7/138/111 27/135/111 6/134/111
f 26/139/112 102/140/112 27/135/112
f 120/111/113 138/137/113 119/110/113
f 137/141/114 7/138/114 138/137/114
f 8/142/115 26/139/115 7/138/115
f 25/143/116 103/144/116 26/139/116
f 136/145/117 120/111/117 121/108/117
f 9/146/118 137/141/118 136/145/118
f 24/147/119 8/142/119 9/146/119
f 105/148/120 25/143/120 24/147/120
f 135/149/121 121/108/121 122/107/121
f 10/150/122 136/145/122 135/149/122
f 23/151/123 9/146/123 10/150/123
f 106/152/124 24/147/124 23/151/124
f 134/69/125 122/107/125 123/68/125
f 11/70/126 135/149/126 134/69/126
f 22/72/127 10/150/127 11/70/127
f 107/153/128 23/151/128 22/72/128
f 96/1/129 48/4/129 33/2/129
f 48/4/130 49/6/130 64/5/130
f 49/6/131 80/9/131 65/7/131
f 128/8/132 65/7/132 80/9/132
f 113/10/133 144/12/133 129/11/133
f 144/12/134 1/14/134 146/13/134
f 1/14/135 32/17/135 17/15/135
f 32/17/136 97/27/136 112/18/136
f 95/19/137 47/20/137 48/4/137
f 47/20/138 50/21/138 49/6/138
f 50/21/139 79/22/139 80/9/139
f 113/10/140 80/9/140 79/22/140
f 114/23/141 143/24/141 144/12/141
f 143/24/142 2/25/142 1/14/142
f 2/25/143 31/26/143 32/17/143
f 31/26/144 98/127/144 97/27/144
f 33/2/145 34/29/145 82/28/145
f 64/5/146 63/30/146 34/29/146
f 65/7/147 66/31/147 63/30/147
f 128/8/148 127/32/148 66/31/148
f 129/11/149 145/40/149 127/32/149
f 15/34/150 145/40/150 146/13/150
f 145/40/151 129/11/151 146/13/151
f 17/15/152 18/35/152 15/34/152
f 112/18/153 111/44/153 18/35/153
f 34/29/154 35/37/154 83/36/154
f 63/30/155 62/38/155 35/37/155
f 66/31/156 67/39/156 62/38/156
f 127/32/157 126/41/157 67/39/157
f 145/40/158 131/42/158 126/41/158
f 15/34/159 14/43/159 131/42/159
f 18/35/160 19/45/160 14/43/160
f 111/44/161 110/53/161 19/45/161
f 35/37/162 36/47/162 84/46/162
f 62/38/163 61/48/163 36/47/163
f 67/39/164 68/49/164 61/48/164
f 126/41/165 125/50/165 68/49/165
f 131/42/166 132/51/166 125/50/166
f 14/43/167 13/52/167 132/51/167
f 19/45/168 20/54/168 13/52/168
f 110/53/169 109/62/169 20/54/169
f 36/47/170 37/56/170 85/55/170
f 61/48/171 60/57/171 37/56/171
f 68/49/172 69/58/172 60/57/172
f 125/50/173 124/59/173 69/58/173
f 132/51/174 133/60/174 124/59/174
f 13/52/175 12/61/175 133/60/175
f 20/54/176 21/63/176 12/61/176
f 109/62/177 108/71/177 21/63/177
f 37/56/178 38/65/178 86/64/178
f 60/57/179 59/66/179 38/65/179
f 69/58/180 70/67/180 59/66/180
f 124/59/181 123/68/181 70/67/181
f 133/60/182 134/69/182 123/68/182
f 12/61/183 11/70/183 134/69/183
f 21/63/184 22/72/184 11/70/184
f 108/71/185 107/153/185 22/72/185
f 38/65/186 39/74/186 87/73/186
f 39/74/187 40/76/187 88/75/187
f 40/76/59 41/91/59 89/77/59
f 89/77/60 41/91/60 42/78/60
f 90/79/188 42/78/188 43/80/188
f 91/81/189 43/80/189 44/82/189
f 92/83/190 44/82/190 45/84/190
f 93/86/191 45/96/191 46/87/191
f 94/88/192 46/87/192 47/20/192
f 59/66/193 58/89/193 39/74/193
f 58/89/194 57/90/194 40/76/194
f 57/90/68 56/100/68 41/91/68
f 41/91/69 56/100/69 55/92/69
f 42/78/195 55/92/195 54/93/195
f 43/80/196 54/93/196 53/94/196
f 44/82/197 53/94/197 52/95/197
f 45/96/198 52/105/198 51/97/198
f 46/87/199 51/97/199 50/21/199
f 70/67/200 71/98/200 58/89/200
f 71/98/201 72/99/201 57/90/201
f 72/99/202 73/109/202 56/100/202
f 56/100/203 73/109/203 74/101/203
f 55/92/204 74/101/204 75/102/204
f 54/93/205 75/102/205 76/103/205
f 53/94/206 76/103/206 77/104/206
f 51/97/207 78/106/207 79/22/207
f 52/105/208 77/116/208 78/106/208
f 123/68/209 122/107/209 71/98/209
f 122/107/210 121/108/210 72/99/210
f 121/108/86 120/111/86 73/109/86
f 119/110/87 74/101/87 73/109/87
f 118/112/211 75/102/211 74/101/211
f 117/113/212 76/103/212 75/102/212
f 116/114/213 77/104/213 76/103/213
f 115/115/214 78/106/214 77/116/214
f 114/23/215 79/22/215 78/106/215
f 115/115/216 142/118/216 143/24/216
f 116/117/217 141/132/217 142/118/217
f 117/113/218 140/120/218 141/119/218
f 140/120/219 5/122/219 4/121/219
f 5/122/220 28/124/220 29/123/220
f 28/124/221 101/136/221 100/125/221
f 30/126/222 99/129/222 98/127/222
f 29/128/223 100/154/223 99/129/223
f 3/130/224 30/126/224 31/26/224
f 142/118/225 3/130/225 2/25/225
f 4/131/226 29/128/226 30/126/226
f 141/132/227 4/131/227 3/130/227
f 118/112/228 139/133/228 140/120/228
f 139/133/229 6/134/229 5/122/229
f 6/134/230 27/135/230 28/124/230
f 27/135/231 102/140/231 101/136/231
f 119/110/232 138/137/232 139/133/232
f 138/137/233 7/138/233 6/134/233
f 7/138/234 26/139/234 27/135/234
f 26/139/112 103/144/112 102/140/112
f 120/111/235 137/141/235 138/137/235
f 137/141/236 8/142/236 7/138/236
f 8/142/237 25/143/237 26/139/237
f 25/143/116 104/155/116 103/144/116
f 136/145/238 137/141/238 120/111/238
f 9/146/239 8/142/239 137/141/239
f 24/147/240 25/143/240 8/142/240
f 105/148/120 104/155/120 25/143/120
f 135/149/241 136/145/241 121/108/241
f 10/150/242 9/146/242 136/145/242
f 23/151/243 24/147/243 9/146/243
f 106/152/124 105/148/124 24/147/124
f 134/69/244 135/149/244 122/107/244
f 11/70/245 10/150/245 135/149/245
f 22/72/246 23/151/246 10/150/246
f 107/153/247 106/152/247 23/151/247
l 131 130
