# Blender v2.91.0 OBJ File: 'SnakeBodyPartVert.blend'
# www.blender.org
mtllib SnakeBodyPartVert.mtl
o SnakeBodyPart
v -0.325000 -0.000000 -0.499330
v -0.325000 -0.000000 0.499329
v -0.300261 0.124372 -0.499330
v -0.300261 0.124372 0.499330
v -0.229810 0.229810 -0.499330
v -0.229810 0.229810 0.499330
v -0.124372 0.300261 -0.499329
v -0.124372 0.300261 0.499330
v 0.000000 0.325000 -0.499329
v 0.000000 0.325000 0.499330
v 0.124372 0.300261 -0.499329
v 0.124372 0.300261 0.499330
v 0.229810 0.229810 -0.499329
v 0.229810 0.229810 0.499330
v 0.300261 0.124372 -0.499329
v 0.300261 0.124372 0.499330
v 0.325000 -0.000000 -0.499329
v 0.325000 -0.000000 0.499329
v 0.300261 -0.124372 -0.499329
v 0.300261 -0.124372 0.499330
v 0.229810 -0.229810 -0.499329
v 0.229810 -0.229810 0.499330
v 0.124372 -0.300261 -0.499329
v 0.124372 -0.300261 0.499330
v 0.000000 -0.325000 -0.499329
v -0.000000 -0.325000 0.499329
v -0.124372 -0.300261 -0.499330
v -0.124372 -0.300261 0.499329
v -0.229810 -0.229810 -0.499330
v -0.229810 -0.229810 0.499329
v -0.300261 -0.124372 -0.499330
v -0.300261 -0.124372 0.499330
vt 0.250105 0.176320
vt 0.312490 0.815867
vt 0.250105 0.815867
vt 0.374874 0.176320
vt 0.374874 0.815867
vt 0.437259 0.176320
vt 0.437259 0.815867
vt 0.499644 0.815867
vt 0.499644 0.176320
vt 0.562028 0.815867
vt 0.562028 0.176320
vt 0.624413 0.815867
vt 0.624413 0.176320
vt 0.686798 0.815867
vt 0.686798 0.176320
vt 0.749183 0.815867
vt 0.749183 0.176320
vt 0.811567 0.815867
vt 0.811567 0.176321
vt 0.873952 0.815867
vt 0.873952 0.176321
vt 0.936337 0.815867
vt 0.936337 0.176321
vt 0.998721 0.815867
vt 0.000566 0.815867
vt 0.062951 0.176320
vt 0.062951 0.815867
vt 0.125335 0.176320
vt 0.125335 0.815867
vt 0.187720 0.815867
vt 0.187720 0.176320
vt 0.312490 0.176320
vt 0.998721 0.176321
vt 0.000566 0.176320
vn -0.9808 0.1951 -0.0000
vn -0.8315 0.5556 -0.0000
vn -0.5556 0.8315 0.0000
vn -0.1951 0.9808 0.0000
vn 0.1951 0.9808 0.0000
vn 0.5556 0.8315 0.0000
vn 0.8315 0.5556 0.0000
vn 0.9808 0.1951 0.0000
vn 0.9808 -0.1951 0.0000
vn 0.8315 -0.5556 -0.0000
vn 0.5556 -0.8315 0.0000
vn 0.1951 -0.9808 -0.0000
vn -0.1951 -0.9808 0.0000
vn -0.5556 -0.8315 -0.0000
vn -0.8315 -0.5556 -0.0000
vn -0.9808 -0.1951 -0.0000
usemtl SnakeBodyPart
s off
f 2/1/1 3/2/1 1/3/1
f 3/2/2 6/4/2 5/5/2
f 5/5/3 8/6/3 7/7/3
f 8/6/4 9/8/4 7/7/4
f 10/9/5 11/10/5 9/8/5
f 12/11/6 13/12/6 11/10/6
f 14/13/7 15/14/7 13/12/7
f 16/15/8 17/16/8 15/14/8
f 18/17/9 19/18/9 17/16/9
f 20/19/10 21/20/10 19/18/10
f 22/21/11 23/22/11 21/20/11
f 24/23/12 25/24/12 23/22/12
f 25/25/13 28/26/13 27/27/13
f 27/27/14 30/28/14 29/29/14
f 30/28/15 31/30/15 29/29/15
f 32/31/16 1/3/16 31/30/16
f 2/1/1 4/32/1 3/2/1
f 3/2/2 4/32/2 6/4/2
f 5/5/3 6/4/3 8/6/3
f 8/6/4 10/9/4 9/8/4
f 10/9/5 12/11/5 11/10/5
f 12/11/6 14/13/6 13/12/6
f 14/13/7 16/15/7 15/14/7
f 16/15/8 18/17/8 17/16/8
f 18/17/9 20/19/9 19/18/9
f 20/19/10 22/21/10 21/20/10
f 22/21/11 24/23/11 23/22/11
f 24/23/12 26/33/12 25/24/12
f 25/25/13 26/34/13 28/26/13
f 27/27/14 28/26/14 30/28/14
f 30/28/15 32/31/15 31/30/15
f 32/31/16 2/1/16 1/3/16
