# Blender v2.91.0 OBJ File: 'WallDisplayMesh.blend'
# www.blender.org
mtllib WallDisplayMesh1.mtl
o Cube
v -0.490751 -0.516925 0.489796
v -0.483734 0.487995 0.582051
v -0.456013 -0.543631 -0.454229
v -0.547848 0.466497 -0.560674
v 0.446469 -0.560591 0.458595
v 0.447119 0.528141 0.523988
v 0.459113 -0.585138 -0.512601
v 0.488617 0.475532 -0.508726
v -0.487729 -0.473259 0.014862
v -0.503865 -0.032790 0.483667
v -0.480425 0.462694 0.087062
v -0.496387 -0.036127 -0.499228
v -0.004280 -0.527232 -0.503028
v 0.008133 0.475445 -0.490987
v 0.482317 -0.045796 -0.536751
v 0.503370 -0.585932 0.045487
v 0.501400 0.434854 0.056352
v 0.532644 -0.013208 0.514963
v -0.045789 -0.506628 0.480013
v -0.043339 0.483851 0.542710
v 0.025939 0.486794 -0.035911
v -0.011588 0.003917 0.487487
v 0.520162 -0.057218 0.004909
v 0.061860 -0.010503 -0.429153
v -0.507925 -0.013199 0.005227
v -0.500328 -0.519652 0.248775
v -0.559010 0.272481 0.525155
v -0.512336 0.500679 -0.246644
v -0.465413 -0.286346 -0.482199
v -0.253323 -0.523920 -0.499397
v 0.210440 0.465777 -0.456253
v 0.532840 -0.339831 -0.514224
v 0.548255 -0.493948 -0.300608
v 0.491019 0.448715 0.262954
v 0.508147 -0.258716 0.467737
v 0.252709 -0.535920 0.508117
v -0.303416 0.454388 0.507109
v -0.507455 -0.550271 -0.216558
v -0.503050 -0.275439 0.498198
v -0.447306 0.523815 0.190663
v -0.502087 0.224537 -0.500559
v 0.277794 -0.595167 -0.463575
v -0.189734 0.486919 -0.547378
v 0.557467 0.265481 -0.462590
v 0.528883 -0.486073 0.255969
v 0.447932 0.471579 -0.279795
v 0.460856 0.273989 0.519931
v -0.252302 -0.503241 0.497261
v 0.310504 0.502574 0.503728
v 0.031492 0.494628 0.299396
v -0.014306 0.538644 -0.271999
v 0.285339 0.420030 0.042567
v -0.193825 0.464888 0.005171
v -0.255887 -0.026648 0.496742
v 0.232073 -0.073459 0.527627
v -0.004593 -0.306514 0.548056
v 0.055685 0.294354 0.468622
v 0.549558 -0.038115 0.247609
v 0.529099 -0.089434 -0.256041
v 0.563596 -0.255898 0.028999
v 0.454860 0.215116 -0.035410
v 0.251704 -0.033047 -0.519432
v -0.221468 -0.041114 -0.551787
v 0.011955 -0.247575 -0.535237
v 0.042185 0.221189 -0.557541
v -0.464300 -0.058088 -0.289988
v -0.501447 -0.094587 0.301269
v -0.469581 -0.271145 -0.019631
v -0.493914 0.233985 0.033627
v -0.533300 0.251862 0.258496
v -0.508484 -0.277092 0.175629
v -0.552625 -0.276502 -0.254439
v -0.282921 0.295714 -0.537156
v -0.294114 -0.264053 -0.467850
v 0.255556 -0.257238 -0.541016
v 0.513022 0.194888 -0.183011
v 0.502040 -0.268305 -0.249586
v 0.582878 -0.252527 0.209856
v 0.256830 0.227491 0.493312
v 0.211080 -0.305094 0.528758
v -0.335519 -0.262061 0.539823
v -0.216335 0.483632 -0.282891
v 0.235065 0.480839 -0.243634
v 0.268792 0.462370 0.163497
v -0.249556 0.481368 0.231667
v -0.250618 0.221647 0.471691
v 0.497042 0.233478 0.276518
v 0.251193 0.214133 -0.433433
v -0.527286 0.214497 -0.221908
vt 0.370684 0.588036
vt 0.315203 0.665919
vt 0.312162 0.580121
vt 0.534539 0.751704
vt 0.589836 0.670726
vt 0.600461 0.739344
vt 0.588007 0.415238
vt 0.629909 0.337453
vt 0.635129 0.414644
vt 0.408966 0.322958
vt 0.358751 0.246121
vt 0.423974 0.240367
vt 0.438002 0.833981
vt 0.498147 0.820327
vt 0.487648 0.897598
vt 0.377919 0.436260
vt 0.421133 0.426581
vt 0.485534 0.402950
vt 0.547993 0.329915
vt 0.538652 0.447703
vt 0.532020 0.586208
vt 0.484694 0.514905
vt 0.543524 0.489512
vt 0.434997 0.501464
vt 0.431757 0.596168
vt 0.538011 0.901889
vt 0.537745 0.833718
vt 0.584730 0.837724
vt 0.581314 0.596649
vt 0.589705 0.482737
vt 0.636636 0.514691
vt 0.703728 0.583333
vt 0.695282 0.502364
vt 0.737089 0.493541
vt 0.410321 0.089223
vt 0.375010 0.156863
vt 0.376292 0.084544
vt 0.524185 0.145754
vt 0.475771 0.076952
vt 0.518893 0.075857
vt 0.489484 0.261980
vt 0.531204 0.238908
vt 0.692819 0.426098
vt 0.738277 0.359587
vt 0.735972 0.439136
vt 0.740571 0.579729
vt 0.643799 0.563821
vt 0.594975 0.927850
vt 0.423143 0.906213
vt 0.435675 0.675981
vt 0.484817 0.747702
vt 0.419508 0.733688
vt 0.254759 0.604737
vt 0.210289 0.669167
vt 0.207323 0.597158
vt 0.205671 0.462378
vt 0.262974 0.510742
vt 0.209328 0.523811
vt 0.315654 0.424467
vt 0.368968 0.476835
vt 0.315911 0.497455
vt 0.241648 0.419455
vt 0.251405 0.361203
vt 0.361895 0.315098
vt 0.314509 0.338409
vt 0.166926 0.516339
vt 0.154435 0.444666
vt 0.201243 0.362445
vt 0.151545 0.370077
vt 0.156180 0.666613
vt 0.152273 0.590141
vt 0.375895 0.759408
vt 0.380854 0.838407
vt 0.365324 0.683892
vt 0.433298 0.984702
vt 0.483814 0.984978
vt 0.388681 0.914792
vt 0.391487 0.993264
vt 0.579867 1.003059
vt 0.541631 1.008762
vt 0.633114 0.651859
vt 0.697896 0.671172
vt 0.786877 0.591688
vt 0.804516 0.486667
vt 0.757152 0.658472
vt 0.809119 0.659181
vt 0.783282 0.424450
vt 0.800059 0.359691
vt 0.474521 0.172240
vt 0.584787 0.161359
vt 0.573820 0.248262
vt 0.467747 0.014097
vt 0.527103 0.006614
vt 0.566565 -0.002007
vt 0.579479 0.087260
vt 0.379195 0.012634
vt 0.426629 0.016578
vt 0.424799 0.161783
vt 0.689094 0.344722
vt 0.469054 0.325298
vt 0.475625 0.593267
vt 0.477081 0.666658
vt 0.525906 0.663359
vt 0.579160 0.326900
vt 0.262156 0.669826
vn -0.9951 0.0443 -0.0884
vn -0.0538 -0.2310 -0.9715
vn 0.9893 0.0366 0.1410
vn 0.1512 -0.1151 0.9818
vn 0.3467 0.3213 -0.8812
vn 0.1820 0.9745 0.1310
vn 0.0632 0.9902 -0.1247
vn 0.1969 0.9655 0.1706
vn 0.0647 0.9961 0.0598
vn -0.0694 0.0944 -0.9931
vn 0.9760 -0.1357 -0.1701
vn 0.9767 0.2144 0.0070
vn -0.2450 0.0571 0.9678
vn 0.0891 -0.0032 0.9960
vn -0.1261 -0.0130 0.9919
vn 0.9551 0.0993 0.2792
vn 0.9663 -0.1536 -0.2067
vn 0.8959 0.3189 0.3093
vn 0.0774 -0.0629 -0.9950
vn -0.1908 -0.2908 -0.9376
vn -0.0673 -0.0205 -0.9975
vn -0.8861 0.3010 -0.3523
vn -0.9722 -0.1255 -0.1975
vn -0.9787 0.0996 -0.1793
vn -0.9958 -0.0920 -0.0035
vn -0.9958 -0.0894 0.0171
vn -0.9276 0.3548 -0.1169
vn -0.9965 -0.0529 -0.0642
vn -0.9978 -0.0522 0.0402
vn -0.9995 0.0270 0.0167
vn -0.9589 -0.1877 -0.2128
vn -0.9809 -0.1437 0.1314
vn -0.8672 0.3991 0.2976
vn 0.3985 -0.4184 -0.8162
vn -0.1879 -0.0091 -0.9821
vn -0.0784 -0.2543 -0.9639
vn -0.0160 -0.1135 -0.9934
vn -0.2056 -0.1132 -0.9721
vn 0.0906 -0.0564 -0.9943
vn -0.2419 -0.2318 -0.9422
vn 0.0837 -0.2174 -0.9725
vn -0.0198 0.0955 -0.9952
vn 0.9984 0.0492 0.0281
vn 0.9638 -0.1875 -0.1898
vn 0.9288 0.2963 0.2225
vn 0.9812 -0.1750 0.0807
vn 0.9222 -0.2789 -0.2678
vn 0.9780 -0.1425 0.1523
vn 0.9311 -0.1995 0.3053
vn 0.9829 -0.1810 -0.0333
vn 0.9739 0.1999 -0.1076
vn -0.1233 0.1224 0.9848
vn 0.0195 0.1117 0.9936
vn -0.1265 -0.0129 0.9919
vn -0.1036 -0.1071 0.9888
vn 0.2423 -0.0430 0.9693
vn 0.2032 -0.0136 0.9790
vn -0.0204 -0.1806 0.9833
vn 0.0730 -0.3345 0.9396
vn -0.0003 0.1801 0.9836
vn 0.9909 -0.1130 0.0732
vn 0.1202 -0.3064 0.9443
vn -0.1011 0.1883 0.9769
vn -0.0565 0.1982 0.9785
vn 0.0241 0.9936 0.1108
vn 0.2031 0.9630 0.1769
vn -0.0496 0.9983 0.0290
vn 0.2260 0.9679 0.1096
vn 0.3058 -0.3414 0.8888
vn -0.0553 0.9732 0.2232
vn -0.2366 0.9268 -0.2917
vn -0.0572 0.9983 0.0067
vn -0.0756 0.9899 0.1202
vn -0.0329 0.9994 0.0114
vn 0.2351 0.9672 -0.0957
vn -0.1306 0.9422 -0.3086
vn 0.0889 0.9941 -0.0622
vn 0.3167 0.9079 -0.2745
vn -0.0538 0.9982 0.0277
vn -0.1031 0.9944 -0.0215
vn -0.0305 0.9963 -0.0800
vn 0.9873 0.0510 0.1505
vn -0.1801 -0.1177 -0.9766
vn -0.9799 -0.1536 0.1275
vn -0.0549 0.1014 0.9933
vn 0.0252 0.0998 0.9947
vn 0.0862 -0.3234 0.9423
vn 0.9817 0.1850 0.0449
vn 0.9680 0.2123 -0.1340
vn 0.9800 -0.1561 -0.1233
vn -0.0527 0.3280 -0.9432
vn -0.3796 0.3033 -0.8740
vn 0.5107 0.0047 -0.8598
vn -0.9886 -0.0209 0.1494
vn -0.9738 -0.1965 -0.1140
vn -0.9902 0.0625 0.1246
vn 0.2782 0.2779 -0.9195
vn -0.9839 -0.1123 0.1391
vn -0.9994 0.0197 0.0273
vn -0.9396 0.3243 0.1090
vn -0.9811 0.0760 -0.1779
vn -0.9827 -0.1664 -0.0819
vn -0.9560 0.2866 -0.0627
vn -0.9796 0.0549 -0.1935
vn -0.9994 -0.0285 0.0170
vn -0.9999 -0.0041 -0.0119
vn -0.9325 -0.0725 -0.3539
vn -0.9345 0.1398 0.3273
vn -0.9831 -0.1341 -0.1249
vn -0.0549 0.0333 -0.9979
vn -0.1685 0.0121 -0.9856
vn 0.0412 -0.0733 -0.9965
vn -0.2186 0.0837 -0.9722
vn 0.0659 0.1304 -0.9893
vn -0.1847 -0.2930 -0.9381
vn 0.0865 -0.0326 -0.9957
vn -0.0280 -0.1128 -0.9932
vn -0.3416 0.4428 -0.8290
vn 0.9088 0.2656 0.3217
vn 0.9869 0.0146 0.1606
vn 0.9247 0.3405 0.1702
vn 0.9448 0.2432 -0.2196
vn 0.9804 0.1864 0.0637
vn 0.9778 0.1574 -0.1385
vn 0.9483 -0.1658 0.2708
vn 0.9651 -0.2426 -0.0984
vn 0.9757 0.1749 -0.1319
vn -0.0932 0.0860 0.9919
vn -0.1187 -0.0468 0.9918
vn -0.1424 -0.0235 0.9895
vn 0.0861 -0.3366 0.9377
vn 0.2116 -0.0727 0.9747
vn 0.0805 -0.1960 0.9773
vn -0.2374 -0.0459 0.9703
vn -0.0500 -0.1903 0.9805
vn 0.0132 0.1918 0.9814
vn -0.2660 0.9604 0.0833
vn 0.0529 0.9984 0.0177
vn 0.0433 0.9927 -0.1130
vn 0.0756 0.9780 0.1945
vn 0.0308 0.9968 -0.0742
vn 0.0917 0.9592 -0.2674
vn 0.1191 0.9842 -0.1309
vn -0.0432 0.9411 -0.3354
vn 0.1205 0.9924 -0.0252
vn -0.1221 0.9898 0.0731
vn -0.0279 0.9965 -0.0794
vn 0.2829 0.7838 -0.5528
vn 0.1529 -0.1059 0.9826
vn -0.0057 0.0661 0.9978
vn -0.1141 -0.1747 0.9780
vn 0.9653 0.2395 0.1036
vn 0.9688 0.2025 -0.1429
vn 0.9984 0.0310 0.0481
vn -0.1347 0.2603 -0.9561
vn 0.4577 -0.4009 -0.7936
vn 0.1754 0.2712 -0.9464
vn -0.9748 -0.2014 -0.0954
vn -0.9911 0.0417 0.1263
vn -0.9944 0.0355 0.0991
usemtl RockWall
s off
f 28/1/1 41/2/1 89/3/1
f 88/4/2 8/5/2 44/6/2
f 34/7/3 47/8/3 87/9/3
f 37/10/4 27/11/4 86/12/4
f 63/13/5 24/14/5 64/15/5
f 40/16/6 37/10/6 85/17/6
f 50/18/7 49/19/7 84/20/7
f 83/21/8 21/22/8 52/23/8
f 28/1/9 53/24/9 82/25/9
f 75/26/10 62/27/10 15/28/10
f 46/29/11 17/30/11 61/31/11
f 59/32/12 23/33/12 60/34/12
f 81/35/13 10/36/13 39/37/13
f 55/38/14 56/39/14 80/40/14
f 49/19/15 57/41/15 79/42/15
f 58/43/16 35/44/16 78/45/16
f 59/32/17 60/34/17 77/46/17
f 46/29/18 61/31/18 76/47/18
f 75/26/19 15/28/19 32/48/19
f 63/13/20 64/15/20 74/49/20
f 43/50/21 65/51/21 73/52/21
f 66/53/22 29/54/22 72/55/22
f 71/56/23 25/57/23 68/58/23
f 70/59/24 11/60/24 69/61/24
f 70/59/25 25/57/25 67/62/25
f 10/63/26 70/59/26 67/62/26
f 2/64/27 70/59/27 27/65/27
f 71/56/28 9/66/28 26/67/28
f 39/68/29 26/67/29 1/69/29
f 39/68/30 67/62/30 71/56/30
f 72/55/31 3/70/31 38/71/31
f 9/66/32 72/55/32 38/71/32
f 68/58/33 66/53/33 72/55/33
f 63/13/34 65/51/34 24/14/34
f 41/72/35 63/13/35 12/73/35
f 4/74/36 73/52/36 41/72/36
f 30/75/37 64/15/37 13/76/37
f 29/77/38 30/75/38 3/78/38
f 12/73/39 74/49/39 29/77/39
f 75/26/40 7/79/40 42/80/40
f 13/76/41 75/26/41 42/80/41
f 64/15/42 62/27/42 75/26/42
f 76/47/43 23/33/43 59/32/43
f 44/81/44 59/32/44 15/82/44
f 44/81/45 46/29/45 76/47/45
f 33/83/46 60/34/46 16/84/46
f 32/85/47 33/83/47 7/86/47
f 32/85/48 59/32/48 77/46/48
f 45/87/49 35/44/49 5/88/49
f 60/34/50 45/87/50 16/84/50
f 23/33/51 78/45/51 60/34/51
f 79/42/52 22/89/52 55/38/52
f 18/90/53 79/42/53 55/38/53
f 47/91/54 49/19/54 79/42/54
f 80/40/55 19/92/55 36/93/55
f 5/94/56 80/40/56 36/93/56
f 35/95/57 55/38/57 80/40/57
f 81/35/58 1/96/58 48/97/58
f 56/39/59 48/97/59 19/92/59
f 56/39/60 54/98/60 81/35/60
f 58/43/61 18/99/61 35/44/61
f 49/19/62 20/100/62 57/41/62
f 55/38/63 22/89/63 56/39/63
f 81/35/64 54/98/64 10/36/64
f 28/1/65 11/60/65 53/24/65
f 83/21/66 51/101/66 21/22/66
f 50/18/67 20/100/67 49/19/67
f 40/16/68 2/64/68 37/10/68
f 37/10/69 2/64/69 27/11/69
f 51/101/70 53/24/70 21/22/70
f 14/102/71 82/25/71 51/101/71
f 4/74/72 82/25/72 43/50/72
f 46/29/73 52/23/73 17/30/73
f 31/103/74 46/29/74 8/5/74
f 31/103/75 51/101/75 83/21/75
f 34/7/76 49/19/76 6/104/76
f 17/30/77 84/20/77 34/7/77
f 21/22/78 84/20/78 52/23/78
f 85/17/79 20/100/79 50/18/79
f 53/24/80 50/18/80 21/22/80
f 11/60/81 85/17/81 53/24/81
f 34/7/82 6/104/82 47/8/82
f 88/4/83 31/103/83 8/5/83
f 28/1/84 4/74/84 41/2/84
f 86/12/85 10/36/85 54/98/85
f 22/89/86 86/12/86 54/98/86
f 20/100/87 86/12/87 57/41/87
f 87/9/88 18/99/88 58/43/88
f 61/31/89 58/43/89 23/33/89
f 17/30/90 87/9/90 61/31/90
f 88/4/91 15/28/91 62/27/91
f 24/14/92 88/4/92 62/27/92
f 65/51/93 31/103/93 88/4/93
f 66/53/94 41/2/94 12/105/94
f 25/57/95 89/3/95 66/53/95
f 69/61/96 28/1/96 89/3/96
f 43/50/97 14/102/97 65/51/97
f 66/53/98 12/105/98 29/54/98
f 71/56/99 67/62/99 25/57/99
f 70/59/100 40/16/100 11/60/100
f 70/59/101 69/61/101 25/57/101
f 10/63/102 27/65/102 70/59/102
f 2/64/103 40/16/103 70/59/103
f 71/56/104 68/58/104 9/66/104
f 39/68/105 71/56/105 26/67/105
f 39/68/106 10/63/106 67/62/106
f 72/55/107 29/54/107 3/70/107
f 9/66/108 68/58/108 72/55/108
f 68/58/109 25/57/109 66/53/109
f 63/13/110 73/52/110 65/51/110
f 41/72/111 73/52/111 63/13/111
f 4/74/112 43/50/112 73/52/112
f 30/75/113 74/49/113 64/15/113
f 29/77/114 74/49/114 30/75/114
f 12/73/115 63/13/115 74/49/115
f 75/26/116 32/48/116 7/79/116
f 13/76/117 64/15/117 75/26/117
f 64/15/118 24/14/118 62/27/118
f 76/47/119 61/31/119 23/33/119
f 44/81/120 76/47/120 59/32/120
f 44/81/121 8/5/121 46/29/121
f 33/83/122 77/46/122 60/34/122
f 32/85/123 77/46/123 33/83/123
f 32/85/124 15/82/124 59/32/124
f 45/87/125 78/45/125 35/44/125
f 60/34/126 78/45/126 45/87/126
f 23/33/127 58/43/127 78/45/127
f 79/42/128 57/41/128 22/89/128
f 18/90/129 47/91/129 79/42/129
f 47/91/130 6/104/130 49/19/130
f 80/40/131 56/39/131 19/92/131
f 5/94/132 35/95/132 80/40/132
f 35/95/133 18/90/133 55/38/133
f 81/35/134 39/37/134 1/96/134
f 56/39/135 81/35/135 48/97/135
f 56/39/136 22/89/136 54/98/136
f 51/101/137 82/25/137 53/24/137
f 14/102/138 43/50/138 82/25/138
f 4/74/139 28/1/139 82/25/139
f 46/29/140 83/21/140 52/23/140
f 31/103/141 83/21/141 46/29/141
f 31/103/142 14/102/142 51/101/142
f 34/7/143 84/20/143 49/19/143
f 17/30/144 52/23/144 84/20/144
f 21/22/145 50/18/145 84/20/145
f 85/17/146 37/10/146 20/100/146
f 53/24/147 85/17/147 50/18/147
f 11/60/148 40/16/148 85/17/148
f 86/12/149 27/11/149 10/36/149
f 22/89/150 57/41/150 86/12/150
f 20/100/151 37/10/151 86/12/151
f 87/9/152 47/8/152 18/99/152
f 61/31/153 87/9/153 58/43/153
f 17/30/154 34/7/154 87/9/154
f 88/4/155 44/6/155 15/28/155
f 24/14/156 65/51/156 88/4/156
f 65/51/157 14/102/157 31/103/157
f 66/53/158 89/3/158 41/2/158
f 25/57/159 69/61/159 89/3/159
f 69/61/160 11/60/160 28/1/160
