# Blender v2.91.0 OBJ File: 'WallDisplayMesh.blend'
# www.blender.org
mtllib WallDisplayMesh2.mtl
o Cube
v -0.484668 -0.512656 0.485585
v -0.474144 0.494724 0.623968
v -0.432561 -0.552715 -0.430452
v -0.570313 0.462477 -0.590119
v 0.421161 -0.578156 0.438784
v 0.422137 0.554943 0.536874
v 0.440128 -0.614976 -0.518010
v 0.484384 0.476029 -0.512197
v -0.480136 -0.447157 0.023184
v -0.504339 -0.036453 0.476391
v -0.469180 0.456773 0.131485
v -0.493123 -0.041458 -0.497951
v -0.004962 -0.528116 -0.503651
v 0.013657 0.475899 -0.485590
v 0.474934 -0.055962 -0.554235
v 0.506513 -0.616167 0.069122
v 0.503558 0.415013 0.085420
v 0.550424 -0.007081 0.523335
v -0.067225 -0.497211 0.470910
v -0.063550 0.488508 0.564956
v 0.040367 0.492923 -0.052976
v -0.043479 -0.030250 0.476386
v 0.515825 -0.042527 -0.000456
v 0.073399 -0.026380 -0.425808
v -0.475537 -0.005719 0.041541
v -0.502832 -0.513520 0.252279
v -0.557716 0.275387 0.525434
v -0.540383 0.524651 -0.233175
v -0.470123 -0.273275 -0.479629
v -0.234571 -0.529361 -0.489605
v 0.210237 0.466549 -0.455060
v 0.514518 -0.344211 -0.491460
v 0.566133 -0.526132 -0.306829
v 0.516604 0.464473 0.238542
v 0.505115 -0.271627 0.475105
v 0.258240 -0.527546 0.492877
v -0.300604 0.449160 0.512058
v -0.532705 -0.560345 -0.212112
v -0.505319 -0.287843 0.515811
v -0.447373 0.523827 0.190654
v -0.474282 0.249176 -0.529336
v 0.278208 -0.595167 -0.462963
v -0.174379 0.452067 -0.528274
v 0.589058 0.271672 -0.485387
v 0.559075 -0.465601 0.275565
v 0.463832 0.491274 -0.275919
v 0.436280 0.272510 0.505925
v -0.270416 -0.478515 0.508117
v 0.310811 0.513685 0.503250
v 0.063202 0.508646 0.302151
v 0.002898 0.548689 -0.246410
v 0.279644 0.452083 0.032458
v -0.174698 0.437634 0.027346
v -0.226342 -0.031472 0.500218
v 0.232933 -0.076584 0.484303
v -0.007194 -0.277522 0.578654
v 0.057099 0.294047 0.475072
v 0.526422 -0.034690 0.239125
v 0.527613 -0.090026 -0.256778
v 0.556091 -0.279896 0.043704
v 0.454022 0.199591 -0.010491
v 0.281005 0.001862 -0.534230
v -0.195231 -0.047440 -0.552091
v 0.027963 -0.279561 -0.537366
v 0.075441 0.230972 -0.542150
v -0.485412 -0.062799 -0.306801
v -0.499136 -0.098379 0.292444
v -0.453857 -0.278970 -0.044633
v -0.486478 0.247929 0.016900
v -0.510749 0.250188 0.230617
v -0.489176 -0.293405 0.156526
v -0.551891 -0.311064 -0.227914
v -0.266253 0.297873 -0.546080
v -0.289613 -0.259328 -0.450145
v 0.240365 -0.243575 -0.535877
v 0.510238 0.194073 -0.219305
v 0.477185 -0.268824 -0.250914
v 0.567876 -0.216939 0.192169
v 0.236231 0.233196 0.510279
v 0.215316 -0.295982 0.509141
v -0.327550 -0.276886 0.574208
v -0.213857 0.487211 -0.281792
v 0.277962 0.492307 -0.262814
v 0.273665 0.463847 0.161045
v -0.267558 0.466552 0.246937
v -0.291920 0.228348 0.492494
v 0.498355 0.215869 0.261436
v 0.283709 0.219847 -0.395975
v -0.521767 0.221099 -0.210416
vt 0.778699 0.415642
vt 0.834180 0.337759
vt 0.837221 0.423557
vt 0.614843 0.251974
vt 0.559546 0.332952
vt 0.548922 0.264334
vt 0.561375 0.588440
vt 0.519474 0.666226
vt 0.514254 0.589034
vt 0.740416 0.680720
vt 0.790632 0.757557
vt 0.725408 0.763311
vt 0.711381 0.169697
vt 0.651236 0.183351
vt 0.661734 0.106080
vt 0.771463 0.567418
vt 0.728250 0.577097
vt 0.663848 0.600728
vt 0.601389 0.673763
vt 0.610730 0.555976
vt 0.617362 0.417470
vt 0.664688 0.488773
vt 0.605858 0.514166
vt 0.714385 0.502214
vt 0.717625 0.407510
vt 0.611371 0.101789
vt 0.611637 0.169960
vt 0.564653 0.165954
vt 0.568068 0.407030
vt 0.559677 0.520941
vt 0.512747 0.488987
vt 0.445654 0.420345
vt 0.454101 0.501314
vt 0.412293 0.510137
vt 0.739061 0.914456
vt 0.774372 0.846816
vt 0.773091 0.919135
vt 0.625197 0.857924
vt 0.673611 0.926726
vt 0.630489 0.927821
vt 0.659898 0.741698
vt 0.618178 0.764770
vt 0.456564 0.577580
vt 0.411106 0.644091
vt 0.413410 0.564543
vt 0.408811 0.423949
vt 0.505584 0.439858
vt 0.554408 0.075829
vt 0.726239 0.097465
vt 0.713708 0.327697
vt 0.664565 0.255977
vt 0.729874 0.269991
vt 0.894623 0.398941
vt 0.939094 0.334512
vt 0.942060 0.406520
vt 0.943712 0.541300
vt 0.886409 0.492937
vt 0.940055 0.479867
vt 0.833728 0.579211
vt 0.780414 0.526843
vt 0.833471 0.506223
vt 0.907734 0.584223
vt 0.897977 0.642475
vt 0.787488 0.688580
vt 0.834874 0.665269
vt 0.982456 0.487340
vt 0.994948 0.559012
vt 0.948139 0.641233
vt 0.997837 0.633601
vt 0.993202 0.337066
vt 0.997110 0.413538
vt 0.773487 0.244271
vt 0.768529 0.165272
vt 0.784058 0.319787
vt 0.716084 0.018976
vt 0.665568 0.018701
vt 0.760701 0.088886
vt 0.757895 0.010415
vt 0.569515 0.000619
vt 0.607752 -0.005084
vt 0.516268 0.351819
vt 0.451487 0.332507
vt 0.362505 0.411990
vt 0.344866 0.517011
vt 0.392230 0.345207
vt 0.340263 0.344497
vt 0.366100 0.579229
vt 0.349324 0.643987
vt 0.674862 0.831439
vt 0.564595 0.842319
vt 0.575562 0.755416
vt 0.681635 0.989581
vt 0.622280 0.997065
vt 0.582817 1.005686
vt 0.569903 0.916418
vt 0.770187 0.991045
vt 0.722754 0.987100
vt 0.724583 0.841895
vt 0.460289 0.658956
vt 0.680329 0.678381
vt 0.673758 0.410411
vt 0.672301 0.337020
vt 0.623476 0.340319
vt 0.570223 0.676778
vt 0.887226 0.333853
vn -0.9856 -0.0719 -0.1531
vn -0.2343 -0.2435 -0.9412
vn 0.9655 -0.0473 0.2561
vn 0.1080 -0.0835 0.9906
vn 0.3837 0.3138 -0.8685
vn 0.2744 0.9567 0.0970
vn 0.1055 0.9823 -0.1545
vn 0.1203 0.9837 0.1333
vn 0.1334 0.9811 0.1404
vn -0.0959 0.0226 -0.9951
vn 0.9767 -0.1616 -0.1415
vn 0.9854 0.1697 0.0139
vn -0.3169 0.1481 0.9368
vn 0.3034 0.0831 0.9492
vn -0.1695 0.0697 0.9831
vn 0.9576 0.1554 0.2425
vn 0.9275 -0.2701 -0.2585
vn 0.9482 0.1957 0.2501
vn 0.0844 -0.2010 -0.9760
vn -0.2699 -0.3172 -0.9091
vn 0.0304 0.0968 -0.9948
vn -0.9452 0.1633 -0.2825
vn -0.9844 -0.0231 -0.1745
vn -0.9832 0.1435 -0.1132
vn -0.9922 -0.0531 -0.1129
vn -0.9992 -0.0361 -0.0161
vn -0.8904 0.4191 -0.1777
vn -0.9955 0.0216 -0.0924
vn -0.9918 -0.1015 0.0776
vn -0.9988 -0.0199 -0.0446
vn -0.9035 -0.0960 -0.4177
vn -0.9678 -0.0590 0.2446
vn -0.8495 0.3523 0.3927
vn 0.4181 -0.3770 -0.8265
vn -0.1799 -0.0941 -0.9792
vn -0.0120 -0.2790 -0.9602
vn -0.0599 -0.1264 -0.9902
vn -0.2586 -0.2010 -0.9448
vn 0.1655 -0.0614 -0.9843
vn -0.3382 -0.2259 -0.9136
vn 0.0948 -0.1924 -0.9767
vn 0.0060 0.0057 -1.0000
vn 0.9978 0.0563 0.0354
vn 0.9377 -0.2849 -0.1987
vn 0.9199 0.2071 0.3329
vn 0.9830 -0.1356 0.1234
vn 0.8762 -0.1976 -0.4396
vn 0.9394 -0.2575 0.2265
vn 0.8199 -0.2835 0.4973
vn 0.9785 -0.1546 -0.1364
vn 0.9805 0.1407 -0.1375
vn -0.0424 -0.0830 0.9956
vn -0.1039 -0.0820 0.9912
vn 0.0178 0.0203 0.9996
vn -0.0749 -0.0837 0.9937
vn 0.3126 -0.0088 0.9498
vn 0.1075 0.1033 0.9888
vn -0.0479 -0.3233 0.9451
vn 0.1182 -0.4631 0.8784
vn -0.0127 0.2934 0.9559
vn 0.9854 -0.1564 -0.0680
vn 0.1750 -0.3216 0.9306
vn 0.0384 0.3867 0.9214
vn -0.0866 0.3201 0.9434
vn 0.1199 0.9800 0.1590
vn 0.2086 0.9497 0.2334
vn -0.0592 0.9971 0.0479
vn 0.3025 0.9496 0.0825
vn 0.3753 -0.4950 0.7836
vn -0.1317 0.9454 0.2981
vn -0.2163 0.9313 -0.2931
vn 0.0469 0.9899 -0.1336
vn 0.1157 0.9744 0.1929
vn -0.0487 0.9965 -0.0685
vn 0.1858 0.9631 -0.1945
vn -0.2313 0.9083 -0.3487
vn 0.0975 0.9446 -0.3134
vn 0.1955 0.9774 -0.0803
vn -0.1285 0.9916 0.0140
vn -0.2581 0.9658 -0.0262
vn 0.0215 0.9923 -0.1216
vn 0.9546 0.0152 0.2977
vn -0.1865 -0.2810 -0.9414
vn -0.9171 -0.3725 0.1418
vn -0.0855 0.0080 0.9963
vn 0.1286 0.0619 0.9898
vn 0.1136 -0.3579 0.9268
vn 0.9883 0.1192 -0.0950
vn 0.9682 0.2450 -0.0508
vn 0.9761 -0.1578 -0.1497
vn 0.0722 0.5336 -0.8427
vn -0.4564 0.4806 -0.7488
vn 0.5734 -0.0254 -0.8189
vn -0.9964 0.0698 0.0480
vn -0.9882 -0.1441 0.0516
vn -0.9861 -0.0486 0.1588
vn 0.1815 0.2645 -0.9472
vn -0.9949 -0.0964 0.0294
vn -0.9959 0.0115 -0.0894
vn -0.9675 0.2369 0.0881
vn -0.9922 -0.0537 -0.1121
vn -0.9790 -0.1450 -0.1436
vn -0.9746 0.2191 -0.0455
vn -0.9823 0.0864 -0.1663
vn -0.9981 0.0421 -0.0455
vn -0.9996 -0.0005 -0.0281
vn -0.9268 -0.1824 -0.3284
vn -0.8621 0.2995 0.4087
vn -0.9948 -0.0926 0.0434
vn 0.0155 0.0206 -0.9997
vn -0.0804 0.0008 -0.9968
vn 0.1549 0.0218 -0.9877
vn -0.2586 0.0879 -0.9620
vn 0.1458 0.1721 -0.9742
vn -0.1737 -0.3631 -0.9154
vn 0.1768 0.0478 -0.9831
vn 0.0304 -0.1383 -0.9899
vn -0.4637 0.4256 -0.7771
vn 0.9368 0.2493 0.2456
vn 0.9570 0.0204 0.2894
vn 0.8865 0.4603 0.0474
vn 0.9037 0.3621 -0.2284
vn 0.9472 0.3171 0.0476
vn 0.9817 0.0994 -0.1625
vn 0.9738 0.0406 0.2239
vn 0.9970 -0.0541 -0.0562
vn 0.9709 0.2339 -0.0506
vn -0.1736 0.0578 0.9831
vn 0.0088 0.0657 0.9978
vn -0.2469 -0.1178 0.9619
vn 0.2256 -0.4780 0.8489
vn 0.1278 -0.1512 0.9802
vn -0.0848 -0.1646 0.9827
vn -0.2998 -0.1541 0.9415
vn -0.0138 -0.3150 0.9490
vn 0.1162 0.3941 0.9117
vn -0.2963 0.9365 0.1877
vn -0.0896 0.9839 -0.1546
vn 0.0859 0.9803 -0.1780
vn 0.0150 0.9907 0.1349
vn -0.0038 0.9913 -0.1315
vn 0.0898 0.9539 -0.2863
vn 0.0449 0.9879 -0.1487
vn 0.1815 0.9800 -0.0812
vn 0.1727 0.9835 -0.0546
vn -0.1729 0.9840 0.0430
vn -0.0964 0.9807 -0.1699
vn 0.4023 0.5287 -0.7474
vn 0.0977 -0.1383 0.9856
vn 0.0521 -0.0121 0.9986
vn -0.2019 -0.0943 0.9749
vn 0.9131 0.3817 0.1434
vn 0.9781 0.1244 -0.1669
vn 0.9951 -0.0785 -0.0594
vn -0.3145 0.2989 -0.9010
vn 0.5245 -0.3542 -0.7742
vn 0.1603 0.2603 -0.9521
vn -0.9854 -0.0742 -0.1532
vn -0.9873 -0.0274 0.1565
vn -0.9820 -0.0217 0.1877
usemtl RockWall
s off
f 28/1/1 41/2/1 89/3/1
f 88/4/2 8/5/2 44/6/2
f 34/7/3 47/8/3 87/9/3
f 37/10/4 27/11/4 86/12/4
f 63/13/5 24/14/5 64/15/5
f 40/16/6 37/10/6 85/17/6
f 50/18/7 49/19/7 84/20/7
f 83/21/8 21/22/8 52/23/8
f 28/1/9 53/24/9 82/25/9
f 75/26/10 62/27/10 15/28/10
f 46/29/11 17/30/11 61/31/11
f 59/32/12 23/33/12 60/34/12
f 81/35/13 10/36/13 39/37/13
f 55/38/14 56/39/14 80/40/14
f 49/19/15 57/41/15 79/42/15
f 58/43/16 35/44/16 78/45/16
f 59/32/17 60/34/17 77/46/17
f 46/29/18 61/31/18 76/47/18
f 75/26/19 15/28/19 32/48/19
f 63/13/20 64/15/20 74/49/20
f 43/50/21 65/51/21 73/52/21
f 66/53/22 29/54/22 72/55/22
f 71/56/23 25/57/23 68/58/23
f 70/59/24 11/60/24 69/61/24
f 70/59/25 25/57/25 67/62/25
f 10/63/26 70/59/26 67/62/26
f 2/64/27 70/59/27 27/65/27
f 71/56/28 9/66/28 26/67/28
f 39/68/29 26/67/29 1/69/29
f 39/68/30 67/62/30 71/56/30
f 72/55/31 3/70/31 38/71/31
f 9/66/32 72/55/32 38/71/32
f 68/58/33 66/53/33 72/55/33
f 63/13/34 65/51/34 24/14/34
f 41/72/35 63/13/35 12/73/35
f 4/74/36 73/52/36 41/72/36
f 30/75/37 64/15/37 13/76/37
f 29/77/38 30/75/38 3/78/38
f 12/73/39 74/49/39 29/77/39
f 75/26/40 7/79/40 42/80/40
f 13/76/41 75/26/41 42/80/41
f 64/15/42 62/27/42 75/26/42
f 76/47/43 23/33/43 59/32/43
f 44/81/44 59/32/44 15/82/44
f 44/81/45 46/29/45 76/47/45
f 33/83/46 60/34/46 16/84/46
f 32/85/47 33/83/47 7/86/47
f 32/85/48 59/32/48 77/46/48
f 45/87/49 35/44/49 5/88/49
f 60/34/50 45/87/50 16/84/50
f 23/33/51 78/45/51 60/34/51
f 79/42/52 22/89/52 55/38/52
f 18/90/53 79/42/53 55/38/53
f 47/91/54 49/19/54 79/42/54
f 80/40/55 19/92/55 36/93/55
f 5/94/56 80/40/56 36/93/56
f 35/95/57 55/38/57 80/40/57
f 81/35/58 1/96/58 48/97/58
f 56/39/59 48/97/59 19/92/59
f 56/39/60 54/98/60 81/35/60
f 58/43/61 18/99/61 35/44/61
f 49/19/62 20/100/62 57/41/62
f 55/38/63 22/89/63 56/39/63
f 81/35/64 54/98/64 10/36/64
f 28/1/65 11/60/65 53/24/65
f 83/21/66 51/101/66 21/22/66
f 50/18/67 20/100/67 49/19/67
f 40/16/68 2/64/68 37/10/68
f 37/10/69 2/64/69 27/11/69
f 51/101/70 53/24/70 21/22/70
f 14/102/71 82/25/71 51/101/71
f 4/74/72 82/25/72 43/50/72
f 46/29/73 52/23/73 17/30/73
f 31/103/74 46/29/74 8/5/74
f 31/103/75 51/101/75 83/21/75
f 34/7/76 49/19/76 6/104/76
f 17/30/77 84/20/77 34/7/77
f 21/22/78 84/20/78 52/23/78
f 85/17/79 20/100/79 50/18/79
f 53/24/80 50/18/80 21/22/80
f 11/60/81 85/17/81 53/24/81
f 34/7/82 6/104/82 47/8/82
f 88/4/83 31/103/83 8/5/83
f 28/1/84 4/74/84 41/2/84
f 86/12/85 10/36/85 54/98/85
f 22/89/86 86/12/86 54/98/86
f 20/100/87 86/12/87 57/41/87
f 87/9/88 18/99/88 58/43/88
f 61/31/89 58/43/89 23/33/89
f 17/30/90 87/9/90 61/31/90
f 88/4/91 15/28/91 62/27/91
f 24/14/92 88/4/92 62/27/92
f 65/51/93 31/103/93 88/4/93
f 66/53/94 41/2/94 12/105/94
f 25/57/95 89/3/95 66/53/95
f 69/61/96 28/1/96 89/3/96
f 43/50/97 14/102/97 65/51/97
f 66/53/98 12/105/98 29/54/98
f 71/56/99 67/62/99 25/57/99
f 70/59/100 40/16/100 11/60/100
f 70/59/101 69/61/101 25/57/101
f 10/63/102 27/65/102 70/59/102
f 2/64/103 40/16/103 70/59/103
f 71/56/104 68/58/104 9/66/104
f 39/68/105 71/56/105 26/67/105
f 39/68/106 10/63/106 67/62/106
f 72/55/107 29/54/107 3/70/107
f 9/66/108 68/58/108 72/55/108
f 68/58/109 25/57/109 66/53/109
f 63/13/110 73/52/110 65/51/110
f 41/72/111 73/52/111 63/13/111
f 4/74/112 43/50/112 73/52/112
f 30/75/113 74/49/113 64/15/113
f 29/77/114 74/49/114 30/75/114
f 12/73/115 63/13/115 74/49/115
f 75/26/116 32/48/116 7/79/116
f 13/76/117 64/15/117 75/26/117
f 64/15/118 24/14/118 62/27/118
f 76/47/119 61/31/119 23/33/119
f 44/81/120 76/47/120 59/32/120
f 44/81/121 8/5/121 46/29/121
f 33/83/122 77/46/122 60/34/122
f 32/85/123 77/46/123 33/83/123
f 32/85/124 15/82/124 59/32/124
f 45/87/125 78/45/125 35/44/125
f 60/34/126 78/45/126 45/87/126
f 23/33/127 58/43/127 78/45/127
f 79/42/128 57/41/128 22/89/128
f 18/90/129 47/91/129 79/42/129
f 47/91/130 6/104/130 49/19/130
f 80/40/131 56/39/131 19/92/131
f 5/94/132 35/95/132 80/40/132
f 35/95/133 18/90/133 55/38/133
f 81/35/134 39/37/134 1/96/134
f 56/39/135 81/35/135 48/97/135
f 56/39/136 22/89/136 54/98/136
f 51/101/137 82/25/137 53/24/137
f 14/102/138 43/50/138 82/25/138
f 4/74/139 28/1/139 82/25/139
f 46/29/140 83/21/140 52/23/140
f 31/103/141 83/21/141 46/29/141
f 31/103/142 14/102/142 51/101/142
f 34/7/143 84/20/143 49/19/143
f 17/30/144 52/23/144 84/20/144
f 21/22/145 50/18/145 84/20/145
f 85/17/146 37/10/146 20/100/146
f 53/24/147 85/17/147 50/18/147
f 11/60/148 40/16/148 85/17/148
f 86/12/149 27/11/149 10/36/149
f 22/89/150 57/41/150 86/12/150
f 20/100/151 37/10/151 86/12/151
f 87/9/152 47/8/152 18/99/152
f 61/31/153 87/9/153 58/43/153
f 17/30/154 34/7/154 87/9/154
f 88/4/155 44/6/155 15/28/155
f 24/14/156 65/51/156 88/4/156
f 65/51/157 14/102/157 31/103/157
f 66/53/158 89/3/158 41/2/158
f 25/57/159 69/61/159 89/3/159
f 69/61/160 11/60/160 28/1/160
