# Blender v2.91.0 OBJ File: 'WallDisplayMesh.blend'
# www.blender.org
mtllib WallDisplayMesh3.mtl
o Cube_Cube.001
v -0.487835 -0.491462 0.491578
v -0.480818 0.513458 0.583833
v -0.453097 -0.518168 -0.452446
v -0.544932 0.491960 -0.558891
v 0.449385 -0.535128 0.460378
v 0.450035 0.553604 0.525771
v 0.462029 -0.559675 -0.510818
v 0.491533 0.500995 -0.506943
v -0.484813 -0.447796 0.016644
v -0.500949 -0.007327 0.485449
v -0.477509 0.488157 0.088845
v -0.493471 -0.010664 -0.497445
v -0.001364 -0.501769 -0.501246
v 0.011049 0.500908 -0.489205
v 0.485233 -0.020333 -0.534968
v 0.506286 -0.560469 0.047269
v 0.504316 0.460317 0.058135
v 0.535560 0.012255 0.516745
v -0.042873 -0.481165 0.481795
v -0.040423 0.509314 0.544492
v 0.028855 0.512257 -0.034129
v -0.063781 -0.068334 0.477796
v 0.491328 0.029380 -0.010730
v 0.023078 -0.031755 -0.493309
v -0.435224 0.014960 0.072629
v -0.505009 -0.487736 0.257009
v -0.497412 0.255811 0.500557
v -0.556094 0.547944 -0.223063
v -0.509420 -0.223858 -0.494862
v -0.212497 -0.510883 -0.480416
v 0.249593 0.501543 -0.497615
v 0.463356 -0.258759 -0.454470
v 0.535756 -0.564368 -0.262442
v 0.551171 0.531515 0.201175
v 0.493935 -0.275822 0.514737
v 0.261063 -0.483253 0.469520
v -0.244375 0.489543 0.509900
v -0.550500 -0.520149 -0.241109
v -0.504539 -0.274808 0.535224
v -0.500134 0.500024 0.249981
v -0.444390 0.299278 -0.557554
v 0.250829 -0.500000 -0.498777
v -0.219290 0.430296 -0.461793
v 0.563182 0.262383 -0.545595
v 0.560383 -0.459056 0.289193
v 0.531799 0.539391 -0.242249
v 0.450848 0.247042 0.471988
v -0.286228 -0.450548 0.521713
v 0.250614 0.522222 0.499043
v 0.063420 0.528037 0.255511
v 0.034408 0.520091 -0.198822
v 0.238610 0.564107 -0.020217
v -0.211745 0.445493 0.044349
v -0.190909 -0.009649 0.506953
v 0.251719 -0.006250 0.413352
v -0.005201 -0.192017 0.561197
v 0.002827 0.249387 0.512899
v 0.453727 0.006849 0.233032
v 0.497029 -0.001185 -0.251476
v 0.484989 -0.297996 0.029409
v 0.498323 0.218949 0.049838
v 0.308601 0.069817 -0.529595
v -0.197526 -0.012652 -0.500609
v 0.032015 -0.313971 -0.504258
v 0.066512 0.269565 -0.469218
v -0.542224 -0.009421 -0.283627
v -0.495380 -0.007584 0.232350
v -0.468552 -0.265651 -0.050004
v -0.485129 0.277888 -0.033454
v -0.454899 0.246652 0.194242
v -0.461384 -0.282625 0.211795
v -0.498531 -0.319124 -0.196948
v -0.216665 0.254318 -0.517848
v -0.240998 -0.240552 -0.464591
v 0.219616 -0.222675 -0.489722
v 0.494432 0.248371 -0.322589
v 0.450291 -0.251039 -0.252657
v 0.469995 -0.178823 0.214626
v 0.208802 0.261411 0.533933
v 0.258472 -0.231775 0.460766
v -0.234062 -0.279649 0.568772
v -0.245044 0.507158 -0.247803
v 0.335794 0.522936 -0.288361
v -0.240255 0.502954 0.245095
v 0.213996 0.470369 0.280541
v -0.332603 0.263402 0.541605
v 0.502625 0.214783 0.219837
v 0.315032 0.261428 -0.425084
v -0.488963 0.263204 -0.227017
vt 0.451997 0.760682
vt 0.510913 0.849055
vt 0.451997 0.849055
vt 0.687661 0.937429
vt 0.746577 0.849055
vt 0.746577 0.937429
vt 0.746577 0.583934
vt 0.805493 0.495560
vt 0.805493 0.583934
vt 0.569829 0.407186
vt 0.510913 0.495560
vt 0.510913 0.407186
vt 0.628745 0.583934
vt 0.687661 0.495560
vt 0.687661 0.583934
vt 0.510913 0.583934
vt 0.569829 0.495560
vt 0.569829 0.583934
vt 0.628745 0.760682
vt 0.687661 0.672308
vt 0.687661 0.760682
vt 0.569829 0.760682
vt 0.510913 0.672308
vt 0.569829 0.672308
vt 0.569829 0.230438
vt 0.510913 0.318812
vt 0.510913 0.230438
vt 0.687661 0.318812
vt 0.628745 0.230438
vt 0.687661 0.230438
vt 0.687661 0.407186
vt 0.628745 0.495560
vt 0.628745 0.407186
vt 0.923325 0.583934
vt 0.864409 0.495560
vt 0.923325 0.495560
vt 0.923325 0.760682
vt 0.864409 0.672308
vt 0.923325 0.672308
vt 0.805493 0.760682
vt 0.746577 0.672308
vt 0.805493 0.672308
vt 0.687661 1.114177
vt 0.746577 1.025803
vt 0.746577 1.114177
vt 0.569829 1.114177
vt 0.628745 1.025803
vt 0.628745 1.114177
vt 0.569829 0.849055
vt 0.628745 0.937429
vt 0.569829 0.937429
vt 0.393081 0.760682
vt 0.334166 0.849055
vt 0.334165 0.760682
vt 0.334165 0.583934
vt 0.393081 0.672308
vt 0.334165 0.672308
vt 0.451997 0.583934
vt 0.451997 0.672308
vt 0.393081 0.583934
vt 0.451997 0.495560
vt 0.393081 0.495560
vt 0.275250 0.672308
vt 0.275249 0.583934
vt 0.334166 0.495560
vt 0.275249 0.495560
vt 0.275250 0.849055
vt 0.275250 0.760681
vt 0.569829 1.025803
vt 0.510913 1.025803
vt 0.510913 0.937429
vt 0.569829 1.202551
vt 0.628745 1.202551
vt 0.510913 1.202551
vt 0.510913 1.114177
vt 0.687661 1.202551
vt 0.746577 1.202551
vt 0.864409 0.760682
vt 0.864409 0.849055
vt 0.805493 0.849055
vt 0.982241 0.760682
vt 0.982241 0.672308
vt 0.923325 0.849055
vt 0.982241 0.849055
vt 0.982241 0.583934
vt 0.982241 0.495560
vt 0.628745 0.318812
vt 0.746577 0.407186
vt 0.746577 0.318812
vt 0.628745 0.142064
vt 0.687661 0.142064
vt 0.746577 0.230438
vt 0.746577 0.142064
vt 0.569829 0.142064
vt 0.510913 0.142064
vt 0.628745 0.672308
vt 0.628745 0.849055
vt 0.510913 0.760682
vt 0.746577 0.760682
vt 0.687661 0.849055
vt 0.746577 0.495560
vt 0.569829 0.318812
vt 0.864409 0.583934
vt 0.687661 1.025803
vt 0.393081 0.849055
vn -0.8735 -0.4570 -0.1677
vn -0.4368 0.0145 -0.8994
vn 0.9670 -0.1355 0.2159
vn -0.2190 -0.2873 0.9325
vn 0.3833 0.8822 -0.2736
vn -0.0103 0.9987 0.0504
vn -0.0607 0.9831 -0.1729
vn 0.1856 0.9655 0.1826
vn -0.1178 0.1832 0.9760
vn 0.3750 0.2015 0.9049
vn -0.0928 -0.1353 0.9864
vn 0.9822 -0.1411 -0.1239
vn 0.9912 -0.0349 -0.1277
vn 0.9996 -0.0244 -0.0124
vn 0.0879 -0.3259 -0.9413
vn -0.1347 0.0342 -0.9903
vn 0.1455 0.3023 -0.9421
vn -0.9898 -0.1422 -0.0093
vn -0.9941 0.1032 0.0339
vn -0.9913 -0.0376 0.1264
vn -0.9358 0.0983 -0.3386
vn -0.9996 0.0147 -0.0220
vn -0.9805 -0.1461 -0.1317
vn -0.9791 0.1973 -0.0495
vn -0.9933 -0.0909 0.0713
vn -0.9912 -0.0113 -0.1320
vn -0.8644 0.3104 -0.3955
vn -0.9603 0.2073 0.1865
vn -0.9715 -0.0740 0.2251
vn 0.0276 -0.0624 -0.9977
vn -0.0111 -0.0652 -0.9978
vn 0.2209 0.2990 -0.9283
vn -0.0982 0.0015 -0.9952
vn -0.1167 0.0458 -0.9921
vn 0.1108 -0.0203 -0.9936
vn -0.0040 0.1841 -0.9829
vn 0.0099 -0.0178 -0.9998
vn 0.0576 0.0405 -0.9975
vn 0.9996 0.0165 0.0216
vn 0.9991 -0.0014 -0.0415
vn 0.9260 0.2295 0.2999
vn 0.9918 0.0868 0.0933
vn 0.9578 0.0488 -0.2834
vn 0.9804 -0.1837 0.0705
vn 0.8597 -0.2420 0.4499
vn 0.9682 0.0621 -0.2425
vn 0.9962 -0.0087 0.0863
vn 0.2267 -0.1538 0.9617
vn -0.3449 0.0542 0.9371
vn 0.2519 0.0885 0.9637
vn 0.0406 0.0352 0.9986
vn -0.0086 -0.2037 0.9790
vn -0.2189 0.0248 0.9754
vn -0.1041 -0.2041 0.9734
vn 0.1181 -0.2970 0.9476
vn -0.1624 0.4976 0.8520
vn -0.0542 0.9975 0.0456
vn -0.0351 0.9974 -0.0631
vn 0.0974 0.9403 -0.3260
vn 0.2808 0.9215 0.2683
vn -0.0511 0.9894 -0.1357
vn -0.0353 0.9956 -0.0872
vn -0.0834 0.9959 0.0345
vn -0.2733 0.9617 -0.0198
vn 0.1107 0.9595 -0.2589
vn -0.2065 0.9697 -0.1303
vn -0.2486 0.8971 -0.3651
vn 0.2957 0.9049 0.3062
vn -0.0695 -0.1610 0.9845
vn 0.1589 -0.1413 0.9771
vn 0.0891 0.1041 0.9906
vn 0.9208 0.2806 -0.2709
vn 0.9861 -0.0825 0.1445
vn 0.9994 -0.0239 -0.0259
vn -0.0434 -0.0256 -0.9987
vn -0.1609 0.1017 -0.9817
vn 0.1618 -0.2447 -0.9560
vn -0.9484 0.2305 -0.2176
vn -0.9546 -0.0637 0.2911
vn -0.9725 -0.2298 0.0367
vn -0.9733 -0.2295 0.0059
vn -0.0374 -0.2983 -0.9537
vn 0.9526 -0.0501 0.3002
vn 0.2999 0.0167 0.9538
vn -0.0362 0.9980 0.0517
vn 0.0866 0.9952 -0.0451
vn -0.2422 0.9695 0.0380
vn 0.1404 0.9783 0.1522
vn -0.0656 0.2326 0.9703
vn 0.0534 0.5756 0.8160
vn 0.1487 0.1077 0.9830
vn 0.9543 0.1111 -0.2774
vn 0.9818 -0.1839 0.0466
vn 0.9885 -0.1416 0.0532
vn -0.0857 -0.1089 -0.9903
vn 0.0188 -0.1596 -0.9870
vn -0.0854 -0.1061 -0.9907
vn -0.9725 0.0701 -0.2221
vn -0.9281 -0.0877 -0.3619
vn -0.9809 -0.1472 -0.1269
vn -0.9836 -0.1419 0.1111
vn -0.9809 0.1352 -0.1402
vn -0.9974 0.0462 0.0558
vn -0.9943 0.1011 0.0338
vn -0.9749 0.1777 -0.1344
vn -0.9924 -0.1210 -0.0217
vn -0.9812 -0.1914 -0.0253
vn -0.9788 0.1416 0.1482
vn -0.9574 -0.0123 0.2884
vn 0.1661 0.0548 -0.9846
vn 0.1279 -0.2083 -0.9697
vn 0.3091 0.1548 -0.9383
vn -0.1320 0.0441 -0.9903
vn 0.1037 -0.1224 -0.9870
vn -0.0116 -0.1539 -0.9880
vn 0.1501 0.0491 -0.9875
vn 0.0583 0.0391 -0.9975
vn -0.0873 -0.1084 -0.9903
vn 0.9994 -0.0327 -0.0130
vn 0.9304 -0.2463 0.2714
vn 0.9866 -0.0888 -0.1372
vn 0.9615 0.2646 -0.0742
vn 0.9638 0.2613 0.0524
vn 0.9941 -0.1028 -0.0344
vn 0.9494 0.3130 0.0254
vn 0.9543 0.2804 -0.1031
vn 0.9848 0.0706 0.1584
vn -0.0680 -0.4188 0.9055
vn 0.2091 -0.3736 0.9037
vn -0.1042 -0.1721 0.9795
vn 0.3024 -0.2888 0.9084
vn -0.2177 0.0317 0.9755
vn -0.3470 0.1830 0.9198
vn -0.1239 -0.2281 0.9657
vn 0.1383 -0.2790 0.9503
vn 0.2936 0.1685 0.9410
vn -0.1922 0.9555 0.2236
vn -0.3124 0.8815 -0.3542
vn 0.2277 0.9617 -0.1528
vn -0.0434 0.9850 -0.1670
vn -0.0016 0.9949 -0.1010
vn -0.0050 0.9978 -0.0655
vn -0.1045 0.9933 0.0487
vn -0.0693 0.9564 -0.2836
vn -0.0127 0.9971 -0.0752
vn -0.1246 0.9699 -0.2093
vn 0.2665 0.9138 0.3066
vn -0.2384 0.9709 -0.0244
vn -0.2391 -0.0525 0.9696
vn 0.0815 -0.0837 0.9931
vn -0.1519 -0.1441 0.9778
vn 0.9521 -0.2098 0.2224
vn 0.9726 -0.2306 -0.0303
vn 0.9588 -0.1608 -0.2341
vn -0.3914 0.4507 -0.8023
vn 0.1694 0.4675 -0.8676
vn -0.0348 -0.0943 -0.9949
vn -0.9841 0.1329 -0.1182
vn -0.9816 0.1907 0.0050
vn -0.9694 -0.0962 0.2258
usemtl RockWall
s off
f 89/1/1 4/2/1 41/3/1
f 88/4/2 8/5/2 44/6/2
f 34/7/3 47/8/3 87/9/3
f 86/10/4 2/11/4 27/12/4
f 50/13/5 49/14/5 85/15/5
f 40/16/6 37/17/6 84/18/6
f 51/19/7 52/20/7 83/21/7
f 82/22/8 11/23/8 53/24/8
f 81/25/9 10/26/9 39/27/9
f 55/28/10 56/29/10 80/30/10
f 79/31/11 20/32/11 57/33/11
f 78/34/12 18/35/12 35/36/12
f 77/37/13 23/38/13 60/39/13
f 76/40/14 17/41/14 61/42/14
f 75/43/15 15/44/15 32/45/15
f 74/46/16 24/47/16 64/48/16
f 43/49/17 65/50/17 73/51/17
f 66/52/18 29/53/18 72/54/18
f 71/55/19 25/56/19 68/57/19
f 70/58/20 11/23/20 69/59/20
f 70/58/21 25/56/21 67/60/21
f 27/61/22 67/60/22 10/62/22
f 27/61/23 40/16/23 70/58/23
f 71/55/24 9/63/24 26/64/24
f 39/65/25 26/64/25 1/66/25
f 10/62/26 71/55/26 39/65/26
f 72/54/27 3/67/27 38/68/27
f 9/63/28 72/54/28 38/68/28
f 68/57/29 66/52/29 72/54/29
f 73/51/30 24/47/30 63/69/30
f 12/70/31 73/51/31 63/69/31
f 41/71/32 43/49/32 73/51/32
f 30/72/33 64/48/33 13/73/33
f 3/74/34 74/46/34 30/72/34
f 12/70/35 74/46/35 29/75/35
f 42/76/36 32/45/36 7/77/36
f 64/48/37 42/76/37 13/73/37
f 24/47/38 75/43/38 64/48/38
f 76/40/39 23/38/39 59/78/39
f 15/79/40 76/40/40 59/78/40
f 8/5/41 76/40/41 44/80/41
f 33/81/42 60/39/42 16/82/42
f 32/83/43 33/81/43 7/84/43
f 32/83/44 59/78/44 77/37/44
f 45/85/45 35/36/45 5/86/45
f 60/39/46 45/85/46 16/82/46
f 23/38/47 78/34/47 60/39/47
f 55/28/48 57/33/48 22/87/48
f 47/88/49 55/28/49 18/89/49
f 47/88/50 49/14/50 79/31/50
f 80/30/51 19/90/51 36/91/51
f 35/92/52 36/91/52 5/93/52
f 18/89/53 80/30/53 35/92/53
f 48/94/54 39/27/54 1/95/54
f 19/90/55 81/25/55 48/94/55
f 22/87/56 81/25/56 56/29/56
f 82/22/57 21/96/57 51/19/57
f 14/97/58 82/22/58 51/19/58
f 43/49/59 28/98/59 82/22/59
f 46/99/60 52/20/60 17/41/60
f 8/5/61 83/21/61 46/99/61
f 31/100/62 51/19/62 83/21/62
f 84/18/63 20/32/63 50/13/63
f 53/24/64 50/13/64 21/96/64
f 11/23/65 84/18/65 53/24/65
f 85/15/66 6/101/66 34/7/66
f 17/41/67 85/15/67 34/7/67
f 52/20/68 50/13/68 85/15/68
f 86/10/69 10/26/69 54/102/69
f 57/33/70 54/102/70 22/87/70
f 57/33/71 37/17/71 86/10/71
f 58/103/72 47/8/72 18/35/72
f 61/42/73 58/103/73 23/38/73
f 17/41/74 87/9/74 61/42/74
f 62/104/75 44/6/75 15/44/75
f 65/50/76 62/104/76 24/47/76
f 65/50/77 31/100/77 88/4/77
f 89/1/78 12/105/78 66/52/78
f 69/59/79 66/52/79 25/56/79
f 69/59/80 28/98/80 89/1/80
f 89/1/81 28/98/81 4/2/81
f 88/4/82 31/100/82 8/5/82
f 34/7/83 6/101/83 47/8/83
f 86/10/84 37/17/84 2/11/84
f 50/13/85 20/32/85 49/14/85
f 40/16/86 2/11/86 37/17/86
f 51/19/87 21/96/87 52/20/87
f 82/22/88 28/98/88 11/23/88
f 81/25/89 54/102/89 10/26/89
f 55/28/90 22/87/90 56/29/90
f 79/31/91 49/14/91 20/32/91
f 78/34/92 58/103/92 18/35/92
f 77/37/93 59/78/93 23/38/93
f 76/40/94 46/99/94 17/41/94
f 75/43/95 62/104/95 15/44/95
f 74/46/96 63/69/96 24/47/96
f 43/49/97 14/97/97 65/50/97
f 66/52/98 12/105/98 29/53/98
f 71/55/99 67/60/99 25/56/99
f 70/58/100 40/16/100 11/23/100
f 70/58/101 69/59/101 25/56/101
f 27/61/102 70/58/102 67/60/102
f 27/61/103 2/11/103 40/16/103
f 71/55/104 68/57/104 9/63/104
f 39/65/105 71/55/105 26/64/105
f 10/62/106 67/60/106 71/55/106
f 72/54/107 29/53/107 3/67/107
f 9/63/108 68/57/108 72/54/108
f 68/57/109 25/56/109 66/52/109
f 73/51/110 65/50/110 24/47/110
f 12/70/111 41/71/111 73/51/111
f 41/71/112 4/2/112 43/49/112
f 30/72/113 74/46/113 64/48/113
f 3/74/114 29/75/114 74/46/114
f 12/70/115 63/69/115 74/46/115
f 42/76/116 75/43/116 32/45/116
f 64/48/117 75/43/117 42/76/117
f 24/47/118 62/104/118 75/43/118
f 76/40/119 61/42/119 23/38/119
f 15/79/120 44/80/120 76/40/120
f 8/5/121 46/99/121 76/40/121
f 33/81/122 77/37/122 60/39/122
f 32/83/123 77/37/123 33/81/123
f 32/83/124 15/79/124 59/78/124
f 45/85/125 78/34/125 35/36/125
f 60/39/126 78/34/126 45/85/126
f 23/38/127 58/103/127 78/34/127
f 55/28/128 79/31/128 57/33/128
f 47/88/129 79/31/129 55/28/129
f 47/88/130 6/101/130 49/14/130
f 80/30/131 56/29/131 19/90/131
f 35/92/132 80/30/132 36/91/132
f 18/89/133 55/28/133 80/30/133
f 48/94/134 81/25/134 39/27/134
f 19/90/135 56/29/135 81/25/135
f 22/87/136 54/102/136 81/25/136
f 82/22/137 53/24/137 21/96/137
f 14/97/138 43/49/138 82/22/138
f 43/49/139 4/2/139 28/98/139
f 46/99/140 83/21/140 52/20/140
f 8/5/141 31/100/141 83/21/141
f 31/100/142 14/97/142 51/19/142
f 84/18/143 37/17/143 20/32/143
f 53/24/144 84/18/144 50/13/144
f 11/23/145 40/16/145 84/18/145
f 85/15/146 49/14/146 6/101/146
f 17/41/147 52/20/147 85/15/147
f 52/20/148 21/96/148 50/13/148
f 86/10/149 27/12/149 10/26/149
f 57/33/150 86/10/150 54/102/150
f 57/33/151 20/32/151 37/17/151
f 58/103/152 87/9/152 47/8/152
f 61/42/153 87/9/153 58/103/153
f 17/41/154 34/7/154 87/9/154
f 62/104/155 88/4/155 44/6/155
f 65/50/156 88/4/156 62/104/156
f 65/50/157 14/97/157 31/100/157
f 89/1/158 41/3/158 12/105/158
f 69/59/159 89/1/159 66/52/159
f 69/59/160 11/23/160 28/98/160
