# Blender v2.91.0 OBJ File: 'WallDisplayMesh.blend'
# www.blender.org
mtllib WallDisplayMesh0.mtl
o Cube_Cube.001
v -0.490876 -0.493596 0.493684
v -0.485614 0.510094 0.562875
v -0.464823 -0.513626 -0.464335
v -0.533699 0.493970 -0.544168
v 0.462038 -0.526346 0.470283
v 0.462526 0.540203 0.519328
v 0.471522 -0.544756 -0.508114
v 0.493650 0.500746 -0.505207
v -0.488610 -0.460847 0.012483
v -0.500711 -0.005495 0.489087
v -0.483132 0.491118 0.066634
v -0.495103 -0.007998 -0.498084
v -0.001023 -0.501327 -0.500934
v 0.008287 0.500681 -0.491904
v 0.488925 -0.015250 -0.526226
v 0.504715 -0.545352 0.035452
v 0.503237 0.470238 0.043601
v 0.526670 0.009191 0.512559
v -0.032155 -0.485874 0.486346
v -0.030317 0.506986 0.533369
v 0.021641 0.509193 -0.025597
v -0.047836 -0.051251 0.483347
v 0.493496 0.022035 -0.008048
v 0.017308 -0.023816 -0.494982
v -0.451418 0.011220 0.054472
v -0.503756 -0.490802 0.255257
v -0.498059 0.254359 0.500418
v -0.542070 0.535958 -0.229797
v -0.507065 -0.230393 -0.496146
v -0.221873 -0.508162 -0.485312
v 0.249695 0.501157 -0.498211
v 0.472517 -0.256570 -0.465853
v 0.526817 -0.548276 -0.259331
v 0.538379 0.523636 0.213381
v 0.495451 -0.269367 0.511053
v 0.258297 -0.487439 0.477140
v -0.245781 0.492157 0.507425
v -0.537875 -0.515111 -0.243332
v -0.503404 -0.268606 0.526418
v -0.500100 0.500018 0.249986
v -0.458292 0.286959 -0.543166
v 0.250622 -0.500000 -0.499082
v -0.226968 0.447722 -0.471344
v 0.547386 0.259287 -0.534196
v 0.545287 -0.469292 0.279395
v 0.523850 0.529543 -0.244187
v 0.463136 0.247781 0.478991
v -0.277171 -0.462911 0.516285
v 0.250461 0.516667 0.499282
v 0.047565 0.521027 0.254133
v 0.025806 0.515068 -0.211616
v 0.241457 0.548080 -0.015162
v -0.221309 0.459119 0.033262
v -0.205682 -0.007237 0.505215
v 0.251289 -0.004687 0.435014
v -0.003901 -0.206513 0.545898
v 0.002120 0.249540 0.509674
v 0.465296 0.005137 0.237274
v 0.497772 -0.000889 -0.251107
v 0.488742 -0.285997 0.022057
v 0.498742 0.226712 0.037379
v 0.293951 0.052363 -0.522196
v -0.210645 -0.009489 -0.500456
v 0.024011 -0.297978 -0.503194
v 0.049884 0.264674 -0.476914
v -0.531668 -0.007066 -0.275220
v -0.496535 -0.005688 0.236763
v -0.476414 -0.261738 -0.037503
v -0.488847 0.270916 -0.025091
v -0.466174 0.247489 0.208181
v -0.471038 -0.274469 0.221346
v -0.498898 -0.301843 -0.210211
v -0.224999 0.253239 -0.513386
v -0.243249 -0.242914 -0.473443
v 0.227212 -0.229506 -0.492291
v 0.495824 0.248778 -0.304441
v 0.462718 -0.250779 -0.251993
v 0.477496 -0.196617 0.223470
v 0.219102 0.258558 0.525450
v 0.256354 -0.236331 0.470575
v -0.238046 -0.272237 0.551579
v -0.246283 0.505369 -0.248352
v 0.314346 0.517202 -0.278771
v -0.242691 0.502215 0.246321
v 0.222997 0.477776 0.272905
v -0.311952 0.260051 0.531204
v 0.501969 0.223587 0.227378
v 0.298774 0.258571 -0.443813
v -0.491722 0.259903 -0.232763
vt -0.056721 0.262220
vt 0.002195 0.350594
vt -0.056721 0.350594
vt 0.178943 0.438968
vt 0.237859 0.350594
vt 0.237859 0.438968
vt 0.237859 0.085472
vt 0.296775 -0.002902
vt 0.296775 0.085472
vt 0.061111 -0.091276
vt 0.002195 -0.002902
vt 0.002195 -0.091276
vt 0.120027 0.085472
vt 0.178943 -0.002902
vt 0.178943 0.085472
vt 0.002195 0.085472
vt 0.061111 -0.002902
vt 0.061111 0.085472
vt 0.120027 0.262220
vt 0.178943 0.173846
vt 0.178943 0.262220
vt 0.061111 0.262220
vt 0.002195 0.173846
vt 0.061111 0.173846
vt 0.061111 -0.268023
vt 0.002195 -0.179650
vt 0.002195 -0.268023
vt 0.178943 -0.179650
vt 0.120027 -0.268023
vt 0.178943 -0.268023
vt 0.178943 -0.091276
vt 0.120027 -0.002902
vt 0.120027 -0.091276
vt 0.414607 0.085472
vt 0.355691 -0.002902
vt 0.414607 -0.002902
vt 0.414607 0.262220
vt 0.355691 0.173846
vt 0.414607 0.173846
vt 0.296775 0.262220
vt 0.237859 0.173846
vt 0.296775 0.173846
vt 0.178943 0.615716
vt 0.237859 0.527342
vt 0.237859 0.615716
vt 0.061111 0.615716
vt 0.120027 0.527342
vt 0.120027 0.615716
vt 0.061111 0.350594
vt 0.120027 0.438968
vt 0.061111 0.438968
vt -0.115636 0.262220
vt -0.174552 0.350594
vt -0.174552 0.262220
vt -0.174552 0.085472
vt -0.115637 0.173846
vt -0.174552 0.173846
vt -0.056721 0.085472
vt -0.056721 0.173846
vt -0.115637 0.085472
vt -0.056721 -0.002902
vt -0.115636 -0.002902
vt -0.233468 0.173846
vt -0.233468 0.085472
vt -0.174552 -0.002902
vt -0.233468 -0.002902
vt -0.233468 0.350594
vt -0.233468 0.262220
vt 0.061111 0.527342
vt 0.002195 0.527342
vt 0.002195 0.438968
vt 0.061111 0.704090
vt 0.120027 0.704090
vt 0.002195 0.704090
vt 0.002195 0.615716
vt 0.178943 0.704090
vt 0.237859 0.704090
vt 0.355691 0.262220
vt 0.355691 0.350594
vt 0.296775 0.350594
vt 0.473523 0.262220
vt 0.473523 0.173846
vt 0.414607 0.350594
vt 0.473523 0.350594
vt 0.473523 0.085472
vt 0.473523 -0.002902
vt 0.120027 -0.179650
vt 0.237859 -0.091276
vt 0.237859 -0.179649
vt 0.120027 -0.356397
vt 0.178943 -0.356397
vt 0.237859 -0.268023
vt 0.237859 -0.356397
vt 0.061111 -0.356397
vt 0.002195 -0.356397
vt 0.120027 0.173846
vt 0.120027 0.350594
vt 0.002195 0.262220
vt 0.237859 0.262220
vt 0.178943 0.350594
vt 0.237859 -0.002902
vt 0.061111 -0.179650
vt 0.355691 0.085472
vt 0.178943 0.527342
vt -0.115637 0.350594
vn -0.9314 -0.3399 -0.1299
vn -0.3415 0.0367 -0.9392
vn 0.9805 -0.1114 0.1620
vn -0.1521 -0.2275 0.9618
vn 0.2543 0.9475 -0.1936
vn -0.0080 0.9992 0.0384
vn -0.0367 0.9913 -0.1263
vn 0.1386 0.9792 0.1485
vn -0.0915 0.1408 0.9858
vn 0.2908 0.1514 0.9447
vn -0.0680 -0.0999 0.9927
vn 0.9898 -0.1104 -0.0897
vn 0.9949 -0.0249 -0.0977
vn 0.9998 -0.0182 -0.0097
vn 0.0769 -0.2469 -0.9660
vn -0.1051 0.0272 -0.9941
vn 0.1199 0.2109 -0.9701
vn -0.9939 -0.1103 0.0008
vn -0.9963 0.0829 0.0248
vn -0.9953 -0.0139 0.0953
vn -0.9687 0.0900 -0.2314
vn -0.9998 0.0109 -0.0166
vn -0.9878 -0.1153 -0.1051
vn -0.9888 0.1426 -0.0441
vn -0.9966 -0.0632 0.0531
vn -0.9944 -0.0048 -0.1054
vn -0.9273 0.2169 -0.3051
vn -0.9758 0.1542 0.1552
vn -0.9862 -0.0774 0.1464
vn 0.0210 -0.0480 -0.9986
vn -0.0086 -0.0496 -0.9987
vn 0.1536 0.2103 -0.9655
vn -0.0705 -0.0024 -0.9975
vn -0.0868 0.0376 -0.9955
vn 0.0851 -0.0133 -0.9963
vn -0.0110 0.1451 -0.9894
vn 0.0074 -0.0120 -0.9999
vn 0.0431 0.0310 -0.9986
vn 0.9998 0.0113 0.0165
vn 0.9995 0.0009 -0.0322
vn 0.9568 0.1861 0.2232
vn 0.9951 0.0651 0.0740
vn 0.9759 0.0284 -0.2165
vn 0.9891 -0.1389 0.0491
vn 0.9206 -0.1751 0.3491
vn 0.9824 0.0512 -0.1794
vn 0.9982 -0.0095 0.0600
vn 0.1758 -0.1148 0.9777
vn -0.2734 0.0622 0.9599
vn 0.1897 0.0762 0.9789
vn 0.0318 0.0264 0.9991
vn 0.0032 -0.1571 0.9876
vn -0.1651 0.0132 0.9862
vn -0.0830 -0.1480 0.9855
vn 0.1002 -0.2009 0.9745
vn -0.0767 0.3538 0.9322
vn -0.0397 0.9987 0.0307
vn -0.0289 0.9984 -0.0494
vn 0.0847 0.9664 -0.2425
vn 0.2344 0.9487 0.2123
vn -0.0412 0.9936 -0.1049
vn -0.0228 0.9975 -0.0662
vn -0.0655 0.9973 0.0319
vn -0.2070 0.9781 -0.0222
vn 0.0955 0.9775 -0.1881
vn -0.1604 0.9827 -0.0930
vn -0.1867 0.9476 -0.2594
vn 0.2074 0.9472 0.2445
vn -0.0549 -0.1182 0.9915
vn 0.1078 -0.1044 0.9887
vn 0.0709 0.0816 0.9941
vn 0.9508 0.2229 -0.2153
vn 0.9926 -0.0500 0.1107
vn 0.9997 -0.0180 -0.0173
vn -0.0286 -0.0229 -0.9993
vn -0.1182 0.0754 -0.9901
vn 0.1247 -0.1930 -0.9732
vn -0.9722 0.1709 -0.1602
vn -0.9686 -0.0662 0.2395
vn -0.9835 -0.1796 0.0231
vn -0.9838 -0.1794 -0.0022
vn -0.0283 -0.2242 -0.9741
vn 0.9697 -0.0314 0.2421
vn 0.2276 0.0348 0.9731
vn -0.0293 0.9987 0.0420
vn 0.0664 0.9972 -0.0352
vn -0.1754 0.9841 0.0272
vn 0.1099 0.9858 0.1273
vn -0.0527 0.1783 0.9826
vn 0.0867 0.3933 0.9153
vn 0.1171 0.0861 0.9894
vn 0.9731 0.0738 -0.2180
vn 0.9898 -0.1390 0.0305
vn 0.9928 -0.1095 0.0485
vn -0.0528 -0.0930 -0.9943
vn 0.0165 -0.1172 -0.9930
vn -0.0699 -0.0755 -0.9947
vn -0.9855 0.0516 -0.1619
vn -0.9661 -0.0775 -0.2463
vn -0.9892 -0.1187 -0.0858
vn -0.9896 -0.1167 0.0845
vn -0.9882 0.1061 -0.1103
vn -0.9983 0.0376 0.0450
vn -0.9975 0.0671 0.0240
vn -0.9854 0.1322 -0.1071
vn -0.9955 -0.0935 -0.0164
vn -0.9889 -0.1485 -0.0089
vn -0.9902 0.0879 0.1085
vn -0.9717 0.0095 0.2360
vn 0.1294 0.0474 -0.9905
vn 0.1018 -0.1627 -0.9814
vn 0.2421 0.0835 -0.9667
vn -0.1032 0.0362 -0.9940
vn 0.0806 -0.0994 -0.9918
vn -0.0089 -0.1137 -0.9935
vn 0.1109 0.0345 -0.9932
vn 0.0439 0.0289 -0.9986
vn -0.0735 -0.0880 -0.9934
vn 0.9997 -0.0234 -0.0100
vn 0.9583 -0.1981 0.2060
vn 0.9914 -0.0761 -0.1063
vn 0.9751 0.2117 -0.0654
vn 0.9770 0.2095 0.0391
vn 0.9968 -0.0748 -0.0281
vn 0.9704 0.2414 0.0005
vn 0.9716 0.2316 -0.0485
vn 0.9917 0.0519 0.1176
vn -0.0548 -0.3304 0.9423
vn 0.1654 -0.3023 0.9388
vn -0.0782 -0.1364 0.9876
vn 0.2469 -0.2259 0.9424
vn -0.1636 0.0245 0.9862
vn -0.2749 0.1400 0.9512
vn -0.0953 -0.1622 0.9821
vn 0.0842 -0.2159 0.9728
vn 0.1763 0.1487 0.9730
vn -0.1583 0.9720 0.1737
vn -0.2337 0.9363 -0.2623
vn 0.1770 0.9762 -0.1257
vn -0.0375 0.9913 -0.1265
vn -0.0004 0.9973 -0.0728
vn -0.0033 0.9987 -0.0511
vn -0.0731 0.9966 0.0375
vn -0.0579 0.9774 -0.2035
vn -0.0092 0.9987 -0.0493
vn -0.0942 0.9830 -0.1574
vn 0.2255 0.9430 0.2446
vn -0.1730 0.9846 -0.0256
vn -0.1618 -0.0413 0.9860
vn 0.0659 -0.0706 0.9953
vn -0.1118 -0.1050 0.9882
vn 0.9738 -0.1560 0.1653
vn 0.9859 -0.1664 -0.0195
vn 0.9785 -0.1263 -0.1628
vn -0.3218 0.3430 -0.8825
vn 0.1319 0.3495 -0.9276
vn -0.0259 -0.0679 -0.9974
vn -0.9893 0.1086 -0.0971
vn -0.9891 0.1471 0.0059
vn -0.9809 -0.0525 0.1871
usemtl RockWall
s off
f 89/1/1 4/2/1 41/3/1
f 88/4/2 8/5/2 44/6/2
f 34/7/3 47/8/3 87/9/3
f 86/10/4 2/11/4 27/12/4
f 50/13/5 49/14/5 85/15/5
f 40/16/6 37/17/6 84/18/6
f 51/19/7 52/20/7 83/21/7
f 82/22/8 11/23/8 53/24/8
f 81/25/9 10/26/9 39/27/9
f 55/28/10 56/29/10 80/30/10
f 79/31/11 20/32/11 57/33/11
f 78/34/12 18/35/12 35/36/12
f 77/37/13 23/38/13 60/39/13
f 76/40/14 17/41/14 61/42/14
f 75/43/15 15/44/15 32/45/15
f 74/46/16 24/47/16 64/48/16
f 43/49/17 65/50/17 73/51/17
f 66/52/18 29/53/18 72/54/18
f 71/55/19 25/56/19 68/57/19
f 70/58/20 11/23/20 69/59/20
f 70/58/21 25/56/21 67/60/21
f 27/61/22 67/60/22 10/62/22
f 27/61/23 40/16/23 70/58/23
f 71/55/24 9/63/24 26/64/24
f 39/65/25 26/64/25 1/66/25
f 10/62/26 71/55/26 39/65/26
f 72/54/27 3/67/27 38/68/27
f 9/63/28 72/54/28 38/68/28
f 68/57/29 66/52/29 72/54/29
f 73/51/30 24/47/30 63/69/30
f 12/70/31 73/51/31 63/69/31
f 41/71/32 43/49/32 73/51/32
f 30/72/33 64/48/33 13/73/33
f 3/74/34 74/46/34 30/72/34
f 12/70/35 74/46/35 29/75/35
f 42/76/36 32/45/36 7/77/36
f 64/48/37 42/76/37 13/73/37
f 24/47/38 75/43/38 64/48/38
f 76/40/39 23/38/39 59/78/39
f 15/79/40 76/40/40 59/78/40
f 8/5/41 76/40/41 44/80/41
f 33/81/42 60/39/42 16/82/42
f 32/83/43 33/81/43 7/84/43
f 32/83/44 59/78/44 77/37/44
f 45/85/45 35/36/45 5/86/45
f 60/39/46 45/85/46 16/82/46
f 23/38/47 78/34/47 60/39/47
f 55/28/48 57/33/48 22/87/48
f 47/88/49 55/28/49 18/89/49
f 47/88/50 49/14/50 79/31/50
f 80/30/51 19/90/51 36/91/51
f 35/92/52 36/91/52 5/93/52
f 18/89/53 80/30/53 35/92/53
f 48/94/54 39/27/54 1/95/54
f 19/90/55 81/25/55 48/94/55
f 22/87/56 81/25/56 56/29/56
f 82/22/57 21/96/57 51/19/57
f 14/97/58 82/22/58 51/19/58
f 43/49/59 28/98/59 82/22/59
f 46/99/60 52/20/60 17/41/60
f 8/5/61 83/21/61 46/99/61
f 31/100/62 51/19/62 83/21/62
f 84/18/63 20/32/63 50/13/63
f 53/24/64 50/13/64 21/96/64
f 11/23/65 84/18/65 53/24/65
f 85/15/66 6/101/66 34/7/66
f 17/41/67 85/15/67 34/7/67
f 52/20/68 50/13/68 85/15/68
f 86/10/69 10/26/69 54/102/69
f 57/33/70 54/102/70 22/87/70
f 57/33/71 37/17/71 86/10/71
f 58/103/72 47/8/72 18/35/72
f 61/42/73 58/103/73 23/38/73
f 17/41/74 87/9/74 61/42/74
f 62/104/75 44/6/75 15/44/75
f 65/50/76 62/104/76 24/47/76
f 65/50/77 31/100/77 88/4/77
f 89/1/78 12/105/78 66/52/78
f 69/59/79 66/52/79 25/56/79
f 69/59/80 28/98/80 89/1/80
f 89/1/81 28/98/81 4/2/81
f 88/4/82 31/100/82 8/5/82
f 34/7/83 6/101/83 47/8/83
f 86/10/84 37/17/84 2/11/84
f 50/13/85 20/32/85 49/14/85
f 40/16/86 2/11/86 37/17/86
f 51/19/87 21/96/87 52/20/87
f 82/22/88 28/98/88 11/23/88
f 81/25/89 54/102/89 10/26/89
f 55/28/90 22/87/90 56/29/90
f 79/31/91 49/14/91 20/32/91
f 78/34/92 58/103/92 18/35/92
f 77/37/93 59/78/93 23/38/93
f 76/40/94 46/99/94 17/41/94
f 75/43/95 62/104/95 15/44/95
f 74/46/96 63/69/96 24/47/96
f 43/49/97 14/97/97 65/50/97
f 66/52/98 12/105/98 29/53/98
f 71/55/99 67/60/99 25/56/99
f 70/58/100 40/16/100 11/23/100
f 70/58/101 69/59/101 25/56/101
f 27/61/102 70/58/102 67/60/102
f 27/61/103 2/11/103 40/16/103
f 71/55/104 68/57/104 9/63/104
f 39/65/105 71/55/105 26/64/105
f 10/62/106 67/60/106 71/55/106
f 72/54/107 29/53/107 3/67/107
f 9/63/108 68/57/108 72/54/108
f 68/57/109 25/56/109 66/52/109
f 73/51/110 65/50/110 24/47/110
f 12/70/111 41/71/111 73/51/111
f 41/71/112 4/2/112 43/49/112
f 30/72/113 74/46/113 64/48/113
f 3/74/114 29/75/114 74/46/114
f 12/70/115 63/69/115 74/46/115
f 42/76/116 75/43/116 32/45/116
f 64/48/117 75/43/117 42/76/117
f 24/47/118 62/104/118 75/43/118
f 76/40/119 61/42/119 23/38/119
f 15/79/120 44/80/120 76/40/120
f 8/5/121 46/99/121 76/40/121
f 33/81/122 77/37/122 60/39/122
f 32/83/123 77/37/123 33/81/123
f 32/83/124 15/79/124 59/78/124
f 45/85/125 78/34/125 35/36/125
f 60/39/126 78/34/126 45/85/126
f 23/38/127 58/103/127 78/34/127
f 55/28/128 79/31/128 57/33/128
f 47/88/129 79/31/129 55/28/129
f 47/88/130 6/101/130 49/14/130
f 80/30/131 56/29/131 19/90/131
f 35/92/132 80/30/132 36/91/132
f 18/89/133 55/28/133 80/30/133
f 48/94/134 81/25/134 39/27/134
f 19/90/135 56/29/135 81/25/135
f 22/87/136 54/102/136 81/25/136
f 82/22/137 53/24/137 21/96/137
f 14/97/138 43/49/138 82/22/138
f 43/49/139 4/2/139 28/98/139
f 46/99/140 83/21/140 52/20/140
f 8/5/141 31/100/141 83/21/141
f 31/100/142 14/97/142 51/19/142
f 84/18/143 37/17/143 20/32/143
f 53/24/144 84/18/144 50/13/144
f 11/23/145 40/16/145 84/18/145
f 85/15/146 49/14/146 6/101/146
f 17/41/147 52/20/147 85/15/147
f 52/20/148 21/96/148 50/13/148
f 86/10/149 27/12/149 10/26/149
f 57/33/150 86/10/150 54/102/150
f 57/33/151 20/32/151 37/17/151
f 58/103/152 87/9/152 47/8/152
f 61/42/153 87/9/153 58/103/153
f 17/41/154 34/7/154 87/9/154
f 62/104/155 88/4/155 44/6/155
f 65/50/156 88/4/156 62/104/156
f 65/50/157 14/97/157 31/100/157
f 89/1/158 41/3/158 12/105/158
f 69/59/159 89/1/159 66/52/159
f 69/59/160 11/23/160 28/98/160
